<?xml version="1.0" encoding="utf-8"?>
<svg xmlns="http://www.w3.org/2000/svg" style="display: none">

    
<symbol id="burger" viewBox="0 0 30 4">
    <rect x="0" y="0" fill="" width="30" height="4"/>
    <rect x="0" y="8" fill="" width="30" height="4"/>
    <rect x="0" y="16" fill="" width="30" height="4"/>
</symbol>    

<symbol id="cross" viewBox="0 0 16 16">
    <rect x="0" y="0" transform="matrix(0.7069 -0.7074 0.7074 0.7069 -292.2114 -44.2351)" fill="#FFFFFF" width="3" height="15.4"/>
    <rect x="6.1" y="6.3" transform="matrix(0.7071 -0.7071 0.7071 0.7071 -292.0888 -44.2147)" fill="#FFFFFF" width="15.3" height="3"/>
</symbol>     
    

<symbol id="arrow" viewBox="0 0 79.6 37.6">
    
	<rect fill="" x="1.5" y="27" width="79.6" height="5"/>
	<rect fill="" x="14" y="-3.2" transform="matrix(0.7071 0.7071 -0.7071 0.7071 15.8407 -7.0997)" width="5" height="37.6"/>
	<rect fill="" x="-2.3" y="41.1" transform="matrix(0.7071 0.7071 -0.7071 0.7071 35.6402 1.1015)" width="37.6" height="5"/>
    
</symbol>    
    
<symbol id="logo-new" viewBox="0 0 320 45">
<path class="st0" d="M9.6,64.5H0V56h11l1.8-12.8H2.7v-8.5H14l2.2-13.9h8.1l-2,13.9H32l2.2-13.9h8.3l-2.2,13.9h10.1v8.5H39.1L37.3,56
	h10.3v8.5H36l-2.3,16.1h-8.3l2.3-16.1h-9.9l-2.3,16.1H7.4L9.6,64.5z M29.1,56L31,43.2H21L19.1,56H29.1z"/>
<path class="st0" d="M84.3,39.4c-0.3-3.7-2.7-7.2-8.2-7.2c-5.1,0-8.3,2.7-8.3,6.6c0,3.7,2,5.9,7.3,6.8l8.4,1.5
	C93.2,49,98,54.3,98,62.4c0,11.8-8.1,18.3-22.1,18.3c-13.8,0-21.5-6.6-22-16.9h12.3c0.6,4.8,3.9,8.3,10,8.3c6.6,0,9.6-3.3,9.6-7.5
	c0-3.8-2.1-5.8-7.8-6.9l-8.2-1.6c-8.5-1.7-14.2-6.8-14.2-15.6c0-9.7,7.5-16.8,20.7-16.8c14,0,19.9,7.2,20.2,15.8H84.3z"/>
<path class="st0" d="M100.1,24.4h13l17.8,29.8c2.8,4.8,4,8.2,4,8.2h0.2v-38h10.8v55.1h-12.5l-18.3-30.4c-3-4.8-4.2-8.4-4.2-8.4h-0.2
	v38.7h-10.7V24.4z"/>
<path class="st0" d="M148.9,24.4h17.1L176,54c1.6,4.6,2.3,8.1,2.3,8.1h0.1c0,0,0.8-3.5,2.3-8.1l9.9-29.6h17.1v55.1h-11.7V36.4h-0.2
	c0,0-1.2,5.1-3.4,11.7l-10.3,31.5h-8.8l-10.4-31.5c-2.2-6.6-3.2-11.6-3.2-11.6h-0.2v43.1h-10.7V24.4z"/>
<rect x="224.1" class="st1" width="7" height="97.3"/>
<g>
	<path class="st0" d="M255.9,65.1h-5.6V49.7h-2.8v-4h2.8v-2.3c0-5.1,2.8-6.7,6.9-6.7c1.5,0,2.6,0.2,2.8,0.2v4
		c-0.1,0-0.7-0.1-1.6-0.1c-1.7,0-2.6,0.7-2.6,2.9v2.1h7.5v-2.6c0-5.1,2.8-6.7,6.9-6.7c1.5,0,2.6,0.2,2.8,0.2v4
		c-0.1,0-0.7-0.1-1.6-0.1c-1.7,0-2.6,0.7-2.6,2.9v2.3h3.8v4H269v15.3h-5.6V49.7h-7.5V65.1z"/>
	<path class="st0" d="M285.9,57.1c0,1.4,0.1,2.4,0.6,3.2c0.5,0.8,1.3,1.1,2.4,1.1c2.5,0,3.8-1.7,3.8-5V45.8h5.7v19.3h-5.5v-3.1h-0.1
		c-1,1.9-2.9,3.5-6,3.5c-4.6,0-6.6-2.3-6.6-6.8V45.8h5.7V57.1z"/>
	<path class="st0" d="M307.1,65.1h-5.6V36.7h5.6v17.1l6.6-8h6l-6.4,7.6l6.8,11.7h-6.2l-4.4-7.9l-2.4,2.9V65.1z"/>
</g>    
</symbol>    
    
    
</svg>
