<svg xmlns="http://www.w3.org/2000/svg" viewBox="0 0 401.24 99.21"><defs><style>.cls-1{fill:#fff;}</style></defs><title>ffuk_new_logo_negative</title><g id="Layer_1" data-name="Layer 1"><path class="cls-1" d="M121.2,45.16h-1.94v.44h6.37v-.44H123.7V38.38h.75c1.35,0,2,.24,2.29.88a4.37,4.37,0,0,1,.37,2h.3v-6h-.3c0,2.4-.49,2.75-3.4,2.73v-6.6h1.45a14.12,14.12,0,0,1,2.43.07,2.55,2.55,0,0,1,1.63.88A5,5,0,0,1,130.36,35h.3l-.3-4.09h-11.1v.44h1.94Z" transform="translate(-1.26 -0.11)"/><polygon class="cls-1" points="135.05 45.05 133.12 45.05 133.12 45.48 139.48 45.48 139.48 45.05 137.55 45.05 137.55 31.25 139.48 31.25 139.48 30.81 133.12 30.81 133.12 31.25 135.05 31.25 135.05 45.05"/><path class="cls-1" d="M146.73,45.16h-1.94v.44H156.4l.4-4.53h-.33a6.87,6.87,0,0,1-1.4,3.28c-.61.66-1.21.81-3.1.81h-2.75V31.37h1.94v-.44h-6.37v.44h1.94Z" transform="translate(-1.26 -0.11)"/><path class="cls-1" d="M167.45,31.21a3.67,3.67,0,0,1,2.91,1.3c.65.88.89,2.35.89,5.85,0,3-.21,4.55-.75,5.41a3.5,3.5,0,0,1-3.05,1.54,3.64,3.64,0,0,1-2.91-1.3c-.68-.88-.91-2.38-.91-5.74,0-3.1.21-4.66.75-5.52A3.51,3.51,0,0,1,167.45,31.21Zm0-.51c-3.64,0-6.76,3.48-6.76,7.55s3.12,7.57,6.79,7.57a6.26,6.26,0,0,0,4.5-2,8.38,8.38,0,0,0,2.26-5.5C174.21,34.16,171.13,30.71,167.42,30.71Z" transform="translate(-1.26 -0.11)"/><path class="cls-1" d="M177.94,45.6H189l.42-4.62h-.3c-.54,2.09-.91,2.82-1.68,3.54-.63.55-1,.64-3,.64h-4l9.23-14.23H178.92l-.44,4.49h.3c.7-2.51,1.31-3.45,2.43-3.87.44-.18.47-.18,1.77-.18h3.61l-8.65,13.27Z" transform="translate(-1.26 -0.11)"/><path class="cls-1" d="M200.18,31.21a3.67,3.67,0,0,1,2.91,1.3c.65.88.89,2.35.89,5.85,0,3-.21,4.55-.75,5.41a3.5,3.5,0,0,1-3.05,1.54,3.64,3.64,0,0,1-2.91-1.3c-.68-.88-.91-2.38-.91-5.74,0-3.1.21-4.66.75-5.52A3.51,3.51,0,0,1,200.18,31.21Zm0-.51c-3.64,0-6.76,3.48-6.76,7.55s3.12,7.57,6.79,7.57a6.26,6.26,0,0,0,4.5-2,8.38,8.38,0,0,0,2.26-5.5C206.95,34.16,203.87,30.71,200.16,30.71Z" transform="translate(-1.26 -0.11)"/><path class="cls-1" d="M212.53,45.16h-1.94v.44H217v-.44H215V38.38h.75c1.35,0,2,.24,2.29.88a4.37,4.37,0,0,1,.37,2h.3v-6h-.3c0,2.4-.49,2.75-3.4,2.73v-6.6h1.45a14.12,14.12,0,0,1,2.43.07,2.55,2.55,0,0,1,1.63.88A5,5,0,0,1,221.7,35h.3l-.3-4.09h-11.1v.44h1.94Z" transform="translate(-1.26 -0.11)"/><polygon class="cls-1" points="226.38 45.05 224.45 45.05 224.45 45.48 230.81 45.48 230.81 45.05 228.88 45.05 228.88 31.25 230.81 31.25 230.81 30.81 224.45 30.81 224.45 31.25 226.38 31.25 226.38 45.05"/><path class="cls-1" d="M247.35,41.44H247c-1,2.57-2.45,3.87-4.52,3.87a3.69,3.69,0,0,1-3.08-1.36c-.56-.77-.75-2.07-.75-5.08,0-3.21.23-5.1.72-6a3.59,3.59,0,0,1,3.29-1.69A4.34,4.34,0,0,1,247,34.8h.35V30.93H247l-.79,1a6.26,6.26,0,0,0-3.64-1.25,6.83,6.83,0,0,0-3.94,1.41,7.69,7.69,0,0,0-2.92,6.18c0,4.11,3,7.52,6.65,7.52a6.57,6.57,0,0,0,3.85-1.3L247,45.6h.35Z" transform="translate(-1.26 -0.11)"/><path class="cls-1" d="M258.2,36.65l5-5.28h2v-.44h-5v.44h2.29l-6.25,6.58,5.71,7.22h-2v.44H266v-.44H264.9Zm-4.73,8.51h-1.94v.44h6.37v-.44H256V31.37h1.94v-.44h-6.37v.44h1.94Z" transform="translate(-1.26 -0.11)"/><path class="cls-1" d="M277.76,27.19l-3.22,2.31.16.26,5.41-2c.26-.09.35-.2.35-.31s-.09-.24-.37-.24Zm-.58,13.24h-4.36L275,34.34Zm.16.44,1.52,4.29h-2v.44h6.32v-.44h-1.63l-5-14.23h-.7l-5.27,14.23h-1.12v.44h3.78v-.44h-2l1.52-4.29Z" transform="translate(-1.26 -0.11)"/><path class="cls-1" d="M296,45.16H294v.44h6.37v-.44h-1.94V38.38h.75c1.35,0,2,.24,2.29.88a4.37,4.37,0,0,1,.37,2h.3v-6h-.3c0,2.4-.49,2.75-3.4,2.73v-6.6h1.45a14.12,14.12,0,0,1,2.43.07,2.55,2.55,0,0,1,1.63.88A5,5,0,0,1,305.12,35h.3l-.3-4.09H294v.44H296Z" transform="translate(-1.26 -0.11)"/><path class="cls-1" d="M314.57,40.43h-4.36l2.19-6.09Zm.16.44,1.52,4.29h-2v.44h6.32v-.44h-1.63l-5-14.23h-.7L307.9,45.16h-1.12v.44h3.78v-.44h-2L310,40.87Z" transform="translate(-1.26 -0.11)"/><path class="cls-1" d="M330.83,36.65l5-5.28h2v-.44h-5v.44h2.29l-6.25,6.58,5.71,7.22h-2v.44h6.13v-.44h-1.12Zm-4.73,8.51h-1.94v.44h6.37v-.44h-1.94V31.37h1.94v-.44h-6.37v.44h1.94Z" transform="translate(-1.26 -0.11)"/><path class="cls-1" d="M353.4,31.37v8.4c0,2.42-.07,2.93-.47,3.76a3.28,3.28,0,0,1-3.19,1.78,3.48,3.48,0,0,1-2.92-1.25c-.61-.81-.65-1.19-.65-4.29v-8.4h1.94v-.44h-6.37v.44h1.94v8.4c0,2.9.21,3.76,1.19,4.66a6.62,6.62,0,0,0,4.36,1.39,4.57,4.57,0,0,0,3.87-1.56c.7-1,.84-1.67.84-4.49v-8.4h1.94v-.44h-4.43v.44Z" transform="translate(-1.26 -0.11)"/><path class="cls-1" d="M361.72,45.16h-1.94v.44H371.4l.4-4.53h-.33a6.87,6.87,0,0,1-1.4,3.28c-.61.66-1.21.81-3.1.81h-2.75V31.37h1.94v-.44h-6.37v.44h1.94Z" transform="translate(-1.26 -0.11)"/><path class="cls-1" d="M379,45.16h-2.19v.44h6.9v-.44h-2.17V31.37h.79c1.59,0,2.05.15,2.71.92a6.72,6.72,0,0,1,1.4,3.28h.35l-.16-4.64H373.93l-.16,4.64h.35a6.72,6.72,0,0,1,1.4-3.28c.65-.77,1.12-.92,2.73-.92H379Z" transform="translate(-1.26 -0.11)"/><path class="cls-1" d="M396.53,40.43h-4.36l2.19-6.09Zm.16.44,1.52,4.29h-2v.44h6.32v-.44h-1.63l-5-14.23h-.7l-5.27,14.23h-1.12v.44h3.78v-.44h-2L392,40.87Z" transform="translate(-1.26 -0.11)"/><path class="cls-1" d="M130.17,53.91v8c0,2.31-.07,2.79-.45,3.59a3.13,3.13,0,0,1-3,1.7,3.32,3.32,0,0,1-2.78-1.2c-.58-.78-.62-1.13-.62-4.09v-8h1.85v-.42H119v.42h1.85v8c0,2.77.2,3.59,1.14,4.45a6.32,6.32,0,0,0,4.16,1.32,4.36,4.36,0,0,0,3.7-1.49c.67-.92.8-1.6.8-4.28v-8h1.85v-.42H128.3v.42Z" transform="translate(-1.26 -0.11)"/><path class="cls-1" d="M135.55,67.08h-1.49v.42h4.83v-.42h-1.34v-2.5c0-2.58.13-3.49.56-4.07a2.2,2.2,0,0,1,1.62-.84,1.4,1.4,0,0,1,1.11.52c.31.4.4,1.16.4,3.65v3.23h-1.34v.42h4.81v-.42h-1.47V62.42c0-1.55-.11-2-.62-2.56a3.62,3.62,0,0,0-5.08.48V59.25h-3.49v.42h1.49Z" transform="translate(-1.26 -0.11)"/><path class="cls-1" d="M149.51,53.79A1.18,1.18,0,0,0,148.27,55a1.2,1.2,0,0,0,1.25,1.2,1.19,1.19,0,1,0,0-2.37Zm-.93,13.29h-1.49v.42h5v-.42h-1.47V59.25h-3.49v.42h1.49Z" transform="translate(-1.26 -0.11)"/><polygon class="cls-1" points="160.39 59.55 161.28 59.55 161.28 59.13 158.1 59.13 158.1 59.55 159.79 59.55 157.5 65.2 155.16 59.55 156.76 59.55 156.76 59.13 152.04 59.13 152.04 59.55 152.98 59.55 156.39 67.59 157.16 67.59 160.39 59.55"/><path class="cls-1" d="M166.26,62.27v-.44c0-1.05.09-1.41.4-1.76a1.87,1.87,0,0,1,1.45-.55,1.41,1.41,0,0,1,1.42.82c.16.38.18.55.18,1.93Zm5.77.42a3.44,3.44,0,0,0-.58-2,3.92,3.92,0,0,0-3.32-1.7,4.37,4.37,0,0,0-4.18,4.33,4.45,4.45,0,0,0,4.3,4.35,3.67,3.67,0,0,0,3.63-3h-.53a3,3,0,0,1-3,2.5,2,2,0,0,1-1.83-1c-.24-.44-.29-.92-.29-3v-.61Z" transform="translate(-1.26 -0.11)"/><path class="cls-1" d="M175.57,67.08h-1.49v.42h5v-.42h-1.47v-2c0-2.44.22-3.63.89-4.7.2-.31.45-.52.6-.52s.2.1.22.29c0,.42,0,.42.09.57a1,1,0,0,0,.91.57,1.06,1.06,0,0,0,1.09-1.07A1.27,1.27,0,0,0,180,59c-1,0-1.8.71-2.4,2.2v-2h-3.49v.42h1.49Z" transform="translate(-1.26 -0.11)"/><path class="cls-1" d="M191.15,59.25H184v3.21h.29c.49-1.55.6-1.78,1-2.25s.78-.55,2-.55h1.18l-5.36,7.83h7.66l0-3.51h-.29a12.6,12.6,0,0,1-.71,2.1c-.4.76-1,1-2.4,1H185.7Z" transform="translate(-1.26 -0.11)"/><path class="cls-1" d="M196,53.79A1.18,1.18,0,0,0,194.72,55a1.2,1.2,0,0,0,1.25,1.2,1.19,1.19,0,1,0,0-2.37ZM195,67.08h-1.49v.42h5v-.42H197V59.25h-3.49v.42H195Z" transform="translate(-1.26 -0.11)"/><path class="cls-1" d="M203.38,56H203a5.89,5.89,0,0,1-3,3.34v.29h1.36V65c0,1.3,0,1.53.45,2a2.38,2.38,0,0,0,1.89.76,2.08,2.08,0,0,0,2.34-1.79h-.45c-.16.78-.53,1.13-1.2,1.13a1,1,0,0,1-.85-.4c-.16-.23-.18-.42-.18-1v-6h2.23v-.42h-2.23Z" transform="translate(-1.26 -0.11)"/><path class="cls-1" d="M213.51,63.72a4.19,4.19,0,0,1-.36,2.12,1.78,1.78,0,0,1-1.58.94,1.27,1.27,0,0,1-1.34-1.41,1.75,1.75,0,0,1,1-1.6,4.4,4.4,0,0,1,2.27-.48Zm3.14,3c-.4.31-.45.34-.67.34a.33.33,0,0,1-.38-.25c-.09-.19-.09-.19-.09-2.18V62.35c0-1.83,0-2-.51-2.44a3.78,3.78,0,0,0-2.63-.88c-1.85,0-3.49,1-3.49,2.1a.92.92,0,0,0,1,.92.89.89,0,0,0,.91-.9.85.85,0,0,0-.31-.65.29.29,0,0,1-.11-.23c0-.4.91-.88,1.67-.88a1.72,1.72,0,0,1,1.22.42c.24.27.29.48.29,1.68v1.45a9.58,9.58,0,0,0-3.23.46c-1.31.5-2,1.32-2,2.35s1,2,2.36,2a3.33,3.33,0,0,0,2.89-1.64,1.7,1.7,0,0,0,1.87,1.64,2.2,2.2,0,0,0,1.54-.63Z" transform="translate(-1.26 -0.11)"/><path class="cls-1" d="M232.11,59l4.74-5h1.87v-.42H234v.42h2.18l-6,6.28,5.45,6.89h-1.94v.42h5.85v-.42H238.5Zm-4.52,8.13h-1.85v.42h6.08v-.42H230V53.91h1.85v-.42h-6.08v.42h1.85Z" transform="translate(-1.26 -0.11)"/><path class="cls-1" d="M247,63.72a4.18,4.18,0,0,1-.36,2.12,1.78,1.78,0,0,1-1.58.94,1.27,1.27,0,0,1-1.34-1.41,1.75,1.75,0,0,1,1-1.6A4.4,4.4,0,0,1,247,63.3Zm3.14,3c-.4.31-.45.34-.67.34a.33.33,0,0,1-.38-.25c-.09-.19-.09-.19-.09-2.18V62.35c0-1.83,0-2-.51-2.44A3.78,3.78,0,0,0,245.9,59c-1.85,0-3.49,1-3.49,2.1a.92.92,0,0,0,1,.92.89.89,0,0,0,.91-.9.85.85,0,0,0-.31-.65.28.28,0,0,1-.11-.23c0-.4.91-.88,1.67-.88a1.72,1.72,0,0,1,1.22.42c.24.27.29.48.29,1.68v1.45a9.58,9.58,0,0,0-3.23.46c-1.31.5-2,1.32-2,2.35s1,2,2.36,2A3.33,3.33,0,0,0,247,66.07a1.7,1.7,0,0,0,1.87,1.64,2.2,2.2,0,0,0,1.54-.63Z" transform="translate(-1.26 -0.11)"/><path class="cls-1" d="M254.29,67.08H252.8v.42h5v-.42H256.3v-2c0-2.44.22-3.63.89-4.7.2-.31.45-.52.6-.52s.2.1.22.29c0,.42,0,.42.09.57a1,1,0,0,0,.91.57,1.06,1.06,0,0,0,1.09-1.07A1.27,1.27,0,0,0,258.7,59c-1,0-1.8.71-2.4,2.2v-2H252.8v.42h1.49Z" transform="translate(-1.26 -0.11)"/><polygon class="cls-1" points="261.74 66.97 260.25 66.97 260.25 67.39 265.22 67.39 265.22 66.97 263.75 66.97 263.75 53.38 260.25 53.38 260.25 53.8 261.74 53.8 261.74 66.97"/><path class="cls-1" d="M272.88,59.52a2,2,0,0,1,1.8.73c.31.44.36.73.36,3.15,0,2.14,0,2.52-.24,2.92a2.45,2.45,0,0,1-3.65.17c-.33-.46-.36-.73-.36-3.13,0-2.21,0-2.54.24-3A2,2,0,0,1,272.88,59.52Zm0-.48a4.34,4.34,0,1,0,4.52,4.39A4.43,4.43,0,0,0,272.9,59Z" transform="translate(-1.26 -0.11)"/><polygon class="cls-1" points="285.9 59.55 286.8 59.55 286.8 59.13 283.61 59.13 283.61 59.55 285.3 59.55 283.01 65.2 280.67 59.55 282.28 59.55 282.28 59.13 277.56 59.13 277.56 59.55 278.49 59.55 281.9 67.59 282.68 67.59 285.9 59.55"/><path class="cls-1" d="M294.91,63.72a4.19,4.19,0,0,1-.36,2.12,1.78,1.78,0,0,1-1.58.94,1.27,1.27,0,0,1-1.34-1.41,1.75,1.75,0,0,1,1-1.6,4.4,4.4,0,0,1,2.27-.48Zm3.14,3c-.4.31-.45.34-.67.34a.33.33,0,0,1-.38-.25c-.09-.19-.09-.19-.09-2.18V62.35c0-1.83,0-2-.51-2.44a3.78,3.78,0,0,0-2.63-.88c-1.85,0-3.49,1-3.49,2.1a.92.92,0,0,0,1,.92.89.89,0,0,0,.91-.9.85.85,0,0,0-.31-.65.29.29,0,0,1-.11-.23c0-.4.91-.88,1.67-.88a1.72,1.72,0,0,1,1.22.42c.24.27.29.48.29,1.68v1.45a9.59,9.59,0,0,0-3.23.46c-1.31.5-2,1.32-2,2.35s1,2,2.36,2a3.33,3.33,0,0,0,2.89-1.64,1.7,1.7,0,0,0,1.87,1.64,2.2,2.2,0,0,0,1.54-.63Z" transform="translate(-1.26 -0.11)"/></g><g id="Vrstva_4" data-name="Vrstva 4"><path class="cls-1" d="M50.76.11a49.61,49.61,0,1,0,49.72,49.5A49.61,49.61,0,0,0,50.76.11M51,98.61A48.81,48.81,0,1,1,99.74,49.69,48.82,48.82,0,0,1,51,98.61" transform="translate(-1.26 -0.11)"/><path class="cls-1" d="M49.49,5.67c.21,0,.44.19.4.66a7.67,7.67,0,0,1-.28,2,10.72,10.72,0,0,0,1.69,0,8.66,8.66,0,0,1-.42-2c-.08-.53.2-.68.45-.71a3.66,3.66,0,0,1,1.76.33V4.35a3.58,3.58,0,0,1-1.76.39c-.3,0-.54-.12-.59-.45a5,5,0,0,1,.18-2.21,4.1,4.1,0,0,0-1.47,0,4.83,4.83,0,0,1,.37,2.1c0,.22-.22.6-.48.59a5.87,5.87,0,0,1-1.75-.33V6a3.33,3.33,0,0,1,1.91-.3" transform="translate(-1.26 -0.11)"/><path class="cls-1" d="M37.36,5c.45-.11.67-.34.83.13a37.67,37.67,0,0,1,1,3.67c.17.68-.36.59-.64.72s-.17.77.16.66A21.38,21.38,0,0,1,42,9.44a1.13,1.13,0,0,0,.71-.5c.18-.21.44,0,.79.11s2.39.64,2.9-.86c.35-1-.71-1.93-1.72-2.51.45-.8,1.24-2.22,1.64-2.74.15-.2-.3-.63-.51-.38s-.31.37-.44.51-.31.35-.81,0a2,2,0,0,0-3,.82c-.26.74.19,1.58,1.39,2.29.2.1.13.25.07.42a19.4,19.4,0,0,1-1,1.89c-.11.19-1.23.62-1.52-.25-.47-1.43-.6-1.89-1-3.43-.14-.53.7-.56,1-.64s.24-.73-.09-.68a26.21,26.21,0,0,0-3.25.87c-.29.1-.16.72.19.63M43,3.86c.23-.37,1.09-.23,1.51.17.17.19.1.35,0,.54L44,5.39c-1.2-.71-1.38-1-1-1.54m.47,3.67a6.34,6.34,0,0,1,.38-.85c.44.25,1.67.72,1.14,1.62-.23.4-.94.13-1.28,0s-.37-.42-.23-.74" transform="translate(-1.26 -0.11)"/><path class="cls-1" d="M57.91,9.21c.29-.2.51-.49,1.06,0a2.18,2.18,0,0,0,3.32-.11c.4-.57.29-1.57-.76-2.59L64.1,4.41c.23-.16-.12-.62-.34-.47-.44.26-.89.37-1.16.14C60,1.77,58,4.44,59.65,6.44L57.52,8.69c-.29.27.17.67.38.52m2.7-4.91a.82.82,0,0,1,1.06.06,1,1,0,0,1,.25.2c.24.22.28.5.13.66a4.78,4.78,0,0,1-.45.39c-.18.11-.43.47-.7.2l-.32-.3a1,1,0,0,1,0-1.2M59.34,7.86a4.12,4.12,0,0,1,.43-.46c.26-.18.5-.41.71-.2.39.35,1.2,1,.5,1.71-.53.4-1.12.07-1.53-.39-.23-.28-.33-.42-.11-.67" transform="translate(-1.26 -0.11)"/><path class="cls-1" d="M33.67,8.75A26.36,26.36,0,0,1,33,11.91c-.13.42.51.48.64.15a5.43,5.43,0,0,1,.37-.84c1.37.33,3.28.18,3.51-1.63.19-1.54-1.23-1.8-1.78-2a14.73,14.73,0,0,1,.63-3c.09-.3-.41-.45-.61-.1a6.19,6.19,0,0,0-.35.8C33,5,31.92,5.81,31.8,6.73s.4,1.74,1.88,2m2.47,1.08c-.12.94-1.52.64-1.71.59s-.17-.1-.14-.34.16-1.23.16-1.23c.82.07,1.78.22,1.69,1M33.21,6.57c.07-.62,2.08-.69,2,0,0,.31-.15.67-.18.91-.55-.09-1.95.12-1.83-.91" transform="translate(-1.26 -0.11)"/><path class="cls-1" d="M63.22,9.67c-.33,0-.43.46-.16.53a26.94,26.94,0,0,1,3.08,1.06c.28.11.43-.44.2-.54a1,1,0,0,1-.66-1.23c.33-1.19.59-2,1-3.24.17-.46.65-.19,1-.16s.41-.44.16-.52c-.63-.25-2.32-.81-3-1-.3-.1-.51.37-.15.55s.84.2.74.74c-.37,1.31-.63,2.27-1.11,3.53-.16.4-.79.27-1.11.27" transform="translate(-1.26 -0.11)"/><path class="cls-1" d="M68.65,12.6a2.65,2.65,0,0,0,2.35.09c.79-.36,1.81-2.17.57-2.76A10.29,10.29,0,0,0,70,9.25c-.35-.13-.56.4-.23.56A1.13,1.13,0,1,1,69,11.94a.68.68,0,0,1-.51-.78A9.68,9.68,0,0,1,69.89,7.9a1.48,1.48,0,0,1,2.3.68c.09.31,0,.38-.23.57s0,.6.25.48a21.65,21.65,0,0,1,2.11-1c.2-.1,0-.57-.28-.49S73,8.48,72.6,7.89c-.79-1.53-3.29-2.32-4.77.74-1.12,2.53.16,3.66.81,4" transform="translate(-1.26 -0.11)"/><path class="cls-1" d="M21.74,17.72A2.09,2.09,0,0,0,24,18.2a4.17,4.17,0,0,0,1.67-1.87A4.15,4.15,0,0,0,26.75,16c.34-.18,2.27-1.48,3.48-2.21.26-.15,0-.64-.28-.55s-.74.34-1,.06a37.4,37.4,0,0,1-2.09-3.52c-.18-.28.23-.43.73-.73s1-.38,1.2,0c.88,1.86,1.72,3.72,2.15,3.87a1.31,1.31,0,0,0,1.39-.6c.24-.47-.16-.73-.46-.55s-.47.19-.68,0c-.56-.77,0-2.05-.3-2.78a4.27,4.27,0,0,0-2.25-1.26,16.69,16.69,0,0,0-4.14,2.46.31.31,0,0,0,.27.54c.29-.11.68-.43.89-.09l2.07,3.3c.19.41-.33.75-.76,1.08-1.06.72-1.68-.31-2.37-1.19-.94-1.26-1-2.08-.78-2.49s0-.49-.24-.45a1.14,1.14,0,0,0-.77,1c-.06.26-.2.33-.53.39-1.13.32-2.4.72-2.44,1.79a4.47,4.47,0,0,0,1.91,3.76m2.09-2.93a11.33,11.33,0,0,1,.77.95.6.6,0,0,1,.08.65c-.11.18-.8,1.78-2.29-.12a.38.38,0,0,1,0-.55c.28-.29.63-.59.9-.85s.41-.19.51-.07m-2.7-1.39c1.17-.86,1.66.06,1.84.29s.24.35,0,.54l-.8.68c-.25.22-.48.45-.68.28s-1.07-1.29-.38-1.8" transform="translate(-1.26 -0.11)"/><path class="cls-1" d="M75.07,10.47c-.62,1.18-1,1.95-1.69,3-.36.48-.7.16-1.34-.07-.3-.11-.54.37-.27.54.52.33,1.8,1.19,2.84,1.82.23.16.57-.21.36-.48s-.72-.39-.43-1a34.66,34.66,0,0,1,1.75-3.1c.3-.47.85-.17,1.09-.07s.54-.38.3-.49C76.75,10.13,75.83,9.51,75,9c-.33-.23-.67.21-.4.45s.71.58.47,1" transform="translate(-1.26 -0.11)"/><path class="cls-1" d="M78.65,12.91c-.91,1.31-1.22,1.76-2.29,3.15-.22.24-.53-.08-.66-.12s-.53.36-.26.56a34.17,34.17,0,0,1,3.64,3c.17.22.58,0,.4-.38s-.52-.68,0-1.16a12.94,12.94,0,0,1,2.76-2c.42-.25.63,0,.85-.08s.29-.43.07-.57c-1.31-.84-3.58,1.08-5,1.87-.45.25-.93-.14-.61-.56.83-1.09,1.31-1.8,2.18-2.88.37-.43.68-.09.92,0s.57-.26.37-.44c-.9-.74-1.28-1.08-2.22-1.83a.29.29,0,0,0-.41.42c.09.16.69.4.27,1" transform="translate(-1.26 -0.11)"/><path class="cls-1" d="M20.53,21.91A2.33,2.33,0,0,0,21,18.59c-.93-1.14-2.42-.39-2.91.51-.26.48,0,.77.3.59.57-.33.94-.55,1.46.14s.72,1,.28,1.45a1.43,1.43,0,0,1-1.59.11,6,6,0,0,1-2.27-2.06,1.36,1.36,0,0,1,.22-1.67c1.38-1.11,1.6.08,3-.1.35,0,.44-.41.23-.52a2.68,2.68,0,0,1-1.51-1.91c-.12-.42-.55-.16-.59.13s.12.7-.29,1a7.28,7.28,0,0,0-1.93,1.48c-.88,1-.45,2.58.8,3.86s2.82,1.79,4.35.34" transform="translate(-1.26 -0.11)"/><path class="cls-1" d="M83.68,17.24A35.29,35.29,0,0,1,81,19.91c-.23.19-.43,0-.55,0a.3.3,0,0,0-.37.47c1,1.19,2.39,2.6,3.22,3.63.19.25.6,0,.46-.37-.21-.51-.51-.6,0-1.13a10.75,10.75,0,0,1,2.76-1.83c.75-.31,1.18.72.87,1.28-.88,1.63-1.52,2.5-2.31,4.22-.06.13.11.35.22.36,2.59.19,4.83-.55,5.63-.06.35.32.77,0,.6-.27C91,25.26,90.85,25,90.24,24a.3.3,0,0,0-.56.19c0,.35.16.4-.2.62a8.62,8.62,0,0,1-3.18,1c-.27,0-.36,0-.18-.24a16.82,16.82,0,0,1,2.38-2.49c.22-.2.35-.07.51.08s.6-.14.46-.36c-.66-1-1-1.61-1.77-2.57-.8-1.17-3.52.52-4.92,1.09-.54.22-1.09-.18-.57-.72.95-1,1.35-1.41,2.34-2.35.45-.36.71.06.88.18a.32.32,0,0,0,.41-.48s-1.56-1.48-1.77-1.75a.3.3,0,0,0-.49.32c.12.29.36.39.08.7" transform="translate(-1.26 -0.11)"/><path class="cls-1" d="M10.42,26.31c.33-.57.47-.9.7-1.22s.27.09.27.09a3.33,3.33,0,0,0,.4,1.75c.57.61,1.77.13,2.17.63a1.13,1.13,0,0,1,.31,1c-.25.77.75,1.16,1,.26.26-1.13-.67-1.5-1.22-2.33-.15-.17-.12-.22.05-.49s.74-1.13.94-1.4a4.24,4.24,0,0,1,.89.65c.47.48-.24,1.11-.36,1.54s.44.68.62.44a38.67,38.67,0,0,1,2.23-3.32c.28-.37-.26-.69-.55-.46s-.69.9-1.2.57a33.39,33.39,0,0,1-2.94-2.11c-.38-.3.17-.91.4-1.39.12-.26-.31-.58-.52-.37a50.87,50.87,0,0,0-3.79,5.72c-.23.39.36.84.59.45m1.79-2.79c.15-.22.51-.61.72-.44s1,.69,1.24.86-.13.56-.22.73l-.54.75c-.11.15-.25.3-.4.16a3.52,3.52,0,0,1-.81-1,.84.84,0,0,1,0-1.09" transform="translate(-1.26 -0.11)"/><path class="cls-1" d="M6.88,32.93c.19-.26.26-.51.68-.39A34.91,34.91,0,0,1,11,33.85c.63.24.51.48.27,1.36-.11.34.5.55.6.27.41-1.23,1.32-3.2,1.32-3.2.12-.24-.42-.54-.59-.26s-.38.82-.77.7l-1.67-.67c.72-2.05,2.13-.45,3.26-.81a1.18,1.18,0,0,0,.77-1.54c-.12-.45-.6-.37-.6-.11a.42.42,0,0,1-.48.45c-.37,0-.79-.5-1.2-.64a.78.78,0,0,0-1,.28c-.12.23-.33.16-.29,0A1.42,1.42,0,0,0,9.87,28a1.5,1.5,0,0,0-1.8.92L6.33,32.66c-.15.31.34.55.55.27M8.26,30.4c.23-.47.54-1.12,1.13-.86,1,.45.24,1.78,0,2.2,0,0-1-.32-1.23-.45s-.06-.66.05-.9" transform="translate(-1.26 -0.11)"/><path class="cls-1" d="M90,26.9c-.9.29-1.49,2.11-2.18,2.2-.48.06-.47-1.17-1-.71s.36,2,1.64,1.31,1.67-.81,2.89-1.41c.25-.13.7-.39.85,0s-.28.71-.62.88c-.83.44-1.59.82-2.36,1.18-.27.12-.42.33-.74.12-.16-.12-.44.15-.37.3a9.88,9.88,0,0,1,.43.93c.08.18.46.11.43-.12s.12-.13.33-.27a20.53,20.53,0,0,1,2.84-1.39c.71-.26,1.44.29.53.67-1.31.6-1.87.86-3.2,1.52-1,.47-.35,2,.13,1.88.64-.18,0-1.08.48-1.35s2.23,0,2.75-.13S94.14,30.25,94,30s-1-.89-1-1.07,0-1.19-.14-1.39A4.69,4.69,0,0,0,90,26.9" transform="translate(-1.26 -0.11)"/><path class="cls-1" d="M5.21,38.73c.11-.37.34-.67.63-.62,1.6.4,2.13.61,3.63,1.05.56.11.29.88.21,1.42-.09.3.57.52.61.14a29.09,29.09,0,0,1,1.13-3.87c.16-.39-.46-.5-.61-.22-.27.5-.44,1.39-1,1.26s-.59-.15-1.08-.32c.21-1.1,1-3.19-1-3.62-1-.21-1.67,0-2,.64a16.65,16.65,0,0,0-1.14,4c-.05.27.55.36.62.1m.71-2.45c.26-.87.34-1.22,1.4-1s.87,1,.76,1.62c0,.26-.15.48-.33.41-.76-.2-1-.3-1.76-.5-.18,0-.14-.3-.06-.56" transform="translate(-1.26 -0.11)"/><path class="cls-1" d="M93.5,34a.76.76,0,0,0-.38,1,.73.73,0,0,0,.87.34.74.74,0,0,0,.44-.91A.73.73,0,0,0,93.5,34" transform="translate(-1.26 -0.11)"/><path class="cls-1" d="M91,35.06a.72.72,0,1,0,.7,1.26.75.75,0,0,0,.27-1,.68.68,0,0,0-1-.26" transform="translate(-1.26 -0.11)"/><path class="cls-1" d="M97.65,49c0,.36-.06,1.06-.62,1.09,0,0-2.91.06-3.52.05a.6.6,0,0,1-.59-.65c-.06-1,.14-1.71.7-1.79,1.17-.15,1.53.73,2.27.73.54,0,2.35-1,2.33-2a29.93,29.93,0,0,0-.91-6.28c-.08-.25-.17-.33-.49-.27a12.28,12.28,0,0,1-3.68.12c-.55,0-.42-.17-.16-.36a9.8,9.8,0,0,1,2.84-1.55c1.06-.36,1.08,0,.9-.67a15.81,15.81,0,0,0-.57-1.84.3.3,0,0,0-.58.07c0,1.4-2.35,2.72-3.89,4.2-.23.22-.11.45.14.53,2,.66,2.92.36,4.82,1.34.35.18.48.46.55,1,0,.34.22.6-.38.65-1.24.11-2.1.2-3.57.23-.54,0-.58-.71-.79-1.48-.08-.32-.62-.2-.6.08s.41,4.13.41,4.13c0,.32.57.27.6,0,.09-.46-.22-1.25.41-1.32,1.35-.15,2.06-.23,3.54-.28.6,0,.54.17.57.59,0,.22,0,.25,0,.41a.71.71,0,0,1-.62.79l-3,.18c-2.43.3-1.12,2.39-1.66,6.25-.06.51.61.48.67,0s.22-1.45.74-1.52c.37,0,3-.07,3.47-.05s.44.41.46.76a2.87,2.87,0,0,1,0,.75c-.06.23-.06.45-.39.57-1.63.55-5,1.39-5,1.92s2.79,2.08,4.12,3.48A1.76,1.76,0,0,1,96.54,60a.32.32,0,0,0,.62-.08,13.65,13.65,0,0,0,.5-2.84c0-.38-.51-.33-.59-.09s0,.49-.57.32a26.25,26.25,0,0,1-3.39-1.53c-.28-.2-.26-.27.06-.3a21.62,21.62,0,0,1,4.3-.12c.21.05.33.44.46-.43A47.18,47.18,0,0,0,98.28,49c0-.42-.61-.37-.63,0" transform="translate(-1.26 -0.11)"/><path class="cls-1" d="M5.44,40.77a.83.83,0,0,0,.11,1,.86.86,0,0,0,1.1-.07.87.87,0,0,0-.19-1.16.78.78,0,0,0-1,.19" transform="translate(-1.26 -0.11)"/><path class="cls-1" d="M4.17,46.21a6.22,6.22,0,0,1,.19-1.27c.4.24.52,1.14,1.28,1.24s1.53-.74,2.32-.66.88.81,1,1.29c0,.24.44.22.52,0a1.77,1.77,0,0,0-.4-2c-.85-.48-1.56-.27-3.1-.36a1.51,1.51,0,0,1-1.5-1.7.3.3,0,0,0-.59-.09,29.8,29.8,0,0,0-.35,3.5c0,.29.61.33.63,0" transform="translate(-1.26 -0.11)"/><path class="cls-1" d="M7.92,41.23a.7.7,0,0,0-.36.92.74.74,0,0,0,1,.33.78.78,0,0,0,.28-1,.71.71,0,0,0-.94-.28" transform="translate(-1.26 -0.11)"/><path class="cls-1" d="M4.14,50.67c.12-.54,0-.8.4-.84a25.31,25.31,0,0,1,3.63,0c.38,0,.3.59.44,1.05.08.27.63.33.63,0,0-.74,0-2.43.08-3.1,0-.47-.61-.46-.7,0-.09.29.09.81-.53.83-1,0-2.52-.06-3.52-.14-.53,0-.3-.72-.48-1.09a.31.31,0,0,0-.61.07c0,.59.06,2.29,0,3.26,0,.38.53.34.62,0" transform="translate(-1.26 -0.11)"/><path class="cls-1" d="M6.08,63.88c.34-1.65,2.83-2.58,4.39-4.11a.28.28,0,0,0-.1-.43c-2-.67-3.89-.79-4.81-1.2a1.27,1.27,0,0,1-.83-1.3c0-.18,0-.54.29-.6A27.91,27.91,0,0,1,8.62,56c.6,0,.51.27.71,1.08.08.34.63.25.59-.08-.27-2.36-.19-3.37-.72-4.35-.79-1.44-5.24-1.49-5.49.54-.2,1.11.29,3.92.82,6.89,0,.25.54.24.57-.06.06-.62.41-.5.56-.5A28.9,28.9,0,0,1,9,59.69c.38,0,.43.12.09.31a11.45,11.45,0,0,1-3.26,1.55c-.22.05-.27.06-.51-.21s-.59.07-.5.33A19.12,19.12,0,0,1,5.48,64a.32.32,0,0,0,.6-.11m-1.55-9c-.05-.4-.07-.8-.08-1.11a.58.58,0,0,1,.43-.65A25.37,25.37,0,0,1,8.1,53c.38,0,.64.47.67.66a7.27,7.27,0,0,1,.12.92c-1.5.17-3,.31-4.36.34" transform="translate(-1.26 -0.11)"/><path class="cls-1" d="M9.77,68.44a9.54,9.54,0,0,0-1.12-.16.62.62,0,0,1-.65-.4c-.2-.45.18-.56.47-.71.62-.32,2-.85,2.7-1.15s.67.38,1.27,1.1c.21.28.8,0,.61-.33a25,25,0,0,1-1.82-3.88c-.15-.4-.73-.11-.61.23.25,1.12.6,1.5,0,1.68-1.12.38-2.41,1-2.79,1.18s-.61.24-.79-.12,0-.53.17-.73c.28-.36.7-.66.84-.87a.3.3,0,0,0-.37-.44,21,21,0,0,0-2,.86c.64,1.74,1.29,3.11,2,4.8.9-.21,1.2-.27,2.05-.5.33-.06.32-.51-.09-.56" transform="translate(-1.26 -0.11)"/><path class="cls-1" d="M96.39,60.67c-1.11-1.63-3.45-2.41-4.85-1.51-1.27.69-.64,2.85-1,3.47A24.32,24.32,0,0,0,89,66.11a.29.29,0,0,0,.5.3.47.47,0,0,1,.65-.22c.44.17.93.39,1.46.59-.46,1.32-1.07,1.31-1.91.92s-2.36.17-2,2.18c.12.7-.27.72-.6.85s-2.16,1-1.13,2.76c.52.89,1.34,1,2.35.56a13.68,13.68,0,0,1,.87,2,1.17,1.17,0,0,1-.35,1c-.26.3-.76.91-1.16.67l-2.57-1.95c-.47-.33,0-.7.23-1.45.1-.32-.3-.63-.49-.34-.9,1.2-1.36,1.81-2.36,3-.27.32.22.61.45.45.83-.56.88-1.09,1.47-.6l2.39,1.79c.44.32,0,.92-.28,1.37a.34.34,0,0,0,.61.32c1-1.11,1.92-2.35,2.81-3.54a3.72,3.72,0,0,0-.09-.72c-.1-.57.44-.57.93-.75a2.08,2.08,0,0,0,1.21-2.71c-.47-1.05-1.76-.9-2.61-.48-.41-.83-1.45-2.35-.83-2.91s1.48.64,2.17,0c.43-.36.53-.36.48.23A1.23,1.23,0,0,0,92,70.64c.71.22,1.51,0,2.06-1.23a28,28,0,0,0,1.33-3.3c.14-.39-.26-.59-.54-.21a.91.91,0,0,1-1.09.32c-1.34-.53-1.65-.61-3-1.19-.37-.2-.47-.5-.12-1.19s.77-1.05,2.8-.31,1.54.77,1.85,1.53c.16.38.67.33.63-.12-.2-2.34,1.64-2.59.49-4.28M91,73.55a1.11,1.11,0,0,1-.85,1.1c-.8.23-1.07-.26-1.29-.91.52-.2,1.82-1.16,2.14-.19m-2.31-1.19c-.87.51-1.61.76-1.88.11a1,1,0,0,1,.7-1.19c.33-.09.74-.07,1.18,1.08M92.26,67l1.64.62c-.62,2.7-3,1.65-1.64-.62m.91-4.53A9.35,9.35,0,0,1,91.42,62c-.39-1.77.91-1.84,2.21-1.46a16.34,16.34,0,0,1-.46,2m2.3.63a3.66,3.66,0,0,1-1.58-.4c.08-.44.38-1.49.53-2,1.14.37,2,1.21,1,2.4" transform="translate(-1.26 -0.11)"/><path class="cls-1" d="M15.73,72.22c-1.78-.05-.14-2.71-2.37-3.13a1.62,1.62,0,0,0-1.94.82c-1.06.09-2-.07-3.06,0-.23,0-.36,0-.38.23s.1.45.34.43c1.47,0-.25,2.62,1.9,3.3a1.77,1.77,0,0,0,2.07-1.08c1.3-.06,2.35.13,3.54.13.35,0,.25-.66-.1-.67m-5.52.15c-.4,0-.57-.75-.48-1.33,0-.3.5-.47,1.5-.34-.1.76.07,1.78-1,1.67M13.44,72c-.83,0-1.1,0-1-.48s.23-1,.82-1,.79.43.87,1S14,72,13.44,72" transform="translate(-1.26 -0.11)"/><path class="cls-1" d="M14.16,75.35a.69.69,0,0,0,.33-.9.72.72,0,0,0-1-.37.75.75,0,0,0-.33.92.83.83,0,0,0,1,.36" transform="translate(-1.26 -0.11)"/><path class="cls-1" d="M18.58,79c.15-.83,1-.45,1.23-.38s.68,0,.34-.69c-.21-.38-.69-.45-1.21-.2-1.25.61-2.13,2.16-2.72,2.66a.57.57,0,0,1-.86-.11c-.24-.28,0-.31.14-.43,1-.85,1.68-1.64,2.7-2.47.11-.06.17-.14.24-.11a.22.22,0,0,0,.27-.33c-.07-.11-.28-.36-.42-.57s-.51-.13-.47,0,0,.24-.13.33c-.87.9-1.71,1.61-2.69,2.45-.22.17-.24.28-.43.06a.56.56,0,0,1,0-.79c.94-1,1.84-1.35,2.76-2.33a.92.92,0,0,0-.12-1.29c-.58-.64-1,.32-.72.52s.35.25.1.47c-.75.65-1.85.27-2.31.52a3.25,3.25,0,0,0-.73,2.53,3.16,3.16,0,0,0,.91,1.47c.43.51.71,1,1.19,1a4.84,4.84,0,0,0,2.53-.44c.23-.28.15-.91.34-1.94" transform="translate(-1.26 -0.11)"/><path class="cls-1" d="M29.48,90.67l1.44-2.88a.67.67,0,0,1,.86-.32c.23.11.43-.32.23-.46a12.67,12.67,0,0,0-1.92-1.19c-.38-.26-.68.2-.44.43s.37.45.2.76l-.69,1.38c-2.08-1.11-.06-2.27-.61-3.32-.32-.53-.85-.47-2-1.39a15.31,15.31,0,0,1-2-1.67c-.22-.23-.58.24-.4.46s.86.89.53,1.47-.76,1.2-1.12,1.74-.75,1.1-1.47.48c-.51-.44-.44-.53-.25-1.3.29-1,.66-2.25,1.09-4.21,0-.18-.23-.37-.41-.32-1.69.57-3.09,1.07-3.64,1.3a2.36,2.36,0,0,1-1.74.19c-.27-.12-.66.22-.41.49.6.67,1.11,1.1,1.56,1.55.19.19.55-.07.46-.28s.12-.4.25-.52a9.64,9.64,0,0,1,2.78-1.8c.24-.12.32-.1.2.21a7.78,7.78,0,0,1-2.2,3.68A38.38,38.38,0,0,0,24,88.6c.23.16.6-.25.4-.51s-.59-.63-.38-1l1.53-2.36c.31-.48.75-.3,1.25.06,1.51,1.1-1,1.38.21,2.71.25.28.09.34-.14.2a1.18,1.18,0,0,0-1.33.33c-1.32,1.79,3.47,3.76,4,4.05.22.12.47-.39.29-.56s-.5-.36-.33-.84m-1.16-.44c-.08.15-.42.12-.6,0s-1.39-.64-.8-1.4,1.62,0,2,.22c-.28.59-.3.69-.56,1.17" transform="translate(-1.26 -0.11)"/><path class="cls-1" d="M84.36,79.61c.07.34.21.47.44,1.13.16.48.24.53-.06.85s-.54.28-1.06-.2c-.84-.82-1.13-1-1.95-1.94-.28-.28.26-.8.49-1.18s-.06-.73-.43-.4c-1,.92-1.7,1.52-2.67,2.31-.24.22,0,.58.35.45.93-.24,1-.58,1.35-.25l1.87,1.88c.45.47.62.63.34.85s-.51.11-1,0-.44-.1-1.14-.25c-.15,0-.47.31-.17.51a17.84,17.84,0,0,0,1.89,1.15c1.37-1,2.2-2,3.53-3.18a18.83,18.83,0,0,0-1.35-2c-.23-.22-.51-.05-.46.23" transform="translate(-1.26 -0.11)"/><path class="cls-1" d="M81.48,84.79c-.62.39-1,.75-1.51,1-.09-.59.43-1.27.12-1.73s-2.32-.86-1.58-2.46c.28-.46-.05-.77-.57-.39-.86.62-.32,1.41-.05,2.24-.34.39-1,1.06-1.51,1.56-.35-.57-.77-1.14-1.12-1.71-.45.3-1.56,1.06-1.74,1.21s-.08.6.23.45.74-.47,1-.11c.83,1.23,1.22,1.9,2,3.11.16.27.05.48-.2.71s.14.69.41.52,5-3.92,5-3.92c.28-.22-.17-.68-.46-.49m-2.86,2c-.17.4-.7.76-1,.35s-.5-.8-.93-1.47l1.54-1.52a2.64,2.64,0,0,1,.36,2.64" transform="translate(-1.26 -0.11)"/><path class="cls-1" d="M42.39,90.62c-1.49-.38-2.33-.64-3.8-1.11-.39-.17-.65.36-.42.52a.38.38,0,0,1,.17.51,9,9,0,0,1-1.8,2.83c-.46.52-1.27.08-1.95-.11-.22-.06-.18-.2,0-.25a2,2,0,0,0,1.24-.69c.45-.57,0-1.83.5-2.39.35-.4,1.12.13,1.29-.46.12-.4-.35-.57-.55-.63-1.16-.34-1.66,1-2,1.55L33.9,90c-.32-.13-.51-.18-.3-.61A5.7,5.7,0,0,0,34.22,88a10.6,10.6,0,0,1-1.42-.74.26.26,0,0,0-.37.34.88.88,0,0,1,.13.92c-.45,1-1.2,2.5-1.44,2.94s-.27.27-.61.24-.39.41-.15.55a30.6,30.6,0,0,0,5.35,2.09c1.23.31,2.88-1.59,3.9-3.31.18-.3.76-.05.7.18C40,92.52,40,93,39.71,94.31c-.12.52-.43.46-1,.39-.29,0-.41.54-.14.62a22.9,22.9,0,0,0,3.11.71c.28,0,.4-.52.11-.62-.7-.24-1-.26-.86-.91s.58-2.91.58-2.91c.12-.51.43-.36.72-.35s.49-.49.13-.61m-9.68,1.84c-.64-.28-.36-.77.21-1.73.07-.12.31-.15.59-.07l1.1.36c-.27.45-.81,1.92-1.9,1.44" transform="translate(-1.26 -0.11)"/><path class="cls-1" d="M69.92,92.4c-.75.21-.86.52-1.15-.11a21.65,21.65,0,0,1-1.17-2.56c-.37-1,.26-1.08.73-1.42s.08-.84-.31-.6c-.71.42-1.9.81-2.67,1.22-.47.21-.73.27-.87.71s-.39.41-1.33,0a1.81,1.81,0,0,0-2.35.88c-.31,1,.17,1.7,1.28,2.29-.23,1-.76,2.27-1,3.22-.09.35.38.5.56.14.38-.75.47-.77,1.31-.58a2,2,0,0,0,2.43-1.17c.23-.91-.34-1.33-1-1.8a21.15,21.15,0,0,1,.75-2.36c.19-.61,1-.92,1.27-.31.52,1.14.67,1.65,1.11,2.75.35.86-.44.91-.72,1.15s0,.8.35.59c1.26-.53,2.71-1.23,3.14-1.38s.15-.78-.31-.65M63.86,94.5c-.16.54-.66.44-1.07.39-.62-.08-.59-.21-.43-.76.24-.79.35-1,.75-.77.58.29.94.54.76,1.15m.05-3.09c-.07.55-.25.8-.56.62-.84-.48-1.35-.68-1.07-1.36s1.85-.28,1.63.74" transform="translate(-1.26 -0.11)"/><path class="cls-1" d="M45.35,91c-2.1-.15-2.34,1.08-2.61,2.58-.15,1.12-.26,3,2,3.31,2.06.2,2.6-1.12,2.66-2.87,0-1.13.08-2.87-2-3m.46,4.7c-.08.47-.38.56-.92.52-.39,0-.78-.12-.82-.63a10.4,10.4,0,0,1,.19-3.27c.1-.48.33-.59.91-.58s.81.25.84.73a11.86,11.86,0,0,1-.2,3.22" transform="translate(-1.26 -0.11)"/><path class="cls-1" d="M57.8,90.83c-.54.55-.53.65-1.39.29a1.93,1.93,0,0,0-2.47.57c-.53.92-.24,1.59.57,2.31a18.67,18.67,0,0,1-1.37,3,.34.34,0,0,0,.6.31c.24-.43.61-.85,1.17-.55a1.82,1.82,0,0,0,2.71-.38,1.86,1.86,0,0,0-.69-2.53,14.82,14.82,0,0,1,1.33-2.6c.27-.34-.26-.62-.46-.37m-1.37,4.88c-.18.63-1,.53-1.55.23-.36-.23.17-1.3.33-1.6,1,.5,1.38.83,1.22,1.37m.34-3.13c-.23.33-.42,1-.84.7s-.93-.58-.65-1.15a.88.88,0,0,1,1.29-.23c.29.21.4.29.2.68" transform="translate(-1.26 -0.11)"/><path class="cls-1" d="M50,91.59c-.55.25-.83.43-1.86-.19-.25-.17-.63.32-.29.53A1.11,1.11,0,0,1,48.48,93a17.67,17.67,0,0,1,0,2.37,1.37,1.37,0,0,1-.84,1.06c-.31.18-.14.64.28.49a1.92,1.92,0,0,1,1.62.06c2.48,1,3.43-.36,3.39-2.82,0-2.88-1.58-3.16-2.88-2.56m0,4.77c-.35,0-.54,0-.52-.75,0-1.18,0-1.46,0-2.44,0-.56.19-.72.6-.82.84-.2,1.34-.43,1.37,2s-.87,2.08-1.46,2" transform="translate(-1.26 -0.11)"/><path class="cls-1" d="M59.13,93.34a.67.67,0,0,0-.31.94.65.65,0,0,0,.79.29.68.68,0,0,0,.4-.85.64.64,0,0,0-.87-.37" transform="translate(-1.26 -0.11)"/><path class="cls-1" d="M75.71,88.92a.76.76,0,0,0-.85-.05c-.28.18-.53.23-.57,0C74,87.14,73.22,85,70.83,86.16s-1.84,4.29,0,3.94c1-.2.51-.6.13-.87s-.73-2,.38-2.35S72.8,88.46,73,89.26s.19,1.26-.46,1.71-.75.2-1.5.59c-.53.28-.57.67-.11.74a6.36,6.36,0,0,0,2.47-.44c.93-.52,1.32-2.45,2.49-2.2.21,0,.46-.38-.17-.74" transform="translate(-1.26 -0.11)"/><path class="cls-1" d="M78.88,21.33A39.67,39.67,0,0,0,55.55,10c.26-1.24.8-2.7,1.21-4-.34-1.35-.7-2.68-1-4.06l-.3,0c-.52,1.36-1,2.47-1.61,3.82.27,1.72.73,2.85.84,4.14,0,0-2.74-.19-4.08-.18A40,40,0,0,0,22.43,78,40.63,40.63,0,0,0,50.79,89.8,39,39,0,0,0,79,77.84a39.82,39.82,0,0,0-.13-56.5m8.2,12.53-5.54-4.09v-.11L83.87,28a52,52,0,0,1,3.21,5.9M73.74,74.52l-1.31-3.39c-.29-.72-.42-.87-1.3-1.21v-.61l7.32,0Zm5.21-5,.11,3.85a1.24,1.24,0,0,0-1.62,0,1,1,0,0,0-1.37-.59ZM75,75.24a1.76,1.76,0,0,0-.78,1.43,1.55,1.55,0,0,0-.72-.2A1.32,1.32,0,0,0,73,75.15h1l1.1-1.29a2.86,2.86,0,0,0,0,1.39m-2.93,5.62c-1.08,0-1-1.2-1-1.66-.47,0-1.45,0-1.42-1.16s1.09-1.19,1.52-1.22c0-.34,0-1.4.93-1.45s.92,1.06,1,1.53c0,0,1.33-.09,1.43,1S73.58,79,73.14,79c0,.64.05,1.84-1,1.81M41.91,14.34c-.19.14-1.33-.92-1.68-1.48.46-.14.9-.27,1.31-.38-.59.58.68,1.62.37,1.86m12.9,8c.26.29.38-.51.65-.16.37.54-.78.89-.46,1.24.17.13.39-.44.56-.14s-.44.65-.33.9.4-.26.57.07-.61,1.18-1.23,1.6c-.87.54-2.43,0-1.84-2.17a5.15,5.15,0,0,1,1.91-2.55c.36-.25.86,0,.51.41-.15.3-.51.53-.33.79m29.5,25.44c-1.16.92-1.76,1.54-1.8,2.73,0,1.85,1.65,2.23.73,2.86-.56.3-.84-.48-1.39-.63.09-1-.91-2-.73-3.29h.5c-.2-1.09-.43-2.81.14-3.06l.44.57a3.2,3.2,0,0,0,1.44-2.51l.22.33a5.78,5.78,0,0,0,.43,3M84,43.93c0-.35.2-.66.37-.66s.33.29.32.64-.21.62-.37.61-.34-.25-.32-.6m.52,4.41s2,2.81-.59,4c-1-.63-1.62-2.7.59-4M81.83,56a5,5,0,0,1-.51,1.15c-.6-.25-.11-.45-.14-1.06-.17-2.08-2.66-3.31-.34-4.9,1.21,1.86-.31,3,1,4.81M32.78,74.73c.14-1.3-1.41-1.18-1.56-2.11,5.24.31,7.66,2,8.79-.87,1.38.3,3.36-.25,3.54-2.2l6.62-.09s-2.12,1.12-3.44,1.9c.85.92,1.93.43,2.55.86s.59,1.3,2,1.87c3.06,1.15,3.9-.31,5.12-.91a13.8,13.8,0,0,0,4.07,1.14L62,73.13a10.92,10.92,0,0,0,5.06.42c1.18.57,2.78.34,1.94-1.28l3.12,2.38Zm38.44.46a1.72,1.72,0,0,0-.52,1.22,1.31,1.31,0,0,0-1.35.74,1,1,0,0,0-1.08-.59,1.46,1.46,0,0,0-.61-1.37Zm-5.78,1.27a1.53,1.53,0,0,0-1.3.72,1.12,1.12,0,0,0-1-.49,1.9,1.9,0,0,0-.72-1.5l3.6,0a1.39,1.39,0,0,0-.58,1.29m-3.81,4.48c-1.2,0-1.15-1.43-1.19-1.78-.3,0-1.08.12-1.15-1s.9-1,1.35-1.06c0-.47-.25-1.52.9-1.6s1,1.19,1.07,1.6c.53,0,1.31-.07,1.34,1.09s-1,1.06-1.3,1.11c0,.38.19,1.6-1,1.63m-6-3.81c0-.41-.13-1.56.91-1.6s1,1.26,1,1.53c.33,0,1.38,0,1.37,1s-1.31,1-1.31,1c0,.49.2,2-1,1.86s-.91-1.18-1-1.68c-.47,0-1.3.11-1.36-1.16-.05-1.06,1-1,1.39-1M54,77.08a1.12,1.12,0,0,0-1-.35,1.65,1.65,0,0,0-.66-1.52l3.56,0a1.64,1.64,0,0,0-.71,1.44,1.38,1.38,0,0,0-1.15.45m6.21-.49a1.3,1.3,0,0,0-1.09.51A1.14,1.14,0,0,0,58,76.63a1.73,1.73,0,0,0-.56-1.42h3.23a1.77,1.77,0,0,0-.51,1.39m-2,3a1.1,1.1,0,0,0,.92-.54,1,1,0,0,0,1,.56,1.75,1.75,0,0,0,1,1.72l-3.8,0a1.76,1.76,0,0,0,.87-1.77m-8.09-3a1.94,1.94,0,0,0-1.27.59,1.29,1.29,0,0,0-1.23-.49,1.84,1.84,0,0,0-.62-1.47l3.73,0a1.42,1.42,0,0,0-.61,1.4m-7.91,3.22c.66,0,1-.24,1.16-.64a1.34,1.34,0,0,0,1.27.68c0,.82.21,1.33,1,1.57l-4.22,0a1.55,1.55,0,0,0,.84-1.64m.05-3.07a1.57,1.57,0,0,0-.61-1.5l3.56,0c-.55.22-.67.79-.7,1.42a1.65,1.65,0,0,0-1.18.61c-.36-.38-.52-.56-1.08-.52M45,79.51c-.47,0-1.36-.1-1.43-1.17s.89-1.2,1.4-1.26c0-.36-.15-1.57,1-1.6s1.13,1.24,1.16,1.6c.44,0,1.37,0,1.46,1,.15,1.58-1,1.25-1.43,1.25,0,.62.25,1.76-.91,1.84S45,79.86,45,79.51m2.69.24c.7,0,.9-.08,1.17-.52a1.1,1.1,0,0,0,1.19.64,1.72,1.72,0,0,0,1.07,1.63l-4.26,0a1.67,1.67,0,0,0,.82-1.72m-8.49-3.14a2,2,0,0,0-1.21.55,1.11,1.11,0,0,0-1.09-.49,1.23,1.23,0,0,0-.94-1.39l3.86,0c-.65.25-.62,1.33-.62,1.33m-8.3-1.32,4,0c-.8.17-.84.7-.91,1.47a2,2,0,0,0-1.4.53c-.14-.35-.44-.58-1.07-.54a1.38,1.38,0,0,0-.6-1.43m-11-25.46a3.41,3.41,0,0,1-1.09-2.25,4.68,4.68,0,0,1,.48-2.07A2.85,2.85,0,0,1,17.13,45c-.26,1.79-.27,4-1.8,4a13,13,0,0,0,1-4.33L16,44.42a19.55,19.55,0,0,1-.37,2.37c-.13.42-.56.47-.9.44a11.67,11.67,0,0,0,.52-3.66l-.36-.34a1.24,1.24,0,0,1-.74,1.11,13.54,13.54,0,0,0,.14-2.79c0-.69.38-.93.77-.89a.77.77,0,0,1,.66.84c0,.44-.18.73-.77.83A6.49,6.49,0,0,0,19.55,45a4.15,4.15,0,0,0,.23-1.09l1,0c-.06,1.85.6,1.69.76,3.34.13,1.19-1,2.89-1.67,2.53M20,57.68a12.89,12.89,0,0,1-1.74-1.45,4.67,4.67,0,0,0,1.38-1.59,21,21,0,0,0,.37,3M18.45,46c0,.92-.31,1.73-1.32,1.78a18.17,18.17,0,0,0,.32-2.12c.22.07.65.2,1,.35m.28-5.47a4.6,4.6,0,0,1,1,.94c.22-.12.41-.35.74-.12.88.59.63,2.09-.16,2.08-.58,0-1.22-1.69-1.63-2.9M25,42.15a.68.68,0,0,1,.83-.6c.66.09.73.8.71,1.46a21.53,21.53,0,0,0,0,2.52c-.5,0-.75-.23-.77-1l0-1.06-.39.28a15.26,15.26,0,0,0,.35,3.7c-1.32,0-1.07-1.7-1.12-3.15a11.6,11.6,0,0,1-3,1.41l-.24-.65a9.69,9.69,0,0,0,4-2.2.81.81,0,0,1-.37-.77m-.29,7.32c-.47,0-1.34,0-1.4-1.77,0-.58-.06-1.16-.05-2.11l.9-.44a14.24,14.24,0,0,0,.54,4.32M22.87,48c-.44-.09-.73-.25-.87-1,0-.33-.07-.47-.13-.91a9,9,0,0,0,1-.34Zm-2.61,4a4.34,4.34,0,0,1,1.26-2.77L22,50.81c-.2,0-.66.08-.66.08l0,.89c1-1.34,2.62.49,2.37,2.51A14.65,14.65,0,0,1,22.11,56c-.19-.21-.8-1.32-1-1.65.73,0,1.45-.23,1.24-1.37-.51.77-2.12,1.28-2.14-.25.2,0,.71.07.68-.41,0-.32-.31-.35-.63-.38m21-28.31s.33.83.44,1.19.21.26.33,0l.22-.45.76.6v.13L37.57,29l-5.25-4.16a.33.33,0,0,0,0-.15L37.55,21a.86.86,0,0,0,.29,0ZM38,20.73v-.1l1.78-1.3a35.85,35.85,0,0,1,1.36,3.89Zm10.81.73a.35.35,0,0,0,.31,0L52,23.71a23.83,23.83,0,0,0-1.34,3.88L48.71,29a.39.39,0,0,0-.28,0l-4.74-3.75v-.13l.67-.48.25.61c.09.24.24.28.39,0a11.87,11.87,0,0,1,.85-1.59ZM46,23.08a9.69,9.69,0,0,1,1.86-2.65l.8.65v.1ZM56.43,35.23c-.17.6-.53,2.3-.66,2.94l-.39.4-.53,3a5.42,5.42,0,0,1,.25.5c-1.89,8.57-1.14,18.29-1,23.16,0,2.19-.28,2.14-1.53,2.87l1.65-32a5.36,5.36,0,0,0,2.27-.8m-2.21,0,.2-4,.6-.4c.1,1.29.18,4.11.18,4.11a4.38,4.38,0,0,1-1,.32m4.31-6.52a1.53,1.53,0,0,0,.63-.35,2,2,0,0,0,1.37,1.44c0,1.19-1.08,1.62-2.08,1a8.18,8.18,0,0,0,.09-2.13m7.37-2.2a7.57,7.57,0,0,0,.92.88,17.93,17.93,0,0,0-2.35,2.24,2.91,2.91,0,0,0-.16-.79,2,2,0,0,0,1.59-2.33m4.61,4.79c-.36,1.24-.85,2.82-1.19,3.74-1.29.09-3.63-.77-3.57-2.46,1,.09,1.35-.82,1.22-1.53a1.45,1.45,0,0,0-2.07-1,21.17,21.17,0,0,1,5.38-4.24c-1.58,3.17.89,3.27.23,5.54m.64,18.51-1.52,1.93-.56-1.53a2.22,2.22,0,0,0,2.08-1Zm-.06,6c-.48-1.28-.8-2.14-1.22-3.45l1.28-1.66a36.08,36.08,0,0,1-.06,5.1m-2.26-6.2-1-2.71,2.9-.62v-.45L70,46c.2-.76.38-1.67.72-2.81l.34.14c0,1,0,3.7,0,3.7-.33,0-.7.1-.69.43s.33.38.71.32c0,1.13-.64,1.84-2.29,1.86m-.13-8.57a1.11,1.11,0,0,0,1-.45,20.76,20.76,0,0,1,.43,2.05,10.12,10.12,0,0,1-.5,3.26l-.73-1.44-.41.17s.37.77.48,1l-1.81-.86c1.39-.48,1.7-1.53,1.56-3.72m.4,5.14-1.39.31-.41-1.15c.41.18,1.51.72,1.81.84m2-3.53-.49-.24c-.2-1-.52-2.44-.52-2.44l-.43-2.54h-.55l.35,2.24c.09.68-.51.76-.78.79-.08-1.34-.25-3.12-.25-3.12l-.55-.51.31,3.92c.08,1.72.08,3.08-1.27,3.52L66.17,42c1.39-.4,1.39-1.66,1.19-3.48l-.22-2L66.57,36l.26,2.45c.11,1.12.4,2.76-.83,3.09l-.53-1.77c.7-.3.82-.77.62-2.3l-.18-1.56-.61-.72.32,2.36c.13,1.37.1,1.45-.31,1.69a22.81,22.81,0,0,1-1.09-4.7c-.21-3.44.44-4,1.29-4a.88.88,0,0,1,.89,1c-.12.88-1.2.66-1.2.66A3,3,0,0,0,65.64,34a5,5,0,0,0,4.09,1.66c.69-2.09,1-2.86,1.13-3.46.21,4.55.23,10.49.23,10.49M69.67,60.83l-1.4,3.64a7.72,7.72,0,0,0-.7,3.34l.59-.14A5.61,5.61,0,0,1,68.57,65a8.21,8.21,0,0,0,2,4.68s-2-.7-2.71-1c-.92-.38-1-.56-.87-1.81l1.47-10.45c1.12,2.28,1.61,3.35,1.25,4.4m.69.18.08,7.71A6.92,6.92,0,0,1,69,63.94,18.1,18.1,0,0,1,70.35,61M65,69.22c.38.89,1.35,1,2.41,1.87a9.47,9.47,0,0,1,1.11,1.53c.36.41-.14.84-.76.55s-.91-.11-1.46-.42a15.82,15.82,0,0,1-1.47-1.26c-.8-.54-2,.45-1.75-2.13a8.41,8.41,0,0,0-.53-4.23,4.13,4.13,0,0,1,.3-3.06,2.89,2.89,0,0,1,2.54,1c1,1.77-1,4.5-.38,6.12M43.24,66c0-.69-.16-1.69-.23-2.41l3.45-2.39a.41.41,0,0,0,.31,0l4.85,3.57-5,3.53Zm3.3,2.63-3.11,0-.16-2.16Zm-6.54,1c-.09-1.43.8-1.59,2.65-1.13.55,2.57-1.69,2.57-2.55,2.39a4.32,4.32,0,0,0-.1-1.27M36.52,71.5l.08-.34a6.23,6.23,0,0,0,2.73-1.24,1.7,1.7,0,0,1,0,1.53,3.76,3.76,0,0,1-2.77.06m2.45.62c-.5.83-1.85.61-2.7.48l.19-.67a8.43,8.43,0,0,0,2.51.2m-2.36-1.52.06-1.41c1.06-.17,1.95-.63,2.51.26a5.32,5.32,0,0,1-2.57,1.15M31.19,69.2V67c5.58.64,6.8-.71,11.34-.64l.1,1.45c-3.85-.64-3.7,1-11.44,1.37m5,.06a10.89,10.89,0,0,1-.47,3.32L35,72.5a19.55,19.55,0,0,0,.36-3.25ZM39.81,29a2.86,2.86,0,0,0-1.58.43l-.37-.24,5.28-3.73s.23.08.36,0l4.71,3.73v.15L43,33.05a.36.36,0,0,0-.32,0L40,30.91A2.79,2.79,0,0,0,39.81,29m10.42,1.8c0,1.79.07,3.56.82,4.52l-1.94,1.35-1.89,0-4-3.2s0-.08,0-.12l5.22-3.71a.48.48,0,0,0,.32,0Zm-1.34-1.56L50.57,28a23,23,0,0,0-.29,2.38l-1.39-1.1ZM52.2,57.13l-.8-.58a1.52,1.52,0,0,0,0-2.52c-.26-.13-.44-.13-.42-.47s.2-2.73.22-4.08h.47l.49-12.77H49.66l1.6-1.12c.59.55,1.07.53,2.06.5Zm-21,2.92c0-.82.18-3.35.18-3.35a16.5,16.5,0,0,0,1.49.8v3.12a7,7,0,0,1-1.68-.57m.95.92,0,2.33-1-.38,0-2.33Zm0-9.77a1.47,1.47,0,0,0,1.09-.4A1.24,1.24,0,0,0,34,51.91c.15,1-1,1.64-2,.49a5.53,5.53,0,0,0,.09-1.21m4.84-5.38c.54.47,1.13,1,1.64,1.42.74.57,1.16.45,1.69-.14a27.64,27.64,0,0,1,2.54-2.66s.9,1.1,1.28,1.55a24.38,24.38,0,0,1-2.23,4.38c-1,1.72-2.41,1-3,.82a16.78,16.78,0,0,1-3.25-1.55Zm-.24-1.2a4.39,4.39,0,0,0,1.87-.21,7.17,7.17,0,0,0-.25,1.86Zm9.87-2.5c.08.1.77-.53.94-.75.33-.56.54-1.12.89-1.66.21-.32.44-.15.36.18a18.52,18.52,0,0,1-.91,2,7.53,7.53,0,0,1-.68.54l.27.35.84-.68.38-1.08c.06-.17.36-.39.37.06a5.13,5.13,0,0,1-.23,1.33,6.39,6.39,0,0,1-.71.64c-.23.17-.35.2-.27.34s.24,0,.42,0,.65.32,0,.57c-.3.12-.42.09-.39.23s.15.13.27.1c.35,0,.38.44-.06.56-1.05.23-2.47-.07-3.16.17a1.49,1.49,0,0,1-1.81-.87A5.33,5.33,0,0,1,44.65,43a5.93,5.93,0,0,0,2.12-2.41c.41.43-.32,1.46-.21,1.58m3.69,12.14a.93.93,0,0,1,1.1.9.94.94,0,0,1-.85,1,.88.88,0,0,1-1-.92,1.08,1.08,0,0,1,.8-1m-1.17.58-1.92-1.41v-.05L50.57,51s0,1.58-.1,2.48c0,.32-.13.35-.3.38a1.5,1.5,0,0,0-1.09,1m1.49-4.24L47,53.11a.47.47,0,0,0-.33,0l-2.37-1.76,1.11-.76,0-.56a11.39,11.39,0,0,0,2.8.75c1.86.3,2-.3,2.13-1.27h.26Zm-4.24-2.42c.23,0,.41,0,.47.34s.42.3.41,0a2.14,2.14,0,0,0-.09-.5c-.1-.42.32-.44.41-.15a4.69,4.69,0,0,1,.12.65c0,.27.32.29.32,0a5.29,5.29,0,0,0-.11-.74c-.08-.42.36-.38.44-.09s.09.58.12.86.31.27.33,0-.06-.59-.08-.93.45-.39.47,0,0,.66,0,1,.33.3.33,0a10.1,10.1,0,0,1,.09-1.21c.09-.29.15-.57.62-.59-.15,1.12-.21,1.9-.32,2.84-.07.77-.58.66-1.36.57s-2.76-.43-3.49-1.14L45,50a30,30,0,0,1-3.32,2.19l1.91-3.64c1-.12,1.56-.2,2.71-.32m-2.42-.36c.55-1.13.86-2.4,2.88-2.26,0,.51,0,1.27,0,1.81-.53.39-1.78.37-2.9.45m6.52.91s.2-1.62.24-2.37a1,1,0,0,0-1.36.63.54.54,0,0,0-.83.17c-.29-.18-.72-.18-.83.21a1.52,1.52,0,0,1-.3-.1c0-.28,0-1.35,0-1.73.78-.07,1.9-.49,1.34-1.38a.59.59,0,0,0,.16-1,1.15,1.15,0,0,0,.45-.86,5,5,0,0,0,.09-1c0-.71-.13-.72-.43-.8.43-1.45-.14-2-.83-1-.18.24-.77,1.17-.77,1.17V37.25h4.1L51,48.75Zm-3.56-9.06c-1.23,1.52-1.34,2-2.91,3l-1.24-1v-.1l4.14-2.91Zm-3.18,3.19a30.41,30.41,0,0,0-2.63,2.29,5.51,5.51,0,0,0-1.26-1.52L42.21,42s.21.08.32,0Zm-3.82,3.83c-.45.56-.82.21-.91-.07A3.15,3.15,0,0,1,39.26,44c1,1.06,1.57,1.3.62,2.68M40,53.54c-.87-.12-.84-1-.76-1.57a4.22,4.22,0,0,0,1.76.24c0,.65-.1,1.45-1,1.33m-3.78-2.87a11.78,11.78,0,0,0,2,.86c-.13,1.18-2.63.62-2-.86m.32,1.69c0,.91-.34,1.46-1.11,1.29s-1-.82-.83-1.64a1.15,1.15,0,0,0,1.15-.36,1.21,1.21,0,0,0,.79.72m.37.2a1.54,1.54,0,0,0,1.82-.8c.11.66.22,1.89-.87,2.09s-1-.84-1-1.29M35.59,48l-1.66-1.43.23-1.22L36,46.79Zm.13,2.42c0,1-.82,1.17-1.46,1s-.85-.84-.65-2.19a17.13,17.13,0,0,0,2.11,1.16M34.16,53.1c.48,1.24,1.79,1.37,2.72,1.46a2.93,2.93,0,0,0,2.21-1,1.5,1.5,0,0,0,1.86.26l.17,1.42a2.58,2.58,0,0,1-1.32-.34l-.29-.22-.24.15a3.86,3.86,0,0,1-4.83-.5c0-.06-.13-.11-.14-.16l-.23.14a2.48,2.48,0,0,1-2.37-.55l.23-.89c.33.38,1.46,1.1,2.22.25m7.24,2.57c.08.7.16,1.42.23,2.1-4.94,0-7.77,0-10.39-2l.36-1.61c2.53,1.83,5.85,1.92,9.81,1.49m.51,5.16a5.67,5.67,0,0,0-1.15-.22l-.25-2.27,1.09-.08Zm-9.37.23a8,8,0,0,0,1.66.16l.08,2.86a12.11,12.11,0,0,1-1.75-.62Zm.82-.44,0-2.94a11,11,0,0,0,1.8.5l.13,2.55a11.83,11.83,0,0,1-1.9-.11m3.29.62.17,3.12a9.58,9.58,0,0,1-2-.22l-.15-2.9c.69,0,1.2,0,2,0m-.88-.52-.16-2.48a14.58,14.58,0,0,0,2,.12l.13,2.31c-.78,0-1.36.07-2,.05m3.54.38L39.58,64a8.78,8.78,0,0,1-2.17.33l-.23-3.11c.57,0,1.63-.08,2.13-.1m-.94-.49-.19-2.25H40l.18,2.21c-.62,0-1.17,0-1.86,0M42,61.4l.29,2.43a15.1,15.1,0,0,0-2.14,0l-.29-2.77a8.2,8.2,0,0,1,2.15.3m.13-6.05-.31-.2-.22-2L44,51.53l2.45,1.81v.11l-4.21,3Zm4.53-1.62a.39.39,0,0,0,.38,0l2,1.47a1.44,1.44,0,0,0,2.09,1.54l.57.42-4.94,3.47a.33.33,0,0,0-.29,0l-4-3-.11-.83Zm.28,7.15,5.27-3.71-.39,7.38L46.94,61ZM40.37,31.62l2.12,1.68v.13l-4.55,3.31a7.63,7.63,0,0,1,.79-4.07,1,1,0,0,0,1.64-1m2.32,2.06a.64.64,0,0,0,.28,0l3.85,3,0,1.56-4.28,3a.44.44,0,0,0-.39,0L37.94,38c0-.22,0-.82,0-.82ZM38,38.44l4,3.1v.18l-2.4,1.66a4.9,4.9,0,0,1-2.16-3.71A.87.87,0,0,0,38,38.44m-.54-4.1a.79.79,0,0,0-.17.63c0,.52.07,1.25.08,1.7l-1-.06c-.17-.22.2-.14.24-.78,0-.16,0-.48,0-.89s0-.45-.52-.68a4.3,4.3,0,0,0-1.57-.08c0-.42.34-.61.8-.74a3.71,3.71,0,0,1,1.73.09c.44.16.48.2.54.48a.29.29,0,0,1-.11.34M36,35.21a1.13,1.13,0,0,1-1.51,0c.29-.46,1.4-.68,1.51,0m.07.36a8.84,8.84,0,0,1-1.2,2.64c.31,0,1.19-.7,1.46-1h.79c0,.12.3.49-.44.56,1.17,1.32-.42,1.54-1.88.88a1.06,1.06,0,0,1-.65-.66A3,3,0,0,1,34,36.25c.47-1,1.43,0,2.08-.69M34.63,39.3a3.88,3.88,0,0,0,2.13.44,5.42,5.42,0,0,0,2.11,3.88,2.91,2.91,0,0,1-2.49.47C35,43.65,33.59,41.78,32.12,41c-.29-1-.62-2.19,1.29-2.7a2.47,2.47,0,0,0,1.22,1m1.9,5.89-.37,1.07-2-1.5a5.14,5.14,0,0,0-.83-2.33Zm-1.05,3.33-.36.89-2.83-1.74a1.54,1.54,0,0,0,1.3-.73ZM33.12,49c.16,2-1.05,1.73-1.05,1.73a15.43,15.43,0,0,0-.81-3c.44.31,1.52.95,1.86,1.26m-3,7.11-4.34-3.38,5.11-3.55c.9,2.63,0,5-.77,6.93m12.22,8.26.13,1.54c-4-.06-7.14,1.49-11.32.56l0-2.93c6.65,2.92,7.36.54,11.22.83m0-6.37,3.94,2.89V61L43,63.27c-.15-1.58-.42-3.58-.64-5.31M51.83,65l-.21,3.57-4.83,0Zm2,3c.09.51-2.06,4-2.76,5.22a3.46,3.46,0,0,1-1.15-1.47.64.64,0,0,0-.68-.38,2.6,2.6,0,0,1-1.09-.09A56.49,56.49,0,0,0,53.83,68m.47.54a6.26,6.26,0,0,0,.49-2.44c0-2-.22-8.48-.22-8.48l.35.23s.47,4,.46,3.92a20.2,20.2,0,0,0,.36,5.75c.06,1.26.26,2-.54,2.57-2.41,1.69-1.27,1.7-3.21,2.63Zm5-8,0,.73a9.1,9.1,0,0,1-3.4-.27l-.2-1.25a5.45,5.45,0,0,0,3.63.79M57,56.64l.78-.13A8.91,8.91,0,0,1,57.91,60a2,2,0,0,1-1-.34,9.63,9.63,0,0,1,.19-3m1.24-.1a2.65,2.65,0,0,1,1.42,1,5.49,5.49,0,0,1-.27,2.24L58.32,60a6.14,6.14,0,0,0,0-3.46m-1.87,3a8.5,8.5,0,0,1-.84-.72,9.93,9.93,0,0,1-.18-1.62,2.28,2.28,0,0,1,1.2-.6,5.23,5.23,0,0,0-.19,2.94M52.74,72.88c1.3-.67,1.24-1.07,1.92-1.65s1.45-.88,1.64-1.57c.32-1.38-.46-4.39-.42-6.4,0-1.8.81-1.83,2.24-1.32,1.64.59,1.5,2.47.59,4.27A8.35,8.35,0,0,0,58,69.42c0,.81.67,2-.63,2.48-2.26.6-1.59,1.93-4.34,2-1.17,0-1.54-.52-.33-1m5.87-1.19c.25-.84-.34-1.27.06-3.1a7.26,7.26,0,0,1,.88-2.38c.17,5.28-.26,4.15-.46,5.31a3.29,3.29,0,0,0,.81,2,9.91,9.91,0,0,1-2.86-.8c.54-.38,1.33-.36,1.57-1m1.12.63c-.12-.42.06-.66.56-.42a6.69,6.69,0,0,1,1.16.79,2.15,2.15,0,0,1-1,.89,9.1,9.1,0,0,1-.68-1.26m.19-1.14c.56-1.29.27-1.77-.09-9.36,0-.32,0-.88.1-1.5a5.69,5.69,0,0,0,.49-2.45l1.26-.43a25.4,25.4,0,0,0,.41,4.44,8.42,8.42,0,0,0-.35,1.9c0,1.77,1.27,2.51.76,6.29-.26,2.33,1.93,1.34,2.64,2.48a1.88,1.88,0,0,0,.72.54c-4,.19-3.89-1.42-5.94-1.9m3.46-10.92a4.75,4.75,0,0,1-.86-.4,7.14,7.14,0,0,1-.19-2.68,2.26,2.26,0,0,1,.85-.38,11.28,11.28,0,0,0,.19,3.47m0,1.21h-.82V60.42c.88.6,2.26.06,3.41.33L65.81,62c-.89.32-1.33-.59-2.47-.55m.33-4.77a5.17,5.17,0,0,1,1,.07,16.91,16.91,0,0,1,.05,3.46,6,6,0,0,1-.87.06,24.3,24.3,0,0,1-.14-3.59m2.19,3.45-.72,0a11.53,11.53,0,0,0,.08-3.39,3.39,3.39,0,0,1,1.19.56,4.9,4.9,0,0,1-.55,2.79m-5.31-3.42c-1.57,0-2.26-1.71-6,.21l0-2.46c3.25-.41,4.35.73,7,.61,1.82-.08,3.87-.71,6.25.09l-.13,1.32c-5.22-.9-5.35.26-7.23.22m-2.27-2.55a28.52,28.52,0,0,0-3.66-.38s0-2.13.13-3.72a19,19,0,0,0,5.74,2.37c1.93.33,4.51-.52,6.36-.24l.84,2.24c-3.25-.62-5.79.62-9.42-.27M64,40.13a2.21,2.21,0,0,0,1-.42c.08.32.19.67.29,1A15.25,15.25,0,0,0,61.8,42c-.13-.38-.29-1-.39-1.39a6.46,6.46,0,0,0,1.88-.3,26.76,26.76,0,0,1-1-3.87c.92-.11,1.61.54,1.91,1.54.44,1.48-.55,1.44-.3,2.17m-.33-6.32c-.26,0-1.1-.18-1-2a1.61,1.61,0,0,0,1.26-.52,8.76,8.76,0,0,0-.27,2.52m0,.9a1,1,0,0,1-.82,1.19c-1,.22-1.4-.16-1.49-.62a1.09,1.09,0,0,1,.8-1.32,1.17,1.17,0,0,1,1.51.75m-2.94,3.5a1.7,1.7,0,0,1-1.42-2.09c.52.06,1.33,0,1.63-.6.09.64.63.83,1.09.91,0,.35.18,1.88-1.3,1.78m.24-4.46c-1.58,0-1.41-1.67-1.43-2.11a1.7,1.7,0,0,0,1.37-.83,1.5,1.5,0,0,0,1.37,1c0,.61.24,2-1.31,2m0,.45A1.46,1.46,0,0,1,59,35.6a1.58,1.58,0,0,1-1.39-1.85,1.72,1.72,0,0,0,1.47-.94,1.64,1.64,0,0,0,1.74,1.38M58.72,36c0,.72-1,1.35-1.88.43l.49-1.81A1.58,1.58,0,0,0,58.72,36m-3-1.21-.09-1.9,2.26-1.55c-.33,1.62-.91,2.93-2.17,3.45m1.94,2.56a1.35,1.35,0,0,0,1-.32,2.35,2.35,0,0,0,1.61,1.69,1.91,1.91,0,0,0,1.84-.48l.33,1.36a2.2,2.2,0,0,1-.78.18,4.65,4.65,0,0,1-3.78-1.95c-.36.15-1.13.3-1.4.12l.23-1a1.61,1.61,0,0,0,.93.44m1.89,4.36c-1.2-.32-.75-1.7-.67-2.31a4.31,4.31,0,0,0,2.13.79c.06.86,0,1.83-1.46,1.51M57.75,38.3a2.52,2.52,0,0,0,.82.84c-.17,1.32-1,1.33-1.65.85a1.54,1.54,0,0,1-.48-1.7,1.64,1.64,0,0,0,1.31,0m5.52,4c.14.27.55,1.5.79,2.08-2.94.59-6.07.33-8.44-3L56,39.35a6.43,6.43,0,0,0,7.28,2.9m-2.42,5.48.1-2.71a7.93,7.93,0,0,0,1.73,0l.06,2.85c-.61,0-1.41,0-1.89-.1m3.15.65.25,3.37a11.69,11.69,0,0,1-2.25.17l0-3.62c.73,0,1.38,0,2,.09m-6.95-1.16a7.93,7.93,0,0,0,1.88.74l-.29,3.4a7.14,7.14,0,0,1-1.91-.94Zm-.63-.95.45-2.83a7.09,7.09,0,0,0,1.48,1L58,47.16a5.37,5.37,0,0,1-1.56-.88m2,1,.36-2.73a7,7,0,0,0,1.7.42l-.17,2.69a8.56,8.56,0,0,1-1.9-.38m1,.79a9.72,9.72,0,0,0,2,.21l0,3.62a5.36,5.36,0,0,1-2.19-.37Zm-3.76-5.67.75.74L56,46a5.68,5.68,0,0,1-.8-.6c.14-1.32.5-3,.5-3m.9,4.53-.38,3.29-1.4-.87A31.29,31.29,0,0,1,55.1,46a16.69,16.69,0,0,0,1.49,1m8.25,4.77-.33-3.29a4.05,4.05,0,0,1,.94,0l1.2,3.19a7.25,7.25,0,0,0-1.81.07m-1.53-3.88-.17-2.92,1.05-.15,1.1,3.12Zm.28-6.27c1.77-.17,1.86.33,2.51,2.12l-1.57.54Zm.86-13.25c-1.11.25-1.43-.76-1.57-1.28a4.5,4.5,0,0,0,2.23-1.43,1.79,1.79,0,0,1-.66,2.71m-1.17,2.82a1.34,1.34,0,0,1-2.16-1.23,1.76,1.76,0,0,0,1.75-1.62,1.6,1.6,0,0,1,.41,2.85m-2.75-1.85c-1-.25-1.07-1.71-.62-2.23a4.18,4.18,0,0,0,2.44.13c.23,1.22-.27,2.48-1.82,2.1M59,31.57c0,.52-.5,1.71-1.2,1.67a11.25,11.25,0,0,0,.54-2,1.63,1.63,0,0,0,.66.3m-1-.92c-1,.65-1.41,1-2.4,1.66l-.11-1.75,2.57-1.69A8.22,8.22,0,0,1,58,30.66m-4.13-3.49c-.12,1.93-.51,7.51-.52,7.42C53.21,36,50.51,36.22,51,30.22a18.92,18.92,0,0,1,1.14-5,2.89,2.89,0,0,0,1.53,1.35c.3.07.23.27.21.64M52.12,23.4l-2.77-2.2v-.09l1.76-1.22a13.81,13.81,0,0,0,3.08,0l0,.87a7.09,7.09,0,0,0-2,2.59M43.5,24.83a.43.43,0,0,0-.32,0l-.83-.66.92-1.86c.1-.22.26-.15.32,0l.67,2Zm-11.4-.4a.43.43,0,0,0-.29,0l-2.13-1.69a18.44,18.44,0,0,1,4.62-4.56l3.06,2.42v.11Zm0,.64,5.2,4.13-.44.3a1.25,1.25,0,0,0-1.12-.73,2.16,2.16,0,0,0-1.21-1.52,2.2,2.2,0,0,0-.95,1.44,1.37,1.37,0,0,0-1.13.77A1.31,1.31,0,0,0,31,29.25a2.22,2.22,0,0,0-1.63-.62,2.45,2.45,0,0,0-.2,1.82l-.31.3-2.29-1.81a.34.34,0,0,0,0-.17l5.22-3.71a.5.5,0,0,0,.32,0M29.8,30.64c-.11-.24-.36-1-.11-1.38.36-.06.82.29,1.09.81.62-.49,1.11-.51,1.38,0s-.12,1.18-.9,1c.63,1.18,2.77.91,2.87-.5-1,.39-1.23-.07-1.26-.52s.55-.87,1.23-.74a1.29,1.29,0,0,1,.46-1.19,1.34,1.34,0,0,1,.57,1.19c.62-.15,1.16.09,1.2.51s-.33,1.25-1.3.66a1.34,1.34,0,0,0,1.39,1.36c.94,0,1.32-.34,1.45-.56a.75.75,0,0,1-1.06-.84c.23-.82,1.09-.63,1.45-.2a1.32,1.32,0,0,1,1.27-.59,1.76,1.76,0,0,1-.28,1.25.77.77,0,0,1,.49,1.19.79.79,0,0,1-1.26-.28,4.09,4.09,0,0,0-.72,1.41,25.93,25.93,0,0,0-7,.16,3.1,3.1,0,0,0-.26-1.71.78.78,0,0,1-1.31.17c-.37-.58.24-1,.58-1.18m.69,6.59a2.39,2.39,0,0,1-1.57,2c-.73-.56-1.44-1.13-2.48-2v-.09l3.49-2.52a14.66,14.66,0,0,0,.55,2.61M29.39,40c3.51-3.6.55-3.31,1.38-6.17l.41-.05a3.51,3.51,0,0,0-.12.71,8.35,8.35,0,0,0,.6-.74l.57-.07a3.68,3.68,0,0,0-.69,2l.27,0a2.69,2.69,0,0,1,2-2.17c.57-.14.71,0,.35.43A3.9,3.9,0,0,0,33.47,36c0,.81.29,1.29.09,1.54-.35.43-1.09.39-1.72.85s-.45,1.35-.24,3a3.77,3.77,0,0,1,1.94,3.12c.36,2.45-2,3.92-3.6,1.12-.84-1.31-.18-4,.85-4.34,0-.59,0-.87,0-1.72C29,41.78,28.48,43.75,29,45.31s.82,1.27,1.77,3.38l-2.71-2.13a39.35,39.35,0,0,0,.65-6.69c-1.69-.09-3.75-.28-5.47-.42l2.7-2a.54.54,0,0,0,.32,0Zm1.19,9-4.68,3.27A21.9,21.9,0,0,0,28,46.92Zm-5.22,2.94a14.75,14.75,0,0,0-2-.75A11.89,11.89,0,0,1,25.76,51a7.41,7.41,0,0,1-.41.86m-.29.53a9.1,9.1,0,0,1-.74,1.06,8.87,8.87,0,0,0-1.08-1.94,4.86,4.86,0,0,1,1.82.88m-4.72,2.21a5.06,5.06,0,0,0,1.52,1.68l-1.59,1.36a16.3,16.3,0,0,0,.07-3m5.22-1.7L30,56.39l-.18.42L25.1,60.24a.43.43,0,0,0-.36,0L21.36,57.6a22,22,0,0,0,4.21-4.68m-.29,7.59,4.27-3.12c-1,2.42-1.85,5.14-1.85,5.14l-2.43-1.89Zm5.45-4s-.18,2.38-.22,3.23c-.76,2.17-1.86,5.43-3,8.32-.33.89-.65.74-.52-.14a60.14,60.14,0,0,1,3.73-11.41m-.29,12.08c-.76,0-1.65-.58-2.39-.28.5-1.27,2.29-6.46,2.42-6.77-.08,3.53-.05,5.73,0,7.05m0,.69a13.47,13.47,0,0,1-2.73,0c-.08-.38.21-.52.72-.48a15.91,15.91,0,0,1,2,.44m-3,.56a40.42,40.42,0,0,0,7.38-.34,10.07,10.07,0,0,1-.41,2.83c-1.71-.16-4.71-.4-4.71-.4.7.62,1.15,1.56,1.79,1.81.83.3.74,1,.53,1-3.6,0-2.58-1-4.26-2.05-2.11-1.11-2.14-3.08-.32-2.85m39.06.1a1.94,1.94,0,0,1-.93-2.52c.81-2.94.78-3.64.66-5a18.74,18.74,0,0,0,.24-2,5.67,5.67,0,0,0,.61-2.81l.59-.3-1.15,10c-.12,1,0,1.32.84,1.68l3.05,1.32c.81.35,1.22.57,1.53,1.29l.73,1.92s.33.85.44,1.18a69.55,69.55,0,0,0-6.61-4.8M71.17,64l3.46,2.8V67l-2.31,1.62H71.15ZM64.71,44.66c1-.19,1.63.25,2.11,1.45,2,5.37,5,13.28,6.08,17,.31,1-.39,1.19-.78.34-1.54-3.21-5-11.84-7.41-18.76m6.8-13L74.73,34l0,.12-3,2.16c0-1.6-.05-2.77-.2-4.63m.32,24.26,2.9,2.28v.11l-2.12,1.46a13.77,13.77,0,0,1-.79-3.85m1.46-5.87-1.43,1c-.07-3.77-.08-7.16-.11-10.73l.51.29c0,4.17.08,6.71,1,9.45M73.38,47a6,6,0,0,1,1-.15l1.77,1.29.59,0a5.49,5.49,0,0,0,.41,1.23,5.39,5.39,0,0,0,.63-.27,12.5,12.5,0,0,0,1,1.43c-.33.18-.92.32-1,1-.07.87,1.07,1.86.48,2.14a4.89,4.89,0,0,0-.61-.43,1.26,1.26,0,0,0-.91-1.19,2.89,2.89,0,0,0,0,.75,1.27,1.27,0,0,0-1.25.19,1.65,1.65,0,0,0,1,.66,1,1,0,0,0-.46.48,18.44,18.44,0,0,1-3-8.39c.26.14.17.21.45.3s.5-.08.55.1c-.26.12-.76.3-.67.86m3.35.62h-.56L74.5,46.51s-.06-.35-.16-.72a5.89,5.89,0,0,1,1.51,1h1a2.07,2.07,0,0,0-.14.88m-.14-3.81a4.12,4.12,0,0,1,.76,1.38l.47.27a3.62,3.62,0,0,0-.62.56c-.27-.95-1.22-1.17-.61-2.21m2,11a2,2,0,0,0-1.93-.7,1.4,1.4,0,0,1,.85-.53,5.83,5.83,0,0,1,.91.64,1,1,0,0,0,.45-1.09c-.15-.58-1.41-2.07.39-2.11a1.76,1.76,0,0,1,.43.62c-.8,1.39.9,1.58-1.1,3.16m-.36-6,.42-.29a5.85,5.85,0,0,0,2,.8,3.59,3.59,0,0,0,.17,1.3l-.77.63c-.6-.81-1.29-1.64-1.78-2.44m-6.35,6.66,0-4.08,1.53-1.08a18.6,18.6,0,0,0,3.83,6.22l-2,1.39A.27.27,0,0,0,75,58Zm4.64-.84c.14-.13,1-.65,2.09.82a7.87,7.87,0,0,1,1.34-1.24c1.37,1.81.6,2.45.6,2.45-.71-.42-1.11-.14-1.32.18a2.2,2.2,0,0,0,.73.29,3.38,3.38,0,0,1-.88.27,25.74,25.74,0,0,1-2.56-2.77m4.36,2.81c.74.27-.41.82.47,1.31l-.28.25c-.47-.33-1-.68-1.31-1a.87.87,0,0,0,1.12-.56m1.5-11.21-.47-.55c-.78.35-1.12.92-.84,3.12a5,5,0,0,1-2.4-.84c-.37.21-.68.38-1.2.65a2.28,2.28,0,0,1,.6-2.8c1.55-1,2.84,0,3.42-1.29a1.28,1.28,0,0,0,.09-.47c0-.88-.33-1.44-2-1.44v-.45l1,0,.45-.38,1.22,0,.44-.47s1.48,3.47-.3,4.92m-.26-4.9-.39-.57-.32.63-.58-.56,0,.62-.36.36h-1a.32.32,0,0,0-.39.33l0,.84c.89,0,2.17-.06,2,1.08H80.9c-.38-1.34-2.22-.35-2.74-.9l0,.39c.27.26.45.16.81.16.56,0,1.31-.18,1.46.35L79.54,44v.45s.94.06,1.39.12c-.36.56-1.38.17-2.76.57l-.52-.31a4.17,4.17,0,0,0-.78-1.32c.27-.37.24-.73-.31-1.26a1.48,1.48,0,0,1-.23.66.88.88,0,0,0-1.25-.23,5.85,5.85,0,0,0,.31.66c.16.21.76.29.65.52a.89.89,0,0,0-1.08.39c.48.07.43.32,1,.28.07,1,.69.72.8,1.7l-.88,0a6.05,6.05,0,0,0-1.15-.76,1,1,0,0,0-.9-1,4.19,4.19,0,0,0,.11.67.72.72,0,0,0-.91.12c-.15-1.53-.11-4.42-.11-4.42l9.57-.16Zm-9.7-1.12-.61-.33,0-3.26L75,34.4a.46.46,0,0,0,.26,0l5.26,3.88a.19.19,0,0,0,0,.08L78,40.19Zm2.54-6.52-3.44-2.53-.2-2,4.35-3.13a.34.34,0,0,0,.24,0l5,3.62v.07l-5.56,4a.45.45,0,0,0-.34,0m-3.71-4.89c-.13-1.43-.35-4.07-.35-4.07a18,18,0,0,0-3.45,2A4.71,4.71,0,0,1,66,25.55l4.5-3.23a.41.41,0,0,0,.32,0l4.63,3.42v.09s-4.21,3-4.21,3M70.29,22l-4.53,3.25A6.27,6.27,0,0,1,65,23.9a5.19,5.19,0,0,0,3-3.59L70.29,22Zm-5.48,1.2a7,7,0,0,1-.19-1.12,3,3,0,0,0,1-1c.12-.27.1-.3-.24-.56s0-.46,0-.46c.73-.52.76-.65.63-1.56-.1-.45-.17-.81-.26-1.17.34-.69-.25-.81-.22-1.2.09-1.18-.25-1.58-.52-1.78-.75-.55-1.51-.33-2.36-.45-.12-1.33-2.12-1.3-2.53-.13a8.52,8.52,0,0,0-1.76.38,1.49,1.49,0,0,0-1,1.19c-.16,1.16-.27,1-.43,1.29a.68.68,0,0,0,.38,1c0,1.46-.23,1.65.36,2.42-.32.4-.62.57.06,1.11a2.05,2.05,0,0,0,1.46.2,5,5,0,0,0,.39.9,2.38,2.38,0,0,0,3.19.22c-.87,1.56-3.19.76-3.76.3l-.18.45a5.7,5.7,0,0,1-2.8-6,5.6,5.6,0,0,1,5.45-4.66,6,6,0,0,1,6.2,5.78c0,3.44-1.89,4.36-2.79,4.86m-1.5-5.3c-.24-.19-.09-.36.16-.34.41,0,1-.06,1.73,0,.08.19.67,1.79-.16,2.12l-.47.19c-.2.08-.48.2,0,.57.14.12.44.38.6.53a1.62,1.62,0,0,1-1.55.6c.06-.64.16-1.62.47-1.84.55-.39-.5-1.63-.74-1.82m-5.62-.21c.27.07.6.06.82.13a3.19,3.19,0,0,0,0,2.28c.17.33.24.22.4.15,0-.18-.3-1,.42-1a4.81,4.81,0,0,0,1.34-.11,2.5,2.5,0,0,0-.09-.71C60.43,18,59.6,18,59,18c0-.53.54-.6,1-.69s2.58,0,2.61.54c-.86.15-1.25.36-1.28.94s0,.91.06,1.43c-.27,0-1,0-1,0-.14.34,0,1.2-.78,1.15-.27,0-.31-.25-.51-.48a5.47,5.47,0,0,1-1,.06c-.31-.07-.53-.37-.29-.57a1.46,1.46,0,0,0,.29-.22c-.43-.6-.59-.55-.41-2.4m-.17-1.79c0-1.6,1.61-1.57,3-1.65-.08-.59.3-.89.89-.9.82,0,.8.78.81,1,.88.15,2.22-.22,2.67.64.25.49,0,1.23.22,1.58s.16.58-.14.57A8.73,8.73,0,0,0,62.71,17c-1.37,0-1.75-.21-2.82-.16-.83,0-1.39.36-2,.34l-.54,0c0-.13,0-.2,0-.33.3,0,.22-.51.22-.9m5.58,2.67c-.22.47-1.19.51-1.38.11,0-.39,1-.59,1.38-.11m-4.17.16c.34-.63,1.26-.43,1.32-.07s-1,.48-1.32.07M61.5,21l-1,0c0-.32.08-.46.55-.37.21,0,.48.06.45.35m-1,.36c.26,0,.78,0,1.09,0,.14.23.26.21.29.4s0,.38-.27.43a2.61,2.61,0,0,1-1,0c-.24-.07-.35-.17-.39-.39s.22-.21.32-.44m1.3-1.11c-.13-.53-.09-1,.89-1,.62,0,.93,0,.84.57-.18.74-.23,1-.52,1.32-.48.36-1,0-1.21-.93M59.4,23.63c2.61,1.18,3.79-.63,4-1.51l.55,0a5.91,5.91,0,0,0,.79,3,4.66,4.66,0,0,1-6.39.72,19.66,19.66,0,0,0,1-2.23m-.09,3.27a1.49,1.49,0,0,1-.87,1.43,4.84,4.84,0,0,0-.64-1.8l.38-.37a4.89,4.89,0,0,0,1.14.74M58,28.47a1.51,1.51,0,0,1-2.25-.7c.52-.28,1.27-.77,1.61-1A5,5,0,0,1,58,28.47m-1.21.64-2.37,1.49.08-2.11.82-.43a1.6,1.6,0,0,0,1.47,1m-2.4-13.38-.19,3.19c-1-.36-1.14-2.89.19-3.19m0-.87c-1.3-.28-1.23-2.78.16-2.89ZM53,13.42a1.9,1.9,0,0,0,1.25,1.87,2.16,2.16,0,0,0-1.34,1.92,1.94,1.94,0,0,0,1.16,2.05A19.82,19.82,0,0,1,48,18.7c.11-.26.32-.31,1.18-.25l.87,0c.62,0,1,.08,1.23-.24s-.17-.86-.7-.67a5.14,5.14,0,0,1-.68-1.08c-.43-.69.15-1,.5-1a2.29,2.29,0,0,1,2.06,1.15c.25-.24.09-.42,0-.8-.18-.57.27-.39-.18-1.07a.87.87,0,0,0-.59-.42c-.75-.12-.39.3-1.19.37-.63.08-.91-.24-.53-.75a9.85,9.85,0,0,1,.88-1,.51.51,0,0,0,.9-.28c0-.53-.48-.65-1.11-.69s-1,0-1.29,0c-.93,0-1.08-.21-1.09-.44a59.25,59.25,0,0,1,6.19.09A1.82,1.82,0,0,0,53,13.42M43.8,17a5.51,5.51,0,0,1,3-1.36c.64.08,2.09.11,2.09.11l.26.5H46.88v.4h2.43l.25.48c-2.49,0-3.7-.17-4.27.79-.68-.17-1.69-.52-2.86-.89-.53-.77-.39-2.14.66-2.09a14.79,14.79,0,0,1,2.7.39,6.87,6.87,0,0,0-2.16,1.29Zm3.62.55h2.32l.33.51c-2.16,0-2.48-.18-2.82.38l-1.17-.32c.27-.44.68-.56,1.34-.58m3.08-5.22-.34.42c-2.06,0-3.62.16-3.84-1.08l1.12-.09c.16.68.59.73,3,.74m-.61.8-.32.4H46.95v.39h2.29l-.38.46s-.77,0-2,0a7.91,7.91,0,0,1-2.84-1.91l-.23.4a7.14,7.14,0,0,0,2.07,1.61,16.45,16.45,0,0,1-2.79-.09,1.22,1.22,0,0,1-.73-2.06,27.68,27.68,0,0,1,3.24-.57c.62,1.58,1.74,1.32,4.28,1.37m.74,6.69-1.48,1a.29.29,0,0,0-.27,0l-.79-.63c.16-.18.07-.31-.1-.34a11.63,11.63,0,0,1-1.89-.32s-.32-.18-.27.31a6.78,6.78,0,0,1-.73,3.65c-.15.35-.37.32-.48,0a11.61,11.61,0,0,1-.49-4.18s.05-.36-.29-.23a7.27,7.27,0,0,1-1.25.31,12.44,12.44,0,0,1,.53,1.54A13.76,13.76,0,0,1,42.35,23c-.16.33-.37.35-.46,0-1-3.78-.51-4.29-.19-4.51s.2-.4-.06-.37a10.35,10.35,0,0,1-2.46-.38c-.29-.1-.37.15-.16.3a2,2,0,0,1,.69,1l-1.83,1.31a.41.41,0,0,0-.34,0L34.6,18a6.92,6.92,0,0,1,6-.87c5.61,1.76,6.84,2.22,10,2.69m-9-3.06-1.32-.4c.52-.57,1.46-1.54,1.66-1.42s-.78,1.35-.34,1.82m-.26-2.31a21.6,21.6,0,0,1-2.85-.2c-.48,0-.73.24-.72.49a.59.59,0,0,0,.71.44,14.49,14.49,0,0,1,2.88-.31c.12.13-1.47.87-1.87,1.27a24.8,24.8,0,0,0-4.7-.84,23.79,23.79,0,0,1,4.74-2.12c.22.46,1.92,1.13,1.82,1.28m-4,1.83c-2.55.57-4.87,2.07-7.62,5.27,1.15-3.31,1.91-6.73,7.62-5.27m-8.47,5.86-2.34-1.9L31,17.13a22.15,22.15,0,0,0-2.12,5m-.12.3c-.52,1.78-.9,2.9-1.29,4.41l.76-.67A19.28,19.28,0,0,1,29.5,23l2.13,1.69v.09l-5.25,3.73a.37.37,0,0,0-.35,0l-5.33-4.21,5.6-3.88Zm-2.74,6.7a.42.42,0,0,0,.25,0L28.65,31a1.15,1.15,0,0,0,1.45,1.6,3.2,3.2,0,0,1-.15,1.59l-3.69,2.65a.47.47,0,0,0-.29,0l-5-4v-.12Zm-.3,7.95v.14l-3,2.17c-1.49-.13-3.22-.31-4.32-.46l-2.82-2.29v-.09l4.84-3.44a.54.54,0,0,0,.32,0Zm-7.86,1.83s-3.16-.4-4.65-.62l1.89-1.37a.54.54,0,0,0,.3,0ZM13.63,39c4.61.63,9.69,1.15,14.38,1.49-.17,4.05-.6,7-2,9.81a16.28,16.28,0,0,1-3.6.39L22,48a1.54,1.54,0,0,0,.94.51,1.88,1.88,0,0,0,2.47,1.41,6.54,6.54,0,0,1-.62-2.28,2.11,2.11,0,0,0,1.53.38,10.58,10.58,0,0,1-.46-2.26A1.52,1.52,0,0,0,27,46c-.15-1.57.15-2.41.05-3.9A1.18,1.18,0,0,0,25.92,41a1.22,1.22,0,0,0-1.34.92,1.7,1.7,0,0,0,.15.93,8.12,8.12,0,0,1-3.24,1.71,1,1,0,0,1-.21-.6L22,44c-.11-.18-.28-.45-.37-.63,0-1.43.09-1.93-1.16-2.6-.2-.11-.31,0-.59.18-.43-.5-1.45-1.7-2.14-.47a1.31,1.31,0,0,1,.64-.09c.17,1.19,1.05,2.43,1,2.73a2.1,2.1,0,0,1-.6.88c.2,0,.66,0,.66,0a2.44,2.44,0,0,1-.15.6c-.69,0-2.94-.76-3.45-2.06a1.21,1.21,0,0,0,.44-1,1.33,1.33,0,0,0-1.09-1.32,1.1,1.1,0,0,0-1.29,1,17.1,17.1,0,0,1-.28,3.66,1.47,1.47,0,0,0,1.19-.45A6.85,6.85,0,0,1,14,47.74a5,5,0,0,0,1.39-.06,3.52,3.52,0,0,1-.81,1.72,2.16,2.16,0,0,0,2.55-1.13,1.59,1.59,0,0,0,1.25-.64,7.83,7.83,0,0,1-.79,2.86,8.73,8.73,0,0,1-3.51-.9A21,21,0,0,1,13.63,39m2.84,11.82-1.85.38a4,4,0,0,1-.34-.85,11.58,11.58,0,0,1,2.19.47m.2.32a4.33,4.33,0,0,0-1.23,1.62,7.55,7.55,0,0,1-.56-1,5.3,5.3,0,0,1,1.79-.59m1.7.46c0-.33,0-.56.06-.88L18,50.64l.8-1.51a4.81,4.81,0,0,1,.9,2.87c-.4,0-.74.1-.72.43s.48.32.69.38c.11,1.56-1.63,1-2.1.36-.29.93.78,1.31,1.39,1.25-.29.6-.84,1.63-.84,1.63a24,24,0,0,1-1.93-2.18C15.8,51,18,50.81,18.37,51.62m.21,5.7a17.78,17.78,0,0,0,1.57,1.22,10.62,10.62,0,0,0,1-.72l3.42,2.68v.14l-5.61,4.09a.43.43,0,0,0-.39,0l-5.28-3.66Zm.5,7.67,5.66-4.1a.71.71,0,0,0,.31,0l2.52,2a23.19,23.19,0,0,0-1.22,5.77H24.14l-5.06-3.53ZM26,69.38c-1.33,1.4-.12,2.77,1.65,3.86,1.09.66.79,1.26,1.76,1.5H27.93c-2-1.78-5.35-5.33-5.35-5.33Zm.62,4.81,1.12,1.07,1.39,0a1.32,1.32,0,0,0-.75,1.31,4.05,4.05,0,0,0-.65.18,1.81,1.81,0,0,0-1.13-1.63,2.19,2.19,0,0,0,0-.91M28.81,77c0-.59-.13-1.46,1.07-1.54s1.06,1.17,1.1,1.61a1.09,1.09,0,0,1,1.35,1.1c0,1-.87,1.23-1.37,1.25,0,.46.18,1.78-1,1.74s-1.05-1.22-1.1-1.7c-.21,0-1.68.4-1.6-1.37,0-.83.85-1.16,1.58-1.08m2.7,2.86a1.41,1.41,0,0,0,1.05-.64,1.66,1.66,0,0,0,1.2.5c0,.64.1,1.46.88,1.75H30.85a1.6,1.6,0,0,0,.65-1.62m2.72-.53c-.54,0-1.36,0-1.41-1.11s1.23-1.11,1.57-1.14c0-.5-.11-1.62,1.05-1.55s1,1.24,1,1.55c.46,0,1.28-.08,1.39,1s-.91,1.27-1.45,1.27c0,.5.2,1.66-.93,1.79s-1.18-1.1-1.19-1.77m2.7.37A1.1,1.1,0,0,0,38,79.19a1.09,1.09,0,0,0,1.14.62c0,.94.33,1.56.94,1.69H35.9a1.56,1.56,0,0,0,1-1.75m2.65-.32a1.1,1.1,0,0,1-1.3-1.21c0-1.16,1.11-1.15,1.42-1.18,0-.3-.25-1.39.88-1.45s1.1,1.22,1.09,1.6c.35,0,1.42-.05,1.46,1.08S42,79.41,41.61,79.42c0,.67.05,1.64-1,1.71s-1.07-1.27-1.08-1.71m11.67,2.88L46,86a.45.45,0,0,0-.33,0l-4.55-3.69Zm-.79-2.94c-.47,0-1.38.14-1.44-1.06s1.1-1.24,1.45-1.29c0-.39,0-1.55,1-1.47s.93,1.17,1,1.62c.52,0,1.27,0,1.33,1,.07,1.14-.78,1.15-1.24,1.19,0,.38.26,1.65-.92,1.71s-1.08-1.23-1.18-1.66m2.65.43c.48-.06.71-.14.92-.5a1,1,0,0,0,1.11.5,1.42,1.42,0,0,0,1.09,1.6l-4,0a1.56,1.56,0,0,0,.89-1.64m10.15,2.41L58.07,86a.33.33,0,0,0-.37,0l-4.87-3.79Zm-1-.89a1.54,1.54,0,0,0,.82-1.56,1.23,1.23,0,0,0,1.13-.61,1,1,0,0,0,1.12.59,1.57,1.57,0,0,0,1,1.56Zm3.48-2.07c-.87-.05-1.34-.14-1.34-1.17s.83-1.2,1.46-1.19c0-.62.09-1.38,1-1.38s.93.86.93,1.47c.61,0,1.39.17,1.37,1s-.41,1.06-1.32,1.16c0,.51.21,1.73-.92,1.69s-1.09-1.16-1.14-1.62m2.54.37a1.1,1.1,0,0,0,1.06-.6,1.4,1.4,0,0,0,1.28.65,1.61,1.61,0,0,0,.85,1.59H67.59a1.5,1.5,0,0,0,.72-1.63m4.58-11,1.93-1.38a.39.39,0,0,0,.24,0l1.69,1.32Zm1.93-2S72.21,64.46,72,64.32a1,1,0,0,0,1.64-.63,32,32,0,0,0-.91-3.57l2.18-1.52a.31.31,0,0,0,.32,0l5.24,4.14,0,.12-5.34,3.76a.45.45,0,0,0-.34,0m.62-8.22v-.14l2-1.38A25.64,25.64,0,0,0,81.23,60c1-.91,2.75-3,2.75-3l2.21,1.66v.15l-5.14,3.6a.38.38,0,0,0-.4,0l-5.21-4.08m6.51,0c-.45-.48,0-1.6.47-2.2a3.08,3.08,0,0,1-.59-2.62c.45.07.73.7,1.6.4a4,4,0,0,1,1.19-.38,1.56,1.56,0,0,0-.33-.68c2.48-1.5,1.29-4,.71-4.88A5.72,5.72,0,0,0,87.4,44.4s.43,0,.64-.86A19.3,19.3,0,0,1,82,58.33m4.95-15.12c0-.41.2-.73.36-.71s.37.35.34.75-.29.72-.44.71-.28-.35-.26-.75M88,43a1.87,1.87,0,0,0-.72-1.12,1.77,1.77,0,0,0-.49,2.48c0,.7-.32,1.63-2,3.13a4.07,4.07,0,0,1-.28-2.53c1-.49.6-1.82.07-2.32a1.77,1.77,0,0,0-.9,1.2,10.13,10.13,0,0,0-.71-3.11l5-.08A20.21,20.21,0,0,1,88,43m-9.43-2.79,2.12-1.57a.33.33,0,0,0,.26,0l2,1.46Zm2-2.23-5.21-3.82V34L81,30a.35.35,0,0,0,.3,0l5.24,3.86-5.48,4a.55.55,0,0,0-.42,0M83.69,27.7c-.37.26-2.38,1.73-2.39,1.72a.26.26,0,0,0-.27,0L76.1,25.81v-.07L80,23a39.12,39.12,0,0,1,3.72,4.73m-5-6c.36.36.73.72,1.07,1.08l-3.81,2.72a.39.39,0,0,0-.3,0L71,22v-.09l4.47-3.2a40.32,40.32,0,0,1,3.23,2.92m-3.49-3.13L70.76,21.7a.42.42,0,0,0-.26,0l-2.39-1.76a7,7,0,0,0-.41-3.82l1.86-1.27a35.27,35.27,0,0,1,5.61,3.67m-5.9-3.86-1.71,1.14a6.87,6.87,0,0,0-6.19-3.59,5.85,5.85,0,0,0-5.86,5.85,6.37,6.37,0,0,0,3,5.82,4.85,4.85,0,0,1-1,1.95,11.06,11.06,0,0,1-3,1.89,2.13,2.13,0,0,1,.19-1.17c.76-.82,2.17-1.84,1.27-2.83.2-.39.23-.68-.13-.9a.87.87,0,0,0-.22-1.2c.26-.91-.39-1.12-.66-1.07l0-.68a.4.4,0,0,0,.42-.43.32.32,0,0,0-.36-.36l.17-3.42a.38.38,0,0,0,.43-.36c0-.33-.16-.44-.39-.44l.16-3c.24,0,.42-.06.44-.4a.37.37,0,0,0-.4-.42c0-.19,0-.62,0-.64a38.22,38.22,0,0,1,13.75,4.26M55.52,3,55.14,9,54.62,5.6ZM22.6,21.77a39.23,39.23,0,0,1,28-11.68c1.36,0,4.07.2,4.07.2,0,.2,0,.45,0,.67-9.27-.42-15.34.39-24.12,6.13l-10.1,7c.69-.82,1.4-1.56,2.17-2.33m-2.38,2.61,5.64,4.45v.07l-5.09,3.59a.47.47,0,0,0-.3,0l-3.83-3.06a41,41,0,0,1,3.59-5m-3.76,5.31,3.81,3v.14L15.42,36.3a.35.35,0,0,0-.31,0l-1.32-1.07a40.28,40.28,0,0,1,2.67-5.5M13.66,35.5l1.25,1a.23.23,0,0,0,0,.18L13.17,38A23,23,0,0,0,14,51.44l-2.77,1.8A40.72,40.72,0,0,1,13.66,35.5M11.26,53.61l2.85-1.89a18.67,18.67,0,0,0,4.22,5.39L12.71,61a37.72,37.72,0,0,1-1.45-7.44m1.48,7.49L18.37,65v.1l-3.2,2.33a33.69,33.69,0,0,1-2.45-6.34m2.6,6.61,3.21-2.33a1.07,1.07,0,0,0,.35,0l4.74,3.3-2.09,0,0,3.13-2.51,1.83a35.84,35.84,0,0,1-3.72-5.95m3.91,6.2,2.34-1.7,0,4.54c-.79-.85-1.7-1.91-2.39-2.84m5.66-1.29a1.16,1.16,0,0,0-1.2.81c-.53-.23-1-.36-1.35,0l0-3.51ZM22.81,77.4l-.49-.52v-.93a1.17,1.17,0,0,0,.59.36,2.84,2.84,0,0,0-.09,1.1m.69-1.27c-.4-.25-1.58-.69-1.37-1.67.42-1.31,1.5-.51,1.84-.39.38-1.12,1-1.09,1.52-.74a1.83,1.83,0,0,1,.51,2c.44.22,1.52.71,1,1.79-.59,1.23-1.59.46-1.79.34-.12.35-.28,1.33-1.54.88-.85-.48-.47-1.93-.21-2.25m1.11,2.75a1,1,0,0,0,.9-.75,1.08,1.08,0,0,0,1.19.08c0,.76.27,2,1.65,1.77-.06,1.06.55,1.5.9,1.56H27.94c-.77-.44-3.33-2.66-3.33-2.66m3.75,3.47,11,0-5,3.42a31.1,31.1,0,0,1-6-3.44M34.71,86l5.64-3.85,5.14,4.16a.4.4,0,0,0,0,.1l-3.06,2.15A38.66,38.66,0,0,1,34.71,86m8.15,2.68,2.82-2a.42.42,0,0,0,.34,0l3.44,2.77a44.72,44.72,0,0,1-6.6-.78m7.12.78-3.77-3a.23.23,0,0,0,0-.13l5.9-4.17,5.42,4.21a.38.38,0,0,0,0,.11l-4,3a26.19,26.19,0,0,1-3.52,0m4.12-.08,3.64-2.69a.35.35,0,0,0,.27,0l2.08,1.69a45,45,0,0,1-6,1m6.4-1.11-2.26-1.81a.24.24,0,0,0,0-.15l5.55-4.06,4.11,3.25a36.73,36.73,0,0,1-7.41,2.77m7.76-2.91L64.2,82.13l9.18,0a49.84,49.84,0,0,1-5.13,3.2m5.52-4.07h-1a1.72,1.72,0,0,0,.9-1.81A1.3,1.3,0,0,0,75,78.19a1.21,1.21,0,0,0,1.19,0,2,2,0,0,0,.63.62,24,24,0,0,1-3,2.46m4-2.95c-.88.35-1.22-.52-1.42-.8A.86.86,0,0,1,74.78,77c-.17-1,.34-1.22.75-1.54-.1-.69-.19-1.67.5-2.16s1.15.39,1.29.79c.64-.7,1.7-.67,1.79.13a1.93,1.93,0,0,1-1,1.8c.12.45.53,1.89-.34,2.24m1-1.25a2.19,2.19,0,0,0-.11-.9,1.82,1.82,0,0,0,.65-.64v1Zm1.13-8.52H77.25L75.31,67a.41.41,0,0,0,0-.17l5.41-3.78a.42.42,0,0,0,.25,0L86,67l-6.13,4.44Zm.23,7.67-.14-4.71,2.44,2c-.78,1-1.44,1.77-2.3,2.69m2.48-3-2.15-1.75,5.85-4.24a37.53,37.53,0,0,1-3.7,6m3.87-6.32-5.22-4.06,0-.12,5.21-3.65s.21,0,.26,0l2.13,1.61a36,36,0,0,1-2.4,6.23m2.51-6.56-2-1.51v-.1l2.85-2a32.89,32.89,0,0,1-.85,3.58m.92-4-3,2.11a.49.49,0,0,0-.44,0l-2.18-1.64a20.31,20.31,0,0,0,3.26-5.54l2.77,2.2a25.52,25.52,0,0,1-.38,2.88m-2.27-5.41c.79-2.69,1.25-4.12.92-11-.77.05-3.81.13-5,.15l-2.29-1.68s0-.18,0-.18l5.86-4.32a40,40,0,0,1,3.27,15.74c0,1.37,0,2.2-.13,3.47Z" transform="translate(-1.26 -0.11)"/><path class="cls-1" d="M29.85,79a.71.71,0,1,0-.71-.71.71.71,0,0,0,.71.71" transform="translate(-1.26 -0.11)"/><path class="cls-1" d="M61.55,77.46a.71.71,0,1,0,0,1.41.71.71,0,0,0,0-1.41" transform="translate(-1.26 -0.11)"/><path class="cls-1" d="M56.55,78.87a.71.71,0,1,0-.71-.7.71.71,0,0,0,.71.7" transform="translate(-1.26 -0.11)"/><path class="cls-1" d="M51.44,77.57a.71.71,0,1,0,.71.71.7.7,0,0,0-.71-.71" transform="translate(-1.26 -0.11)"/><path class="cls-1" d="M45.87,79a.71.71,0,1,0-.71-.71.71.71,0,0,0,.71.71" transform="translate(-1.26 -0.11)"/><path class="cls-1" d="M41.35,78.28a.71.71,0,1,0-.7.71.7.7,0,0,0,.7-.71" transform="translate(-1.26 -0.11)"/><path class="cls-1" d="M36,78.35a.71.71,0,1,0-.71.71.71.71,0,0,0,.71-.71" transform="translate(-1.26 -0.11)"/><path class="cls-1" d="M76.88,74.94a.84.84,0,0,0-.59.78.69.69,0,0,0,.76.71.65.65,0,0,0,.52-.72c0-.52-.35-.85-.69-.77" transform="translate(-1.26 -0.11)"/><path class="cls-1" d="M25.34,75.81a.72.72,0,0,0-.64-.68c-.43,0-.56.43-.56.69a.72.72,0,0,0,.65.68.64.64,0,0,0,.55-.68" transform="translate(-1.26 -0.11)"/><path class="cls-1" d="M72.11,77.4a.71.71,0,1,0,.71.71.71.71,0,0,0-.71-.71" transform="translate(-1.26 -0.11)"/><path class="cls-1" d="M67.42,78.11a.71.71,0,1,0-.71.71.71.71,0,0,0,.71-.71" transform="translate(-1.26 -0.11)"/><path class="cls-1" d="M56.83,33.13a.34.34,0,0,1-.34.34.34.34,0,0,1-.34-.34.34.34,0,1,1,.68,0" transform="translate(-1.26 -0.11)"/><path class="cls-1" d="M55.49,29.17a.34.34,0,0,1-.68,0,.34.34,0,0,1,.68,0" transform="translate(-1.26 -0.11)"/><path class="cls-1" d="M56.69,30.91a.34.34,0,1,1-.34-.34.34.34,0,0,1,.34.34" transform="translate(-1.26 -0.11)"/><path class="cls-1" d="M35.4,46.8a.34.34,0,0,1-.34.34.34.34,0,0,1-.34-.34.33.33,0,0,1,.34-.34.34.34,0,0,1,.34.34" transform="translate(-1.26 -0.11)"/><path class="cls-1" d="M34.66,48.28a.34.34,0,1,1-.34-.34.34.34,0,0,1,.34.34" transform="translate(-1.26 -0.11)"/><path class="cls-1" d="M36,45.14a.34.34,0,1,1-.34-.34.34.34,0,0,1,.34.34" transform="translate(-1.26 -0.11)"/><path class="cls-1" d="M37.12,59.47a.38.38,0,1,1-.38-.38.38.38,0,0,1,.38.38" transform="translate(-1.26 -0.11)"/><path class="cls-1" d="M34.68,59.35A.38.38,0,1,1,34.3,59a.38.38,0,0,1,.38.38" transform="translate(-1.26 -0.11)"/><path class="cls-1" d="M39.61,59.47a.38.38,0,1,1-.38-.38.38.38,0,0,1,.38.38" transform="translate(-1.26 -0.11)"/><path class="cls-1" d="M33.76,62.43a.38.38,0,1,1-.38-.38.38.38,0,0,1,.38.38" transform="translate(-1.26 -0.11)"/><path class="cls-1" d="M41.45,62.43a.38.38,0,1,1-.38-.38.38.38,0,0,1,.38.38" transform="translate(-1.26 -0.11)"/><path class="cls-1" d="M38.76,62.57a.38.38,0,1,1-.38-.38.38.38,0,0,1,.38.38" transform="translate(-1.26 -0.11)"/><path class="cls-1" d="M36.15,62.73a.38.38,0,1,1-.38-.38.38.38,0,0,1,.38.38" transform="translate(-1.26 -0.11)"/><path class="cls-1" d="M32.35,58.79a.38.38,0,1,1-.38-.38.38.38,0,0,1,.38.38" transform="translate(-1.26 -0.11)"/><path class="cls-1" d="M60.8,49.91a.38.38,0,1,1-.38-.38.38.38,0,0,1,.38.38" transform="translate(-1.26 -0.11)"/><path class="cls-1" d="M58.26,49.15a.38.38,0,1,1-.38-.38.38.38,0,0,1,.38.38" transform="translate(-1.26 -0.11)"/><path class="cls-1" d="M63.44,50a.38.38,0,1,1-.38-.38.38.38,0,0,1,.38.38" transform="translate(-1.26 -0.11)"/><path class="cls-1" d="M62.21,46.34a.38.38,0,1,1-.38-.38.38.38,0,0,1,.38.38" transform="translate(-1.26 -0.11)"/><path class="cls-1" d="M59.9,46.18a.38.38,0,1,1-.38-.38.38.38,0,0,1,.38.38" transform="translate(-1.26 -0.11)"/><path class="cls-1" d="M57.78,45.39A.38.38,0,1,1,57.4,45a.38.38,0,0,1,.38.38" transform="translate(-1.26 -0.11)"/><path class="cls-1" d="M56,48.08a.38.38,0,1,1-.38-.38.38.38,0,0,1,.38.38" transform="translate(-1.26 -0.11)"/><path class="cls-1" d="M64.45,46.34a.38.38,0,1,1-.38-.38.38.38,0,0,1,.38.38" transform="translate(-1.26 -0.11)"/><path class="cls-1" d="M32.66,55.5a.41.41,0,1,1-.41-.41.41.41,0,0,1,.41.41" transform="translate(-1.26 -0.11)"/><path class="cls-1" d="M34.09,56.16a.41.41,0,1,1-.41-.41.41.41,0,0,1,.41.41" transform="translate(-1.26 -0.11)"/><path class="cls-1" d="M35.69,56.61a.41.41,0,1,1-.41-.41.41.41,0,0,1,.41.41" transform="translate(-1.26 -0.11)"/><path class="cls-1" d="M37.37,56.81A.41.41,0,1,1,37,56.4a.41.41,0,0,1,.41.41" transform="translate(-1.26 -0.11)"/><path class="cls-1" d="M39.12,56.85a.41.41,0,1,1-.41-.41.41.41,0,0,1,.41.41" transform="translate(-1.26 -0.11)"/><path class="cls-1" d="M40.83,56.75a.41.41,0,1,1-.41-.41.41.41,0,0,1,.41.41" transform="translate(-1.26 -0.11)"/><path class="cls-1" d="M59.73,43.12a.41.41,0,1,1-.41-.41.41.41,0,0,1,.41.41" transform="translate(-1.26 -0.11)"/><path class="cls-1" d="M58.21,42.31a.41.41,0,1,1-.41-.41.41.41,0,0,1,.41.41" transform="translate(-1.26 -0.11)"/><path class="cls-1" d="M57,41.2a.41.41,0,1,1-.41-.41.41.41,0,0,1,.41.41" transform="translate(-1.26 -0.11)"/><path class="cls-1" d="M61.45,43.48a.41.41,0,1,1-.41-.41.41.41,0,0,1,.41.41" transform="translate(-1.26 -0.11)"/><path class="cls-1" d="M63.19,43.45a.41.41,0,1,1-.41-.41.41.41,0,0,1,.41.41" transform="translate(-1.26 -0.11)"/><path class="cls-1" d="M65.32,42.87a.41.41,0,1,1-.41-.41.41.41,0,0,1,.41.41" transform="translate(-1.26 -0.11)"/><path class="cls-1" d="M46.7,64a.79.79,0,1,0,.79.79A.79.79,0,0,0,46.7,64m0,1.24a.45.45,0,1,1,.45-.45.45.45,0,0,1-.45.45" transform="translate(-1.26 -0.11)"/><path class="cls-1" d="M18.61,68.62a.79.79,0,1,0,.79.79.79.79,0,0,0-.79-.79m0,1.24a.45.45,0,1,1,.45-.45.45.45,0,0,1-.45.45" transform="translate(-1.26 -0.11)"/><path class="cls-1" d="M18.85,60.08a.79.79,0,1,0,.79.79.79.79,0,0,0-.79-.79m0,1.24a.45.45,0,1,1,.45-.45.45.45,0,0,1-.45.45" transform="translate(-1.26 -0.11)"/><path class="cls-1" d="M25.1,55.68a.79.79,0,1,0,.79.79.79.79,0,0,0-.79-.79m0,1.24a.45.45,0,1,1,.45-.45.45.45,0,0,1-.45.45" transform="translate(-1.26 -0.11)"/><path class="cls-1" d="M24.7,64.19a.79.79,0,1,0,.79.79.79.79,0,0,0-.79-.79m0,1.24a.45.45,0,1,1,.45-.45.45.45,0,0,1-.45.45" transform="translate(-1.26 -0.11)"/><path class="cls-1" d="M40.05,85.44a.79.79,0,1,0,.79.79.79.79,0,0,0-.79-.79m0,1.24a.45.45,0,1,1,.45-.45.45.45,0,0,1-.45.45" transform="translate(-1.26 -0.11)"/><path class="cls-1" d="M63.67,85.39a.79.79,0,1,0,.79.79.79.79,0,0,0-.79-.79m0,1.24a.45.45,0,1,1,.45-.45.45.45,0,0,1-.45.45" transform="translate(-1.26 -0.11)"/><path class="cls-1" d="M51.84,85.47a.79.79,0,1,0,.79.79.79.79,0,0,0-.79-.79m0,1.24a.45.45,0,1,1,.45-.45.45.45,0,0,1-.45.45" transform="translate(-1.26 -0.11)"/><path class="cls-1" d="M70.52,17.34a.79.79,0,1,0,.79.79.79.79,0,0,0-.79-.79m0,1.24a.45.45,0,1,1,.45-.45.45.45,0,0,1-.45.45" transform="translate(-1.26 -0.11)"/><path class="cls-1" d="M75.69,21.17a.79.79,0,1,0,.79.79.79.79,0,0,0-.79-.79m0,1.24a.45.45,0,1,1,.45-.45.45.45,0,0,1-.45.45" transform="translate(-1.26 -0.11)"/><path class="cls-1" d="M75.39,29a.79.79,0,1,0,.79.79.79.79,0,0,0-.79-.79m0,1.24a.45.45,0,1,1,.45-.45.45.45,0,0,1-.45.45" transform="translate(-1.26 -0.11)"/><path class="cls-1" d="M81,25.1a.79.79,0,1,0,.79.79A.79.79,0,0,0,81,25.1m0,1.24a.45.45,0,1,1,.45-.45.45.45,0,0,1-.45.45" transform="translate(-1.26 -0.11)"/><path class="cls-1" d="M86.78,37.44a.79.79,0,1,0,.79.79.79.79,0,0,0-.79-.79m0,1.24a.45.45,0,1,1,.45-.45.45.45,0,0,1-.45.45" transform="translate(-1.26 -0.11)"/><path class="cls-1" d="M81,33.3a.79.79,0,1,0,.79.79A.79.79,0,0,0,81,33.3m0,1.24a.45.45,0,1,1,.45-.45.45.45,0,0,1-.45.45" transform="translate(-1.26 -0.11)"/><path class="cls-1" d="M75,37.28a.79.79,0,1,0,.79.79.79.79,0,0,0-.79-.79m0,1.24a.45.45,0,1,1,.45-.45.45.45,0,0,1-.45.45" transform="translate(-1.26 -0.11)"/><path class="cls-1" d="M87,54a.79.79,0,1,0,.79.79A.79.79,0,0,0,87,54m0,1.24a.45.45,0,1,1,.45-.45.45.45,0,0,1-.45.45" transform="translate(-1.26 -0.11)"/><path class="cls-1" d="M80.62,66.29a.79.79,0,1,0,.79.79.79.79,0,0,0-.79-.79m0,1.24a.45.45,0,1,1,.45-.45.45.45,0,0,1-.45.45" transform="translate(-1.26 -0.11)"/><path class="cls-1" d="M75.07,61.71a.79.79,0,1,0,.79.79.79.79,0,0,0-.79-.79m0,1.24a.45.45,0,1,1,.45-.45.45.45,0,0,1-.45.45" transform="translate(-1.26 -0.11)"/><path class="cls-1" d="M42.59,36.64a.79.79,0,1,0,.79.79.79.79,0,0,0-.79-.79m0,1.24a.45.45,0,1,1,.45-.45.45.45,0,0,1-.45.45" transform="translate(-1.26 -0.11)"/><path class="cls-1" d="M20.43,36a.79.79,0,1,0,.79.79.79.79,0,0,0-.79-.79m0,1.24a.45.45,0,1,1,.45-.45.45.45,0,0,1-.45.45" transform="translate(-1.26 -0.11)"/><path class="cls-1" d="M12.69,55.63a.79.79,0,1,0,.79.79.79.79,0,0,0-.79-.79m0,1.24a.45.45,0,1,1,.45-.45.45.45,0,0,1-.45.45" transform="translate(-1.26 -0.11)"/><path class="cls-1" d="M46.68,56.38a.79.79,0,1,0,.79.79.79.79,0,0,0-.79-.79m0,1.24a.45.45,0,1,1,.45-.45.45.45,0,0,1-.45.45" transform="translate(-1.26 -0.11)"/><path class="cls-1" d="M26.05,32.19a.79.79,0,1,0,.79.79.79.79,0,0,0-.79-.79m0,1.24A.45.45,0,1,1,26.5,33a.45.45,0,0,1-.45.45" transform="translate(-1.26 -0.11)"/><path class="cls-1" d="M37.64,24.14a.79.79,0,1,0,.79.79.79.79,0,0,0-.79-.79m0,1.24a.45.45,0,1,1,.45-.45.45.45,0,0,1-.45.45" transform="translate(-1.26 -0.11)"/><path class="cls-1" d="M48.37,32.68a.79.79,0,1,0,.79.79.79.79,0,0,0-.79-.79m0,1.24a.45.45,0,1,1,.45-.45.45.45,0,0,1-.45.45" transform="translate(-1.26 -0.11)"/><path class="cls-1" d="M48.8,24.26a.79.79,0,1,0,.79.79.79.79,0,0,0-.79-.79m0,1.24a.45.45,0,1,1,.45-.45.45.45,0,0,1-.45.45" transform="translate(-1.26 -0.11)"/><path class="cls-1" d="M43.1,28.49a.79.79,0,1,0,.79.79.79.79,0,0,0-.79-.79m0,1.24a.45.45,0,1,1,.45-.45.45.45,0,0,1-.45.45" transform="translate(-1.26 -0.11)"/><path class="cls-1" d="M20.43,27.81a.79.79,0,1,0,.79.79.79.79,0,0,0-.79-.79m0,1.24a.45.45,0,1,1,.45-.45.45.45,0,0,1-.45.45" transform="translate(-1.26 -0.11)"/><path class="cls-1" d="M15.45,31.93a.79.79,0,1,0,.79.79.79.79,0,0,0-.79-.79m0,1.24a.45.45,0,1,1,.45-.45.45.45,0,0,1-.45.45" transform="translate(-1.26 -0.11)"/><path class="cls-1" d="M26.17,23.74a.79.79,0,1,0,.79.79.79.79,0,0,0-.79-.79m0,1.24a.45.45,0,1,1,.45-.45.45.45,0,0,1-.45.45" transform="translate(-1.26 -0.11)"/><path class="cls-1" d="M32.06,19.8a.79.79,0,1,0,.79.79.79.79,0,0,0-.79-.79m0,1.24a.45.45,0,1,1,.45-.45.45.45,0,0,1-.45.45" transform="translate(-1.26 -0.11)"/><path class="cls-1" d="M86.39,61.92a.79.79,0,1,0,.79.79.79.79,0,0,0-.79-.79m0,1.24a.45.45,0,1,1,.45-.45.45.45,0,0,1-.45.45" transform="translate(-1.26 -0.11)"/></g></svg>