<?xml version="1.0" encoding="UTF-8" standalone="no"?>
<!DOCTYPE svg  PUBLIC '-//W3C//DTD SVG 1.1//EN'  'http://www.w3.org/Graphics/SVG/1.1/DTD/svg11.dtd'>
<svg xmlns="http://www.w3.org/2000/svg">
<defs>
<font id="AtlasGrotesk-Thin" horiz-adv-x="810">
<font-face underline-position="-50" font-weight="250" descent="-200" panose-1="2 0 0 0 0 0 0 0 0 0" units-per-em="1000" unicode-range="U+0020-2265" bbox="-186 -215 1202 1149" x-height="522" underline-thickness="50" font-family="AtlasGrotesk" ascent="800" cap-height="765"/>
<missing-glyph horiz-adv-x="1000"/>
<glyph glyph-name=".notdef" horiz-adv-x="1000"/>
<glyph glyph-name=".null" horiz-adv-x="0"/>
<glyph glyph-name="nonmarkingreturn" horiz-adv-x="333"/>
<glyph glyph-name="space" horiz-adv-x="260" unicode=" "/>
<glyph glyph-name="exclam" horiz-adv-x="277" unicode="!" d="M176 0h-75v74h75v-74zM117 188l-5 600h53l-6 -600h-42z"/>
<glyph glyph-name="quotedbl" horiz-adv-x="303" unicode='&quot;' d="M64 572l-14 193h64l-11 -193h-39zM203 572l-14 193h64l-11 -193h-39z"/>
<glyph glyph-name="numbersign" horiz-adv-x="648" unicode="#" d="M143 99l31 217h-109v38h115l24 166h-109v40h115l31 205h46l-31 -205h164l31 205h45l-30 -205h117v-40h-122l-25 -166h117v-38h-122l-32 -217h-45l32 217h-165l-31 -217h-47zM226 354h165l24 166h-164z"/>
<glyph glyph-name="dollar" horiz-adv-x="608" unicode="$" d="M323 -116h-44v111q-117 5 -170 66t-56 157h52q3 -36 11 -63.5t26 -55t53 -43t84 -18.5v315l-28 5q-182 29 -182 196q0 83 57 137.5t153 59.5v97h44v-98q100 -7 151.5 -61.5t53.5 -147.5h-51q-10 153 -154 166v-310l29 -5q99 -16 146.5 -62t47.5 -128q0 -84 -57 -142 t-166 -64v-112zM323 39h2q85 7 126.5 52t41.5 109q0 59 -34 94.5t-115 48.5l-21 3v-307zM279 404v303q-74 -4 -116 -46t-42 -107q0 -126 137 -147z"/>
<glyph glyph-name="percent" horiz-adv-x="867" unicode="%" d="M651 34q45 0 77.5 36.5t32.5 102.5q0 67 -32.5 103.5t-77.5 36.5q-46 0 -78 -35.5t-32 -104.5q0 -67 32 -103t78 -36zM651 -6q-71 0 -116 49t-45 131t45.5 130.5t115.5 48.5t115.5 -48.5t45.5 -130.5q0 -81 -45.5 -130.5t-115.5 -49.5zM216 422q45 0 77.5 36.5 t32.5 102.5q0 67 -32.5 103.5t-77.5 36.5q-46 0 -78 -35.5t-32 -104.5q0 -67 32 -103t78 -36zM216 382q-71 0 -116 49t-45 131t45.5 130.5t115.5 48.5t115.5 -48.5t45.5 -130.5q0 -81 -45.5 -130.5t-115.5 -49.5zM134 -40l554 821h52l-554 -821h-52z"/>
<glyph glyph-name="ampersand" horiz-adv-x="669" unicode="&amp;" d="M654 -3h-19q-44 0 -75 19.5t-69 65.5q-70 -98 -221 -98q-102 0 -162.5 51.5t-60.5 137.5q0 66 39 119.5t134 121.5q-35 43 -51.5 66t-29.5 57.5t-13 74.5q0 75 50 123.5t127 48.5q78 0 121 -42.5t43 -105.5q0 -60 -40.5 -109.5t-136.5 -118.5l140 -170q55 -68 57 -70 q25 67 25 193h47q-4 -147 -41 -231q51 -62 72 -75.5t64 -13.5v-44zM249 380l-6 -4q-76 -54 -109 -100.5t-33 -102.5q0 -43 16.5 -73.5t43.5 -45.5t54 -21.5t55 -6.5q134 0 193 91q-7 8 -26 32t-31 39zM178 616q0 -47 16.5 -80t67.5 -95q87 62 119 100.5t32 90.5 q0 46 -29 77.5t-83 31.5t-88.5 -35.5t-34.5 -89.5z"/>
<glyph glyph-name="quotesingle" horiz-adv-x="164" unicode="&apos;" d="M64 572l-14 193h64l-11 -193h-39z"/>
<glyph glyph-name="parenleft" horiz-adv-x="277" unicode="(" d="M240 -130h-47q-56 117 -87 222t-31 237q0 93 19.5 183t41 144.5t57.5 131.5h47q-1 -3 -18.5 -44.5t-20.5 -50t-17 -47t-18 -55.5t-13.5 -54t-12.5 -64.5t-6.5 -66t-3.5 -77.5t3 -77t6.5 -66t12.5 -64t13.5 -54.5t18 -55.5t17.5 -47.5t20.5 -49.5t18.5 -45z"/>
<glyph glyph-name="parenright" horiz-adv-x="277" unicode=")" d="M37 -130q1 3 18.5 44.5t20.5 50t17 47t18 55.5t13.5 54t12.5 64.5t6.5 66t3.5 77.5t-3 77t-6.5 66t-12.5 64t-13.5 54.5t-18 55.5t-17.5 47.5t-20.5 49.5t-18.5 45h47q56 -117 87 -222t31 -237q0 -93 -19.5 -183t-41 -144.5t-57.5 -131.5h-47z"/>
<glyph glyph-name="asterisk" horiz-adv-x="444" unicode="*" d="M224 569h-2l-92 -142l-46 35l111 125v2l-155 44l21 52l144 -66l2 1l-12 168h56l-13 -167l2 -1l144 64l20 -49l-154 -45v-2l112 -125l-47 -36z"/>
<glyph glyph-name="plus" horiz-adv-x="633" unicode="+" d="M338 335v-200h-45v200h-203v45h203v199h45v-199h204v-45h-204z"/>
<glyph glyph-name="comma" horiz-adv-x="198" unicode="," d="M33 -117l48 215h70l-75 -215h-43z"/>
<glyph glyph-name="hyphen" horiz-adv-x="410" unicode="-" d="M60 316v46h290v-46h-290z"/>
<glyph glyph-name="period" horiz-adv-x="214" unicode="." d="M70 0v74h74v-74h-74z"/>
<glyph glyph-name="slash" horiz-adv-x="552" unicode="/" d="M10 -130l454 918h54l-454 -918h-54z"/>
<glyph glyph-name="zero" horiz-adv-x="653" unicode="0" d="M326 26q93 0 149 93t56 249q0 162 -54 251t-151 89q-96 0 -150 -87.5t-54 -252.5q0 -159 54.5 -250.5t149.5 -91.5zM67 368q0 189 69 286.5t190 97.5q119 0 189.5 -98.5t70.5 -285.5q0 -188 -69.5 -286t-190.5 -98q-120 0 -189.5 98.5t-69.5 285.5z"/>
<glyph glyph-name="one" horiz-adv-x="421" unicode="1" d="M217 0v587h-152v45h35q45 0 66.5 3t33.5 15q14 12 18 32t6 63h46v-745h-53z"/>
<glyph glyph-name="two" horiz-adv-x="601" unicode="2" d="M136 528h-54q-1 103 65 163.5t163 60.5q110 0 165.5 -56t55.5 -136q0 -76 -33.5 -131.5t-118.5 -136.5l-254 -242v-2h414v-48h-479v53l260 250q49 47 69 67.5t45 54.5t33.5 64.5t8.5 70.5q0 67 -44.5 107.5t-119.5 40.5q-74 0 -125 -47t-51 -133z"/>
<glyph glyph-name="three" horiz-adv-x="615" unicode="3" d="M315 354h-34v47h34q79 0 119 47t40 110q0 68 -42 109t-117 41q-77 0 -123 -45t-49 -136h-49q-2 97 57.5 161t165.5 64q94 0 152.5 -50.5t58.5 -138.5q0 -75 -41 -121.5t-90 -61.5v-1q62 -15 107 -58t45 -128q0 -88 -67.5 -148t-172.5 -60q-123 0 -180.5 62.5t-57.5 155.5 h49q5 -85 55 -129.5t139 -44.5q78 0 129 46t51 116q0 80 -51.5 121.5t-127.5 41.5z"/>
<glyph glyph-name="four" horiz-adv-x="591" unicode="4" d="M553 191h-108v-191h-53v191h-360v45l365 505h48v-502h108v-48zM90 238h303v424h-2q-16 -31 -50 -77z"/>
<glyph glyph-name="five" horiz-adv-x="610" unicode="5" d="M488 233q0 100 -51.5 148.5t-130.5 48.5q-106 0 -164 -75h-44l36 386h373v-48h-327l-26 -276h2q21 25 63 43t93 18q44 0 82 -11.5t73 -38t55 -76t20 -118.5q0 -119 -67 -184t-176 -65q-108 0 -168 62.5t-65 155.5h51q9 -81 59 -127.5t123 -46.5q33 0 64 10.5t60.5 32.5 t47 63.5t17.5 97.5z"/>
<glyph glyph-name="six" horiz-adv-x="614" unicode="6" d="M317 28q76 0 132 50t56 148q0 94 -51 146t-133 52q-83 0 -135 -49.5t-52 -141.5q0 -94 54.5 -149.5t128.5 -55.5zM535 592h-52q-9 54 -46 85.5t-103 31.5q-57 0 -99 -30t-65.5 -83.5t-34.5 -116.5t-12 -140h2q22 65 76.5 99t127.5 34q94 0 162 -61t68 -178 q0 -113 -66.5 -181t-179.5 -68q-111 0 -176.5 86t-65.5 242q0 440 263 440q90 0 142 -42.5t59 -117.5z"/>
<glyph glyph-name="seven" horiz-adv-x="533" unicode="7" d="M113 0l319 693h-387v48h447v-37l-323 -704h-56z"/>
<glyph glyph-name="eight" horiz-adv-x="601" unicode="8" d="M300 26q80 0 133.5 42t53.5 121q0 81 -56 127.5t-131 46.5t-131 -46.5t-56 -127.5q0 -80 53.5 -121.5t133.5 -41.5zM300 708q-71 0 -118 -37t-47 -114q0 -75 48 -113t117 -38q68 0 116.5 38t48.5 113q0 76 -48 113.5t-117 37.5zM82 556q0 86 58.5 141t159.5 55t159.5 -55 t58.5 -141q0 -67 -39.5 -111t-97.5 -59v-2q62 -10 110.5 -61.5t48.5 -132.5q0 -91 -65 -148.5t-175 -57.5q-111 0 -175.5 57.5t-64.5 148.5q0 82 50.5 132.5t109.5 61.5v2q-59 15 -98.5 60t-39.5 110z"/>
<glyph glyph-name="nine" horiz-adv-x="603" unicode="9" d="M75 144h52q9 -50 49.5 -83.5t100.5 -33.5q116 0 160 90.5t46 287.5h-3q-21 -62 -73.5 -95.5t-120.5 -33.5q-93 0 -160.5 61t-67.5 178q0 104 65.5 169.5t173.5 65.5q239 0 239 -326q0 -235 -59.5 -337.5t-197.5 -102.5q-84 0 -138.5 42.5t-65.5 117.5zM296 708 q-75 0 -129.5 -48.5t-54.5 -143.5q0 -91 50 -141.5t129 -50.5q81 0 131 48.5t50 136.5q0 92 -50 145.5t-126 53.5z"/>
<glyph glyph-name="colon" horiz-adv-x="254" unicode=":" d="M164 0h-74v74h74v-74zM90 408v74h74v-74h-74z"/>
<glyph glyph-name="semicolon" horiz-adv-x="241" unicode=";" d="M76 -117h-43l48 215h70zM77 408v74h74v-74h-74z"/>
<glyph glyph-name="less" horiz-adv-x="633" unicode="&lt;" d="M541 92l-452 216v45l452 218v-53l-395 -187l395 -186v-53z"/>
<glyph glyph-name="equal" horiz-adv-x="633" unicode="=" d="M543 253h-453v48h453v-48zM90 418v48h453v-48h-453z"/>
<glyph glyph-name="greater" horiz-adv-x="633" unicode="&gt;" d="M92 558l452 -216v-43l-452 -218v52l395 187l-395 186v52z"/>
<glyph glyph-name="question" horiz-adv-x="534" unicode="?" d="M302 0h-75v74h75v-74zM441 606q0 70 -44.5 108.5t-125.5 38.5t-130 -51.5t-49 -140.5v-7h-49v9q0 110 65 172t167 62q108 0 163.5 -53t55.5 -132q0 -68 -25 -109.5t-82 -94.5l-48 -45q-24 -23 -32 -32.5t-14 -28.5t-6 -53v-61h-48v61q0 63 15 89.5t71 75.5l42 37 q74 64 74 155z"/>
<glyph glyph-name="at" horiz-adv-x="1009" unicode="@" d="M457 105q59 0 103.5 49.5t57.5 127.5l2 12q4 28 4 43q0 54 -25 89.5t-79 35.5q-55 0 -93.5 -36t-54.5 -86.5t-16 -109.5q0 -125 101 -125zM735 62q-115 0 -125 99h-3q-26 -54 -69.5 -80t-91.5 -26q-73 0 -111 45t-38 117q0 126 61.5 210t161.5 84q48 0 81 -26t44 -65h3 l13 75h52l-55 -278q-4 -17 -4 -38q0 -76 85 -76q58 0 110.5 61t52.5 183q0 153 -105.5 252.5t-281.5 99.5q-178 0 -295.5 -124.5t-117.5 -310.5q0 -184 110 -294t285 -110q167 0 281 89l24 -32q-124 -100 -311 -100q-196 0 -319 123.5t-123 323.5q0 205 133.5 340t333.5 135 q196 0 314 -108t118 -283q0 -79 -23.5 -138.5t-59.5 -89.5t-69 -44t-61 -14z"/>
<glyph glyph-name="A" horiz-adv-x="713" unicode="A" d="M622 0l-100 267h-333l-101 -267h-53l291 765h63l289 -765h-56zM356 715q-4 -18 -32 -93l-118 -310h299l-116 311l-31 92h-2z"/>
<glyph glyph-name="B" horiz-adv-x="721" unicode="B" d="M174 47h206q218 0 218 169q0 82 -52.5 125.5t-136.5 43.5h-235v-338zM174 432h235q169 0 169 143q0 70 -44.5 106.5t-117.5 36.5h-242v-286zM385 0h-265v765h296q95 0 156 -46.5t61 -133.5q0 -72 -38 -118.5t-107 -57.5v-2q78 -12 122 -63t44 -123q0 -114 -73 -167.5 t-196 -53.5z"/>
<glyph glyph-name="C" horiz-adv-x="767" unicode="C" d="M405 733q-135 0 -206.5 -98.5t-71.5 -255.5q0 -161 73.5 -256t210.5 -95q107 0 162 52.5t64 128.5h52q-8 -101 -85.5 -163t-202.5 -62q-148 0 -239.5 99t-91.5 296q0 186 95 292t240 106q51 0 97 -12t87 -37.5t67.5 -70.5t32.5 -105h-52q-9 76 -65 128.5t-167 52.5z"/>
<glyph glyph-name="D" horiz-adv-x="786" unicode="D" d="M174 47h183q307 0 307 339q0 88 -24 154t-66.5 104t-96.5 56t-120 18h-183v-671zM120 0v765h241q158 0 258.5 -93.5t100.5 -282.5q0 -194 -101 -291.5t-258 -97.5h-241z"/>
<glyph glyph-name="E" horiz-adv-x="680" unicode="E" d="M120 0v765h487v-47h-433v-302h393v-46h-393v-323h436v-47h-490z"/>
<glyph glyph-name="F" horiz-adv-x="610" unicode="F" d="M174 340v-340h-54v765h440v-47h-386v-332h348v-46h-348z"/>
<glyph glyph-name="G" d="M408 733q-132 0 -207.5 -98t-75.5 -261q0 -160 76 -253.5t209 -93.5q113 0 180 66t67 165v65h-244v48h297v-371h-51v129h-2q-65 -145 -254 -145q-68 0 -126 21.5t-105.5 67t-74.5 123.5t-27 183q0 189 94.5 293t243.5 104q121 0 197 -59t91 -155h-55q-17 79 -79.5 125 t-153.5 46z" unicode="G"/>
<glyph glyph-name="H" horiz-adv-x="800" unicode="H" d="M174 370v-370h-54v765h54v-349h452v349h54v-765h-54v370h-452z"/>
<glyph glyph-name="I" horiz-adv-x="294" unicode="I" d="M120 0v765h54v-765h-54z"/>
<glyph glyph-name="J" horiz-adv-x="422" unicode="J" d="M62 0h-37v46h30q119 0 161 42.5t42 156.5v520h54v-532q0 -119 -58 -176t-192 -57z"/>
<glyph glyph-name="K" horiz-adv-x="715" unicode="K" d="M174 275v-275h-54v765h54v-429l427 429h69l-322 -324l342 -441h-65l-316 410z"/>
<glyph glyph-name="L" horiz-adv-x="626" unicode="L" d="M120 0v765h54v-718h407v-47h-461z"/>
<glyph glyph-name="M" horiz-adv-x="982" unicode="M" d="M120 0v765h64l283 -640l25 -61h2q12 34 24 61l283 640h61v-765h-53v663h-4q-13 -40 -31 -81l-262 -582h-42l-261 582l-33 81h-5l1 -663h-52z"/>
<glyph glyph-name="N" horiz-adv-x="805" unicode="N" d="M120 0v765h63l417 -638l30 -51h2v689h53v-765h-65l-412 634l-33 55h-2v-689h-53z"/>
<glyph glyph-name="O" d="M405 27q125 0 202.5 91t77.5 261q0 171 -77.5 262.5t-202.5 91.5t-202.5 -91.5t-77.5 -262.5q0 -170 77.5 -261t202.5 -91zM70 379q0 101 27.5 179.5t75 124.5t106 69.5t126.5 23.5t126.5 -23.5t106 -69.5t75 -124.5t27.5 -179.5t-27.5 -179t-75 -124t-106 -69 t-126.5 -23t-126.5 23t-106 69t-75 124t-27.5 179z" unicode="O"/>
<glyph glyph-name="P" horiz-adv-x="652" unicode="P" d="M174 356h176q85 0 139 45t54 139q0 84 -51 131t-142 47h-176v-362zM346 313h-172v-313h-54v765h226q122 0 186.5 -59.5t64.5 -161.5q0 -105 -64.5 -168t-186.5 -63z"/>
<glyph glyph-name="Q" d="M405 27q127 0 203.5 90.5t76.5 261.5t-77.5 262.5t-202.5 91.5t-202.5 -91.5t-77.5 -262.5q0 -170 77.5 -261t202.5 -91zM70 379q0 101 27.5 179.5t75 124.5t106 69.5t126.5 23.5t126.5 -23.5t106 -69.5t75 -124.5t27.5 -179.5q0 -243 -150 -336v-4q62 -6 97.5 -27 t68.5 -67l-44 -33q-33 49 -69.5 69t-99.5 20q-15 0 -59.5 -7.5t-78.5 -7.5q-68 0 -126.5 22.5t-106 68.5t-75 123.5t-27.5 178.5z" unicode="Q"/>
<glyph glyph-name="R" horiz-adv-x="720" unicode="R" d="M588 0l-173 327h-241v-327h-54v765h271q91 0 152 -34q98 -56 98 -177q0 -85 -46.5 -142t-122.5 -75v-2l178 -335h-62zM174 372h221q84 0 138 45t54 136q0 79 -50.5 122t-141.5 43h-221v-346z"/>
<glyph glyph-name="S" horiz-adv-x="710" unicode="S" d="M614 562h-52q-13 170 -198 170q-90 0 -146 -41t-56 -118q0 -65 34.5 -99.5t115.5 -47.5l144 -25q184 -30 184 -189q0 -101 -73.5 -164.5t-202.5 -63.5q-131 0 -204 66t-80 162h51q10 -76 66 -130t167 -54t166.5 51t55.5 128q0 61 -31.5 95.5t-106.5 47.5l-136 24 q-110 19 -157 67t-47 132q0 94 72.5 148.5t183.5 54.5q120 0 183.5 -56t66.5 -158z"/>
<glyph glyph-name="T" horiz-adv-x="650" unicode="T" d="M634 765v-46h-282v-719h-54v719h-282v46h618z"/>
<glyph glyph-name="U" horiz-adv-x="766" unicode="U" d="M105 255v510h54v-432v-11q0 -52 1.5 -83.5t11.5 -72.5t30 -66q56 -72 184 -72q123 0 180 73q19 25 29 66t11.5 72t1.5 83v11v432h53v-510q0 -139 -73.5 -204.5t-204.5 -65.5t-204.5 65.5t-73.5 204.5z"/>
<glyph glyph-name="V" horiz-adv-x="687" unicode="V" d="M315 0l-289 765h56l233 -623l27 -83h2q10 37 28 84l236 622h53l-291 -765h-55z"/>
<glyph glyph-name="W" horiz-adv-x="1027" unicode="W" d="M307 0h-53l-222 765h53l179 -617l17 -69h2q5 31 16 69l179 617h68l178 -616l19 -73h2q8 39 18 72l179 617h53l-222 -765h-59l-170 593l-31 117h-3q-10 -39 -32 -115z"/>
<glyph glyph-name="X" horiz-adv-x="694" unicode="X" d="M50 0l262 396l-245 369h63l212 -325h2l212 325h58l-241 -364l271 -401h-64l-236 357h-2l-233 -357h-59z"/>
<glyph glyph-name="Y" horiz-adv-x="630" unicode="Y" d="M289 0v341l-275 424h61l240 -375h2l241 375h58l-274 -422v-343h-53z"/>
<glyph glyph-name="Z" horiz-adv-x="652" unicode="Z" d="M68 720v45h534v-42l-496 -678h491v-45h-553v42l496 678h-472z"/>
<glyph glyph-name="bracketleft" horiz-adv-x="333" unicode="[" d="M117 -134v926h193v-41h-141v-844h141v-41h-193z"/>
<glyph glyph-name="backslash" horiz-adv-x="552" unicode="\" d="M488 -130l-454 918h54l454 -918h-54z"/>
<glyph glyph-name="bracketright" horiz-adv-x="333" unicode="]" d="M216 792v-926h-193v41h141v844h-141v41h193z"/>
<glyph glyph-name="asciicircum" horiz-adv-x="408" unicode="^" d="M230 788l166 -282h-58l-134 234h-1l-138 -234h-53l169 282h49z"/>
<glyph glyph-name="underscore" horiz-adv-x="400" unicode="_" d="M-2 -188v40h404v-40h-404z"/>
<glyph glyph-name="grave" horiz-adv-x="369" unicode="`" d="M170 788l73 -154h-45l-85 154h57z"/>
<glyph glyph-name="a" horiz-adv-x="552" unicode="a" d="M137 387h-50q0 62 49.5 105t132.5 43q56 0 93.5 -16t55.5 -46t24.5 -60t6.5 -69v-238q0 -39 13 -55t40 -16v-41h-8q-50 0 -71.5 26.5t-22.5 84.5h-2q-26 -54 -73 -83.5t-108 -29.5q-70 0 -113.5 38.5t-43.5 106.5q0 83 67 123q34 20 96 29.5t176 17.5v41q0 144 -130 144 q-60 0 -94 -28.5t-38 -76.5zM228 35q67 0 118.5 53.5t51.5 144.5v31q-115 -8 -167 -16.5t-75 -24.5q-42 -30 -42 -85q0 -50 31 -76.5t83 -26.5z"/>
<glyph glyph-name="b" horiz-adv-x="600" unicode="b" d="M318 31q82 0 125.5 61.5t43.5 168.5q0 102 -39.5 166t-125.5 64q-82 0 -126 -52.5t-44 -124.5v-103q0 -70 43 -125t123 -55zM100 0v788h53v-358h1q51 105 177 105q89 0 150 -66.5t61 -207.5q0 -135 -63.5 -204.5t-160.5 -69.5q-61 0 -104.5 31t-62.5 76h-2v-94h-49z"/>
<glyph glyph-name="c" horiz-adv-x="526" unicode="c" d="M481 386h-53q-6 43 -42.5 74t-97.5 31q-81 0 -127.5 -60t-46.5 -169q0 -231 170 -231q66 0 98.5 33t45.5 89h53q-13 -81 -66 -123.5t-133 -42.5q-110 0 -167 72t-57 197q0 122 61 201t167 79q73 0 128.5 -36.5t66.5 -113.5z"/>
<glyph glyph-name="d" horiz-adv-x="600" unicode="d" d="M500 788v-788h-49v94h-3q-50 -107 -167 -107q-41 0 -77.5 13t-70.5 42t-54.5 85t-20.5 132q0 131 60 203.5t163 72.5q58 0 101 -27.5t63 -77.5h2v358h53zM448 211v103q0 71 -43.5 124t-118.5 53q-85 0 -129 -63t-44 -165q0 -109 42 -170.5t126 -61.5q81 0 124 55t43 125z "/>
<glyph glyph-name="e" horiz-adv-x="541" unicode="e" d="M477 125q-15 -60 -66 -99t-125 -39q-228 0 -228 269q0 125 59.5 202t166.5 77q55 0 95.5 -21t63 -57t33 -77t10.5 -87v-42l-375 -1q5 -220 176 -220q33 0 60 10.5t43 27.5t24.5 30.5t13.5 26.5h49zM434 290v5q0 33 -6 63.5t-21 62.5t-46.5 51.5t-76.5 19.5 q-79 0 -122.5 -55t-49.5 -147h322z"/>
<glyph glyph-name="f" horiz-adv-x="336" unicode="f" d="M179 479v-479h-53v479h-107v43h107v143q0 57 36.5 91.5t97.5 34.5q25 0 51 -5v-45q-22 5 -51 5q-81 0 -81 -94v-130h139v-43h-139z"/>
<glyph glyph-name="g" horiz-adv-x="605" unicode="g" d="M285 -199q-85 0 -138 40.5t-63 100.5h53q7 -40 47 -70t103 -30q69 0 117.5 42t48.5 135v86h-2q-53 -105 -180 -105q-38 0 -73 13.5t-68 43t-52.5 84t-19.5 127.5q0 128 63 197.5t166 69.5q61 0 104.5 -31.5t62.5 -75.5h2v94h49v-494q0 -111 -61 -169t-159 -58zM453 222 v89q0 70 -44 125t-128 55q-82 0 -125 -61.5t-43 -161.5q0 -101 41.5 -162.5t129.5 -61.5q80 0 124.5 53t44.5 125z"/>
<glyph glyph-name="h" horiz-adv-x="587" unicode="h" d="M436 0v336q0 77 -26 114q-28 39 -92 39q-81 0 -123 -55t-42 -130v-304h-53v788h53v-362h2q20 49 64 79t108 30q88 0 125 -47.5t37 -139.5v-348h-53z"/>
<glyph glyph-name="i" horiz-adv-x="253" unicode="i" d="M100 0v522h53v-522h-53zM97 660v64h60v-64h-60z"/>
<glyph glyph-name="j" horiz-adv-x="253" unicode="j" d="M24 -195q-25 0 -51 5v45q22 -5 51 -5q42 0 59 23t17 75v574h53v-586q0 -63 -34 -97t-95 -34zM96 660v64h60v-64h-60z"/>
<glyph glyph-name="k" horiz-adv-x="541" unicode="k" d="M153 177v-177h-53v788h53v-545l255 279h65l-182 -197l218 -325h-63l-192 287z"/>
<glyph glyph-name="l" horiz-adv-x="253" unicode="l" d="M100 0v788h53v-788h-53z"/>
<glyph glyph-name="m" horiz-adv-x="923" unicode="m" d="M100 0v522h49v-96h2q23 49 68 79t108 30q129 0 154 -116h2q24 53 70 84.5t110 31.5q88 0 125 -47.5t37 -139.5v-348h-53v335q0 78 -26 115q-28 39 -92 39q-81 0 -123 -54.5t-42 -130.5v-304h-53v337q0 76 -26 113q-28 39 -92 39q-81 0 -123 -54t-42 -131v-304h-53z"/>
<glyph glyph-name="n" horiz-adv-x="587" unicode="n" d="M436 0v336q0 77 -26 114q-28 39 -92 39q-81 0 -123 -54t-42 -131v-304h-53v522h49v-96h2q23 49 68 79t108 30q88 0 125 -47.5t37 -139.5v-348h-53z"/>
<glyph glyph-name="o" horiz-adv-x="564" unicode="o" d="M283 492q-81 0 -126 -62.5t-45 -168.5q0 -108 43 -169.5t128 -61.5q82 0 125 61.5t43 169.5t-42 169.5t-126 61.5zM283 -13q-113 0 -169 74.5t-56 199.5q0 119 60 196.5t165 77.5q113 0 168 -75.5t55 -198.5q0 -122 -58.5 -198t-164.5 -76z"/>
<glyph glyph-name="p" horiz-adv-x="600" unicode="p" d="M100 -188v710h49v-98h2q54 111 180 111q90 0 150.5 -64t60.5 -205q0 -135 -64.5 -207t-160.5 -72q-59 0 -102.5 32.5t-59.5 75.5h-2v-283h-53zM152 216q0 -73 42.5 -129t122.5 -56q82 0 126 64t44 171q0 101 -39.5 163t-125.5 62q-81 0 -125.5 -54t-44.5 -130v-91z"/>
<glyph glyph-name="q" horiz-adv-x="600" unicode="q" d="M281 31q81 0 124 55t43 125v103q0 71 -43.5 124t-118.5 53q-85 0 -129 -63t-44 -165q0 -109 42 -170.5t126 -61.5zM500 522v-710h-53v278h-3q-20 -43 -61 -73t-102 -30q-41 0 -77.5 13t-70.5 42t-54.5 85t-20.5 132q0 131 60 203.5t163 72.5q60 0 104.5 -27.5t63.5 -80.5 h2v95h49z"/>
<glyph glyph-name="r" horiz-adv-x="368" unicode="r" d="M100 0v522h49v-117h2q15 52 60.5 89.5t102.5 37.5h9v-50h-11q-63 0 -111 -48.5t-48 -146.5v-287h-53z"/>
<glyph glyph-name="s" horiz-adv-x="508" unicode="s" d="M443 401h-52q-8 42 -43 66.5t-91 24.5q-58 0 -93.5 -29t-35.5 -72q0 -79 85 -90l103 -14q67 -9 102 -46t35 -92q0 -72 -54 -117t-142 -45q-180 0 -205 158h52q22 -115 153 -115q65 0 104 32t39 80q0 41 -22 65t-77 31l-90 12q-134 18 -134 135q0 68 51 109t129 41 q79 0 129 -35.5t57 -98.5z"/>
<glyph glyph-name="t" horiz-adv-x="361" unicode="t" d="M131 681h51v-159h137v-43h-137v-360q0 -43 20.5 -63t65.5 -20q15 0 30.5 2t23.5 4l9 2v-45q-25 -8 -72 -8q-130 0 -130 125v363h-104v42h29q48 0 62.5 18t14.5 86v56z"/>
<glyph glyph-name="u" horiz-adv-x="585" unicode="u" d="M151 522v-345q0 -71 25 -106q30 -39 99 -39q76 0 116.5 58t40.5 151v281h53v-522h-49v102h-2q-22 -51 -64.5 -83t-104.5 -32q-88 0 -127.5 46.5t-39.5 137.5v351h53z"/>
<glyph glyph-name="v" horiz-adv-x="477" unicode="v" d="M210 0l-180 522h54l133 -389l22 -70h2q11 37 22 70l133 389h51l-180 -522h-57z"/>
<glyph glyph-name="w" horiz-adv-x="806" unicode="w" d="M260 0h-60l-166 522h54l129 -414l14 -47h2q7 24 15 48l128 413h57l130 -413l14 -48h2l12 48l128 413h53l-167 -522h-59l-120 380l-22 77h-2q-10 -40 -22 -77z"/>
<glyph glyph-name="x" horiz-adv-x="483" unicode="x" d="M22 0l189 271l-176 251h61l145 -209h2l144 209h58l-172 -250l192 -272h-61l-161 231h-2l-158 -231h-61z"/>
<glyph glyph-name="y" horiz-adv-x="472" unicode="y" d="M211 -1l-181 523h55l130 -383l22 -70h2q11 38 22 70l130 383h51l-197 -571q-29 -85 -64 -117.5t-96 -32.5q-25 0 -63 11v45q34 -12 63 -12q43 0 66 23.5t40 73.5z"/>
<glyph glyph-name="z" horiz-adv-x="498" unicode="z" d="M61 477v45h384v-45l-342 -431h350v-46h-408v46l340 431h-324z"/>
<glyph glyph-name="braceleft" horiz-adv-x="318" unicode="{" d="M40 305h-21v50h21q48 0 68 18.5t20 62.5v235q0 64 39 92.5t128 28.5v-41q-76 0 -95.5 -22.5t-19.5 -89.5v-190q0 -22 -2.5 -38.5t-9 -34.5t-22 -29.5t-38.5 -15.5v-4q72 -10 72 -115v-193q0 -67 19.5 -89.5t95.5 -22.5v-41q-90 0 -128.5 29.5t-38.5 97.5v231 q0 44 -20 62.5t-68 18.5z"/>
<glyph glyph-name="bar" horiz-adv-x="289" unicode="|" d="M120 -130v918h49v-918h-49z"/>
<glyph glyph-name="braceright" horiz-adv-x="318" unicode="}" d="M299 353v-50h-21q-49 0 -68.5 -18.5t-19.5 -62.5v-235q0 -64 -38.5 -92.5t-128.5 -28.5v41q76 0 95.5 22.5t19.5 89.5v191q0 106 72 117v4q-72 10 -72 115v193q0 67 -19.5 89.5t-95.5 22.5v41q90 0 128.5 -29.5t38.5 -97.5v-231q0 -44 19.5 -62.5t68.5 -18.5h21z"/>
<glyph glyph-name="asciitilde" horiz-adv-x="379" unicode="~" d="M13 312q-1 50 25 81.5t71 31.5q36 0 88 -36t74 -36q52 0 55 73h38q1 -50 -25 -81.5t-71 -31.5q-36 0 -88 36t-74 36q-52 0 -55 -73h-38z"/>
<glyph glyph-name="uni00A0" horiz-adv-x="205" unicode=" "/>
<glyph glyph-name="exclamdown" horiz-adv-x="277" unicode="¡" d="M101 664h75v-74h-75v74zM160 476l5 -600h-53l6 600h42z"/>
<glyph glyph-name="cent" horiz-adv-x="526" unicode="¢" d="M258 33v456q-68 -11 -106 -70t-38 -157q0 -212 144 -229zM428 153h53q-12 -75 -58.5 -117t-117.5 -48v-104h-47v104q-99 8 -149.5 79t-50.5 189q0 114 53 191t147 87v101h47v-100q67 -4 116 -40.5t60 -108.5h-53q-6 40 -37.5 70t-85.5 34v-458q97 10 123 121z"/>
<glyph glyph-name="sterling" horiz-adv-x="615" unicode="£" d="M555 48v-48h-470v53l47 40q74 62 74 127q0 43 -29 115h-128v43h109l-21 47q-30 69 -30 131q0 90 61 143t159 53q216 0 219 -211h-51q-2 36 -9.5 63t-25 52.5t-51 39t-82.5 13.5q-76 0 -121 -40t-45 -110q0 -51 27 -116l28 -65h240v-43h-222q24 -67 24 -114 q0 -44 -20 -77.5t-61 -65.5l-36 -28v-2h414z"/>
<glyph glyph-name="currency" horiz-adv-x="633" unicode="¤" d="M316 209q56 0 95 39.5t39 97.5t-39 97.5t-95 39.5t-95 -39.5t-39 -97.5t39 -97.5t95 -39.5zM142 346q0 61 36 106l-66 67l32 31l66 -66q47 36 106 36q60 0 105 -36l64 64l32 -32l-64 -64q37 -47 37 -106t-36 -106l66 -66l-31 -32l-67 66q-45 -36 -106 -36q-60 0 -107 36 l-63 -63l-32 32l63 63q-35 48 -35 106z"/>
<glyph glyph-name="yen" horiz-adv-x="628" unicode="¥" d="M289 0v185h-221v43h221v100h-223v43h209l-240 370h61l218 -341h2l219 341h58l-240 -370h204v-43h-217v-100h219v-43h-219v-185h-51z"/>
<glyph glyph-name="brokenbar" horiz-adv-x="289" unicode="¦" d="M169 -130h-49v453h49v-453zM169 788v-399h-49v399h49z"/>
<glyph glyph-name="section" horiz-adv-x="513" unicode="§" d="M40 360q0 46 28.5 80t73.5 51v2q-36 45 -36 99q0 65 47 107t126 42q72 0 116.5 -42t44.5 -115h-52q-8 111 -113 111q-55 0 -86 -29t-31 -73q0 -35 17 -58.5t54 -43.5l155 -83q97 -52 97 -141q0 -47 -28 -82t-74 -54v-2q41 -42 41 -103q0 -62 -45 -101t-131 -39 q-91 0 -136 45t-47 120h51q9 -121 132 -121q63 0 93 29t30 74q0 36 -20.5 58t-67.5 48l-132 71q-57 31 -82 62.5t-25 87.5zM94 363q0 -67 80 -108l119 -63q36 -19 53 -33q82 27 82 101q0 36 -19.5 61t-61.5 47l-120 63q-28 14 -52 33q-35 -11 -58 -37t-23 -64z"/>
<glyph glyph-name="dieresis" horiz-adv-x="369" unicode="¨" d="M55 653v73h68v-73h-68zM244 653v73h69v-73h-69z"/>
<glyph glyph-name="copyright" horiz-adv-x="899" unicode="©" d="M609 302q-7 -61 -48.5 -93.5t-107.5 -32.5q-88 0 -133.5 54t-45.5 148q0 92 49 151.5t134 59.5q62 0 104.5 -29t47.5 -86h-44q-5 34 -31 55.5t-76 21.5q-65 0 -102 -43.5t-37 -124.5q0 -85 32.5 -127.5t104.5 -42.5q98 0 110 89h43zM449 18q150 0 251 104t101 258 t-101 258.5t-251 104.5q-151 0 -251 -104.5t-100 -258.5t100 -258t251 -104zM55 380q0 169 112.5 283t281.5 114t282 -114t113 -283q0 -168 -113 -282t-282 -114t-281.5 113.5t-112.5 282.5z"/>
<glyph glyph-name="ordfeminine" horiz-adv-x="442" unicode="ª" d="M111 624h-47q1 54 42.5 90.5t107.5 36.5q146 0 146 -163v-179q0 -29 9 -41.5t33 -12.5v-41h-2q-46 0 -65 20.5t-21 60.5h-3q-48 -85 -138 -85q-60 0 -93.5 31.5t-33.5 88.5q0 71 62 102q20 10 56 17.5t63 10.5t87 8v29q0 113 -104 113q-44 0 -70 -24.5t-29 -61.5z M179 352q64 0 99.5 46t35.5 118v14q-87 -8 -130 -15.5t-62 -23.5q-25 -20 -25 -58q0 -39 22 -60t60 -21z"/>
<glyph glyph-name="guillemotleft" horiz-adv-x="496" unicode="«" d="M177 464h55l-115 -204l116 -203h-55l-118 203zM363 464h57l-117 -204l118 -203h-57l-116 203z"/>
<glyph glyph-name="logicalnot" horiz-adv-x="629" unicode="¬" d="M542 135h-45v200h-407v45h452v-245z"/>
<glyph glyph-name="registered" horiz-adv-x="533" unicode="®" d="M226 545v-93h-35v225h84q33 0 55.5 -15.5t22.5 -47.5q0 -55 -50 -65l53 -97h-41l-49 93h-40zM226 576h49q42 0 42 37q0 16 -11 25t-30 9h-50v-71zM266 371q77 0 128 53t51 133t-51 133.5t-128 53.5t-127.5 -53.5t-50.5 -133.5t50.5 -133t127.5 -53zM50 557q0 93 61.5 156 t154.5 63t155 -63t62 -156t-62 -155.5t-155 -62.5t-154.5 62.5t-61.5 155.5z"/>
<glyph glyph-name="macron" horiz-adv-x="369" unicode="¯" d="M51 660v45h265v-45h-265z"/>
<glyph glyph-name="degree" horiz-adv-x="445" unicode="°" d="M222 472q49 0 80 34.5t31 87.5t-31 88t-80 35q-48 0 -79 -35t-31 -88t31 -87.5t79 -34.5zM62 594q0 68 45.5 114t114.5 46q70 0 115.5 -46t45.5 -114t-45.5 -113.5t-115.5 -45.5q-69 0 -114.5 45.5t-45.5 113.5z"/>
<glyph glyph-name="plusminus" horiz-adv-x="633" unicode="±" d="M90 0v45h452v-45h-452zM338 335v-200h-45v200h-203v45h203v199h45v-199h204v-45h-204z"/>
<glyph glyph-name="twosuperior" horiz-adv-x="391" unicode="²" d="M344 435h-305v37l163 140q53 45 70 72.5t17 64.5q0 38 -24 60.5t-65 22.5q-42 0 -70 -26t-31 -81h-48q0 70 42 108t106 38q70 0 106 -34.5t36 -84.5q0 -43 -21 -79t-76 -82l-134 -113v-1h234v-42z"/>
<glyph glyph-name="threesuperior" horiz-adv-x="400" unicode="³" d="M210 632h-45v43h45q37 0 59 22.5t22 56.5q0 35 -24.5 56.5t-64.5 21.5q-43 0 -69.5 -22.5t-28.5 -67.5h-48q0 55 38.5 92t108.5 37q64 0 101.5 -31.5t37.5 -82.5q0 -36 -22.5 -62.5t-58.5 -37.5v-1q41 -8 67.5 -34t26.5 -73q0 -52 -42.5 -87.5t-113.5 -35.5 q-75 0 -112.5 36.5t-39.5 92.5h48q5 -44 33.5 -66.5t74.5 -22.5q43 0 72 23t29 60q0 42 -26.5 62.5t-67.5 20.5z"/>
<glyph glyph-name="acute" horiz-adv-x="369" unicode="´" d="M126 634l70 154h59l-85 -154h-44z"/>
<glyph glyph-name="paragraph" horiz-adv-x="550" unicode="¶" d="M238 430q-84 2 -133.5 44.5t-49.5 123.5q0 84 52 125.5t135 41.5h49v-765h-53v430zM377 765h53v-765h-53v765z"/>
<glyph glyph-name="periodcentered" horiz-adv-x="210" unicode="·" d="M69 254v74h74v-74h-74z"/>
<glyph glyph-name="cedilla" horiz-adv-x="536" unicode="¸" d="M251 19h39l-44 -92h2q15 13 35 13q30 0 47 -19t17 -53q0 -31 -21.5 -52.5t-62.5 -21.5q-35 0 -53.5 16.5t-20.5 42.5h45q4 -25 32 -25q34 0 34 41q0 40 -33 40q-16 0 -28 -12h-43z"/>
<glyph glyph-name="onesuperior" horiz-adv-x="274" unicode="¹" d="M133 435v310h-96v35h17q46 0 68 20q18 17 20 65h40v-430h-49z"/>
<glyph glyph-name="ordmasculine" horiz-adv-x="439" unicode="º" d="M218 708q-57 0 -91 -46.5t-34 -131.5q0 -177 128 -177q59 0 92 45.5t33 131.5q0 87 -32.5 132.5t-95.5 45.5zM218 309q-87 0 -132 60.5t-45 160.5q0 96 48.5 158.5t129.5 62.5q91 0 135 -60.5t44 -160.5q0 -99 -47.5 -160t-132.5 -61z"/>
<glyph glyph-name="guillemotright" horiz-adv-x="496" unicode="»" d="M319 57h-55l115 204l-116 203h55l118 -203zM133 57h-57l117 204l-118 203h57l116 -203z"/>
<glyph glyph-name="onequarter" horiz-adv-x="789" unicode="¼" d="M758 106h-62v-106h-47v106h-217v37l217 287h47v-283h62v-41zM482 146h168v226h-1q-9 -18 -29 -45zM80 -40l552 828h55l-552 -828h-55zM133 335v310h-96v35h17q46 0 68 20q18 17 20 65h40v-430h-49z"/>
<glyph glyph-name="onehalf" horiz-adv-x="866" unicode="½" d="M819 0h-305v37l163 140q53 45 70 72.5t17 64.5q0 38 -24 60.5t-65 22.5q-42 0 -70 -26t-31 -81h-48q0 70 42 108t106 38q70 0 106 -34.5t36 -84.5q0 -43 -21 -79t-76 -82l-134 -113v-1h234v-42zM80 -40l552 828h55l-552 -828h-55zM133 335v310h-96v35h17q46 0 68 20 q18 17 20 65h40v-430h-49z"/>
<glyph glyph-name="threequarters" horiz-adv-x="866" unicode="¾" d="M835 106h-62v-106h-47v106h-217v37l217 287h47v-283h62v-41zM559 146h168v226h-1q-9 -18 -29 -45zM174 -40l552 828h55l-552 -828h-55zM210 532h-45v43h45q37 0 59 22.5t22 56.5q0 35 -24.5 56.5t-64.5 21.5q-43 0 -69.5 -22.5t-28.5 -67.5h-48q0 55 38.5 92t108.5 37 q64 0 101.5 -31.5t37.5 -82.5q0 -36 -22.5 -62.5t-58.5 -37.5v-1q41 -8 67.5 -34t26.5 -73q0 -52 -42.5 -87.5t-113.5 -35.5q-75 0 -112.5 36.5t-39.5 92.5h48q5 -44 33.5 -66.5t74.5 -22.5q43 0 72 23t29 60q0 42 -26.5 62.5t-67.5 20.5z"/>
<glyph glyph-name="questiondown" horiz-adv-x="534" unicode="¿" d="M238 664h75v-74h-75v74zM99 58q0 -70 44.5 -108.5t125.5 -38.5t130 51.5t49 140.5v7h49v-9q0 -110 -65 -172t-167 -62q-108 0 -163.5 53t-55.5 132q0 68 25 109.5t82 94.5l48 45q24 23 32 32.5t14 28.5t6 53v61h48v-61q0 -63 -15 -89.5t-71 -75.5l-42 -37 q-74 -64 -74 -155z"/>
<glyph glyph-name="Agrave" horiz-adv-x="713" unicode="À" d="M305 960l74 -133h-46l-89 133h61zM622 0l-100 267h-333l-101 -267h-53l291 765h63l289 -765h-56zM356 715q-4 -18 -32 -93l-118 -310h299l-116 311l-31 92h-2z"/>
<glyph glyph-name="Aacute" horiz-adv-x="713" unicode="Á" d="M334 827l73 133h61l-89 -133h-45zM622 0l-100 267h-333l-101 -267h-53l291 765h63l289 -765h-56zM356 715q-4 -18 -32 -93l-118 -310h299l-116 311l-31 92h-2z"/>
<glyph glyph-name="Acircumflex" horiz-adv-x="713" unicode="Â" d="M384 960l118 -133h-55l-90 97h-1l-88 -97h-50l113 133h53zM622 0l-100 267h-333l-101 -267h-53l291 765h63l289 -765h-56zM356 715q-4 -18 -32 -93l-118 -310h299l-116 311l-31 92h-2z"/>
<glyph glyph-name="Atilde" horiz-adv-x="713" unicode="Ã" d="M190 828q0 48 22.5 81.5t71.5 33.5q36 0 81 -35.5t65 -35.5q46 0 51 74h41q0 -48 -23 -81.5t-70 -33.5q-29 0 -56 17.5t-50 35.5t-41 18q-44 0 -51 -74h-41zM622 0l-100 267h-333l-101 -267h-53l291 765h63l289 -765h-56zM356 715q-4 -18 -32 -93l-118 -310h299l-116 311 l-31 92h-2z"/>
<glyph glyph-name="Adieresis" horiz-adv-x="713" unicode="Ä" d="M214 852v73h68v-73h-68zM430 852v73h68v-73h-68zM622 0l-100 267h-333l-101 -267h-53l291 765h63l289 -765h-56zM356 715q-4 -18 -32 -93l-118 -310h299l-116 311l-31 92h-2z"/>
<glyph glyph-name="Aring" horiz-adv-x="713" unicode="Å" d="M357 978q-25 0 -40.5 -18t-15.5 -46q0 -29 14.5 -46t41.5 -17q26 0 41 17.5t15 45.5t-14.5 46t-41.5 18zM357 818q-44 0 -70.5 27t-26.5 69t27 69t70 27q45 0 71.5 -27t26.5 -69t-27 -69t-71 -27zM622 0l-100 267h-333l-101 -267h-53l291 765h63l289 -765h-56zM356 715 q-4 -18 -32 -93l-118 -310h299l-116 311l-31 92h-2z"/>
<glyph glyph-name="AE" horiz-adv-x="1068" unicode="Æ" d="M218 267l-124 -268l-56 1l352 765h605v-47h-433v-302h393v-46h-393v-323h436v-47h-490v267h-290zM508 312v406h-81l-188 -406h269z"/>
<glyph glyph-name="Ccedilla" horiz-adv-x="767" unicode="Ç" d="M401 -206q-35 0 -53.5 16.5t-20.5 42.5h45q4 -25 32 -25q34 0 34 41q0 40 -33 40q-16 0 -28 -12h-43l40 88q-137 9 -220.5 108t-83.5 286q0 186 95 292t240 106q51 0 97 -12t87 -37.5t67.5 -70.5t32.5 -105h-52q-9 76 -65 128.5t-167 52.5q-135 0 -206.5 -98.5 t-71.5 -255.5q0 -161 73.5 -256t210.5 -95q107 0 162 52.5t64 128.5h52q-8 -98 -82.5 -160t-195.5 -65l-27 -57h2q15 13 35 13q30 0 47 -19t17 -53q0 -31 -21.5 -52.5t-62.5 -21.5z"/>
<glyph glyph-name="Egrave" horiz-adv-x="680" unicode="È" d="M314 960l74 -133h-46l-89 133h61zM120 0v765h487v-47h-433v-302h393v-46h-393v-323h436v-47h-490z"/>
<glyph glyph-name="Eacute" horiz-adv-x="680" unicode="É" d="M343 827l73 133h61l-89 -133h-45zM120 0v765h487v-47h-433v-302h393v-46h-393v-323h436v-47h-490z"/>
<glyph glyph-name="Ecircumflex" horiz-adv-x="680" unicode="Ê" d="M393 960l118 -133h-55l-90 97h-1l-88 -97h-50l113 133h53zM120 0v765h487v-47h-433v-302h393v-46h-393v-323h436v-47h-490z"/>
<glyph glyph-name="Edieresis" horiz-adv-x="680" unicode="Ë" d="M223 852v73h68v-73h-68zM439 852v73h68v-73h-68zM120 0v765h487v-47h-433v-302h393v-46h-393v-323h436v-47h-490z"/>
<glyph glyph-name="Igrave" horiz-adv-x="294" unicode="Ì" d="M96 960l74 -133h-46l-89 133h61zM120 0v765h54v-765h-54z"/>
<glyph glyph-name="Iacute" horiz-adv-x="294" unicode="Í" d="M125 827l73 133h61l-89 -133h-45zM120 0v765h54v-765h-54z"/>
<glyph glyph-name="Icircumflex" horiz-adv-x="294" unicode="Î" d="M175 960l118 -133h-55l-90 97h-1l-88 -97h-50l113 133h53zM120 0v765h54v-765h-54z"/>
<glyph glyph-name="Idieresis" horiz-adv-x="294" unicode="Ï" d="M5 852v73h68v-73h-68zM221 852v73h68v-73h-68zM120 0v765h54v-765h-54z"/>
<glyph glyph-name="Eth" horiz-adv-x="796" unicode="Ð" d="M184 47h183q307 0 307 339q0 88 -24 154t-66.5 104t-96.5 56t-120 18h-183v-302h245v-46h-245v-323zM371 0h-241v370h-90v46h90v349h241q158 0 258.5 -93.5t100.5 -282.5q0 -194 -101 -291.5t-258 -97.5z"/>
<glyph glyph-name="Ntilde" horiz-adv-x="805" unicode="Ñ" d="M236 828q0 48 22.5 81.5t71.5 33.5q36 0 81 -35.5t65 -35.5q46 0 51 74h41q0 -48 -23 -81.5t-70 -33.5q-29 0 -56 17.5t-50 35.5t-41 18q-44 0 -51 -74h-41zM120 0v765h63l417 -638l30 -51h2v689h53v-765h-65l-412 634l-33 55h-2v-689h-53z"/>
<glyph glyph-name="Ograve" d="M354 960l74 -133h-46l-89 133h61zM405 27q125 0 202.5 91t77.5 261q0 171 -77.5 262.5t-202.5 91.5t-202.5 -91.5t-77.5 -262.5q0 -170 77.5 -261t202.5 -91zM70 379q0 101 27.5 179.5t75 124.5t106 69.5t126.5 23.5t126.5 -23.5t106 -69.5t75 -124.5t27.5 -179.5 t-27.5 -179t-75 -124t-106 -69t-126.5 -23t-126.5 23t-106 69t-75 124t-27.5 179z" unicode="Ò"/>
<glyph glyph-name="Oacute" d="M383 827l73 133h61l-89 -133h-45zM405 27q125 0 202.5 91t77.5 261q0 171 -77.5 262.5t-202.5 91.5t-202.5 -91.5t-77.5 -262.5q0 -170 77.5 -261t202.5 -91zM70 379q0 101 27.5 179.5t75 124.5t106 69.5t126.5 23.5t126.5 -23.5t106 -69.5t75 -124.5t27.5 -179.5 t-27.5 -179t-75 -124t-106 -69t-126.5 -23t-126.5 23t-106 69t-75 124t-27.5 179z" unicode="Ó"/>
<glyph glyph-name="Ocircumflex" d="M433 960l118 -133h-55l-90 97h-1l-88 -97h-50l113 133h53zM405 27q125 0 202.5 91t77.5 261q0 171 -77.5 262.5t-202.5 91.5t-202.5 -91.5t-77.5 -262.5q0 -170 77.5 -261t202.5 -91zM70 379q0 101 27.5 179.5t75 124.5t106 69.5t126.5 23.5t126.5 -23.5t106 -69.5 t75 -124.5t27.5 -179.5t-27.5 -179t-75 -124t-106 -69t-126.5 -23t-126.5 23t-106 69t-75 124t-27.5 179z" unicode="Ô"/>
<glyph glyph-name="Otilde" d="M239 828q0 48 22.5 81.5t71.5 33.5q36 0 81 -35.5t65 -35.5q46 0 51 74h41q0 -48 -23 -81.5t-70 -33.5q-29 0 -56 17.5t-50 35.5t-41 18q-44 0 -51 -74h-41zM405 27q125 0 202.5 91t77.5 261q0 171 -77.5 262.5t-202.5 91.5t-202.5 -91.5t-77.5 -262.5q0 -170 77.5 -261 t202.5 -91zM70 379q0 101 27.5 179.5t75 124.5t106 69.5t126.5 23.5t126.5 -23.5t106 -69.5t75 -124.5t27.5 -179.5t-27.5 -179t-75 -124t-106 -69t-126.5 -23t-126.5 23t-106 69t-75 124t-27.5 179z" unicode="Õ"/>
<glyph glyph-name="Odieresis" d="M263 852v73h68v-73h-68zM479 852v73h68v-73h-68zM405 27q125 0 202.5 91t77.5 261q0 171 -77.5 262.5t-202.5 91.5t-202.5 -91.5t-77.5 -262.5q0 -170 77.5 -261t202.5 -91zM70 379q0 101 27.5 179.5t75 124.5t106 69.5t126.5 23.5t126.5 -23.5t106 -69.5t75 -124.5 t27.5 -179.5t-27.5 -179t-75 -124t-106 -69t-126.5 -23t-126.5 23t-106 69t-75 124t-27.5 179z" unicode="Ö"/>
<glyph glyph-name="multiply" horiz-adv-x="633" unicode="×" d="M146 156l-32 32l170 170l-172 172l32 31l171 -172l170 170l32 -32l-170 -170l173 -172l-31 -32l-173 173z"/>
<glyph glyph-name="Oslash" d="M740 379q0 -101 -27.5 -179t-75 -124t-106 -69t-126.5 -23q-128 0 -215 75l-63 -84h-58l89 117q-88 104 -88 287q0 101 27.5 179.5t75 124.5t106 69.5t126.5 23.5q127 0 213 -74l69 91h58l-94 -125q89 -105 89 -289zM405 27q125 0 202.5 91t77.5 261q0 159 -64 250 l-402 -533q72 -69 186 -69zM405 733q-125 0 -202.5 -91.5t-77.5 -262.5q0 -156 63 -246l402 532q-69 68 -185 68z" unicode="Ø"/>
<glyph glyph-name="Ugrave" horiz-adv-x="766" unicode="Ù" d="M332 960l74 -133h-46l-89 133h61zM105 255v510h54v-432v-11q0 -52 1.5 -83.5t11.5 -72.5t30 -66q56 -72 184 -72q123 0 180 73q19 25 29 66t11.5 72t1.5 83v11v432h53v-510q0 -139 -73.5 -204.5t-204.5 -65.5t-204.5 65.5t-73.5 204.5z"/>
<glyph glyph-name="Uacute" horiz-adv-x="766" unicode="Ú" d="M361 827l73 133h61l-89 -133h-45zM105 255v510h54v-432v-11q0 -52 1.5 -83.5t11.5 -72.5t30 -66q56 -72 184 -72q123 0 180 73q19 25 29 66t11.5 72t1.5 83v11v432h53v-510q0 -139 -73.5 -204.5t-204.5 -65.5t-204.5 65.5t-73.5 204.5z"/>
<glyph glyph-name="Ucircumflex" horiz-adv-x="766" unicode="Û" d="M411 960l118 -133h-55l-90 97h-1l-88 -97h-50l113 133h53zM105 255v510h54v-432v-11q0 -52 1.5 -83.5t11.5 -72.5t30 -66q56 -72 184 -72q123 0 180 73q19 25 29 66t11.5 72t1.5 83v11v432h53v-510q0 -139 -73.5 -204.5t-204.5 -65.5t-204.5 65.5t-73.5 204.5z"/>
<glyph glyph-name="Udieresis" horiz-adv-x="766" unicode="Ü" d="M241 852v73h68v-73h-68zM457 852v73h68v-73h-68zM105 255v510h54v-432v-11q0 -52 1.5 -83.5t11.5 -72.5t30 -66q56 -72 184 -72q123 0 180 73q19 25 29 66t11.5 72t1.5 83v11v432h53v-510q0 -139 -73.5 -204.5t-204.5 -65.5t-204.5 65.5t-73.5 204.5z"/>
<glyph glyph-name="Yacute" horiz-adv-x="630" unicode="Ý" d="M295 827l73 133h61l-89 -133h-45zM289 0v341l-275 424h61l240 -375h2l241 375h58l-274 -422v-343h-53z"/>
<glyph glyph-name="Thorn" horiz-adv-x="629" unicode="Þ" d="M328 181h-155v-181h-53v765h53v-170h162q241 0 241 -207q0 -102 -66.5 -154.5t-181.5 -52.5zM336 227h6q180 3 180 161q0 85 -46 122.5t-136 37.5h-167v-321h163z"/>
<glyph glyph-name="germandbls" horiz-adv-x="587" unicode="ß" d="M100 0v566q0 59 17 102.5t45.5 67t60.5 34.5t67 11q88 0 141 -47.5t53 -144.5q0 -57 -27.5 -101t-83.5 -66v-2q154 -30 154 -197q0 -110 -65 -166.5t-175 -56.5h-36v43h36q85 0 135 44t50 130q0 81 -46 128t-133 47h-22v47h22q62 0 98.5 42t36.5 108q0 74 -37 111.5 t-101 37.5q-63 0 -100 -43.5t-37 -138.5v-556h-53z"/>
<glyph glyph-name="agrave" horiz-adv-x="552" unicode="à" d="M214 788l73 -154h-45l-85 154h57zM137 387h-50q0 62 49.5 105t132.5 43q56 0 93.5 -16t55.5 -46t24.5 -60t6.5 -69v-238q0 -39 13 -55t40 -16v-41h-8q-50 0 -71.5 26.5t-22.5 84.5h-2q-26 -54 -73 -83.5t-108 -29.5q-70 0 -113.5 38.5t-43.5 106.5q0 83 67 123 q34 20 96 29.5t176 17.5v41q0 144 -130 144q-60 0 -94 -28.5t-38 -76.5zM228 35q67 0 118.5 53.5t51.5 144.5v31q-115 -8 -167 -16.5t-75 -24.5q-42 -30 -42 -85q0 -50 31 -76.5t83 -26.5z"/>
<glyph glyph-name="aacute" horiz-adv-x="552" unicode="á" d="M245 634l70 154h59l-85 -154h-44zM137 387h-50q0 62 49.5 105t132.5 43q56 0 93.5 -16t55.5 -46t24.5 -60t6.5 -69v-238q0 -39 13 -55t40 -16v-41h-8q-50 0 -71.5 26.5t-22.5 84.5h-2q-26 -54 -73 -83.5t-108 -29.5q-70 0 -113.5 38.5t-43.5 106.5q0 83 67 123 q34 20 96 29.5t176 17.5v41q0 144 -130 144q-60 0 -94 -28.5t-38 -76.5zM228 35q67 0 118.5 53.5t51.5 144.5v31q-115 -8 -167 -16.5t-75 -24.5q-42 -30 -42 -85q0 -50 31 -76.5t83 -26.5z"/>
<glyph glyph-name="acircumflex" horiz-adv-x="552" unicode="â" d="M293 788l120 -154h-55l-92 118h-1l-90 -118h-50l115 154h53zM137 387h-50q0 62 49.5 105t132.5 43q56 0 93.5 -16t55.5 -46t24.5 -60t6.5 -69v-238q0 -39 13 -55t40 -16v-41h-8q-50 0 -71.5 26.5t-22.5 84.5h-2q-26 -54 -73 -83.5t-108 -29.5q-70 0 -113.5 38.5 t-43.5 106.5q0 83 67 123q34 20 96 29.5t176 17.5v41q0 144 -130 144q-60 0 -94 -28.5t-38 -76.5zM228 35q67 0 118.5 53.5t51.5 144.5v31q-115 -8 -167 -16.5t-75 -24.5q-42 -30 -42 -85q0 -50 31 -76.5t83 -26.5z"/>
<glyph glyph-name="atilde" horiz-adv-x="552" unicode="ã" d="M99 631q0 48 22.5 81.5t71.5 33.5q36 0 81 -35.5t65 -35.5q46 0 51 74h41q0 -48 -23 -81.5t-70 -33.5q-29 0 -56 18t-50 35.5t-41 17.5q-44 0 -51 -74h-41zM137 387h-50q0 62 49.5 105t132.5 43q56 0 93.5 -16t55.5 -46t24.5 -60t6.5 -69v-238q0 -39 13 -55t40 -16v-41 h-8q-50 0 -71.5 26.5t-22.5 84.5h-2q-26 -54 -73 -83.5t-108 -29.5q-70 0 -113.5 38.5t-43.5 106.5q0 83 67 123q34 20 96 29.5t176 17.5v41q0 144 -130 144q-60 0 -94 -28.5t-38 -76.5zM228 35q67 0 118.5 53.5t51.5 144.5v31q-115 -8 -167 -16.5t-75 -24.5 q-42 -30 -42 -85q0 -50 31 -76.5t83 -26.5z"/>
<glyph glyph-name="adieresis" horiz-adv-x="552" unicode="ä" d="M136 653v73h68v-73h-68zM325 653v73h69v-73h-69zM137 387h-50q0 62 49.5 105t132.5 43q56 0 93.5 -16t55.5 -46t24.5 -60t6.5 -69v-238q0 -39 13 -55t40 -16v-41h-8q-50 0 -71.5 26.5t-22.5 84.5h-2q-26 -54 -73 -83.5t-108 -29.5q-70 0 -113.5 38.5t-43.5 106.5 q0 83 67 123q34 20 96 29.5t176 17.5v41q0 144 -130 144q-60 0 -94 -28.5t-38 -76.5zM228 35q67 0 118.5 53.5t51.5 144.5v31q-115 -8 -167 -16.5t-75 -24.5q-42 -30 -42 -85q0 -50 31 -76.5t83 -26.5z"/>
<glyph glyph-name="aring" horiz-adv-x="552" unicode="å" d="M278 799q-25 0 -40.5 -18t-15.5 -46q0 -29 14.5 -46t41.5 -17q26 0 41 17.5t15 45.5t-14.5 46t-41.5 18zM278 639q-44 0 -70.5 27t-26.5 69t27 69t70 27q44 0 71 -26.5t27 -69.5q0 -42 -27 -69t-71 -27zM137 387h-50q0 62 49.5 105t132.5 43q56 0 93.5 -16t55.5 -46 t24.5 -60t6.5 -69v-238q0 -39 13 -55t40 -16v-41h-8q-50 0 -71.5 26.5t-22.5 84.5h-2q-26 -54 -73 -83.5t-108 -29.5q-70 0 -113.5 38.5t-43.5 106.5q0 83 67 123q34 20 96 29.5t176 17.5v41q0 144 -130 144q-60 0 -94 -28.5t-38 -76.5zM228 35q67 0 118.5 53.5t51.5 144.5 v31q-115 -8 -167 -16.5t-75 -24.5q-42 -30 -42 -85q0 -50 31 -76.5t83 -26.5z"/>
<glyph glyph-name="ae" horiz-adv-x="854" unicode="æ" d="M225 35q69 0 120.5 54t51.5 157v13q-111 0 -164.5 -6.5t-85.5 -31.5q-35 -28 -35 -80q0 -50 31 -78t82 -28zM796 125q-16 -61 -67.5 -99.5t-121.5 -38.5q-76 0 -127 38.5t-66 99.5h-4q-30 -65 -75.5 -99t-118.5 -34q-71 0 -114.5 40t-43.5 108q0 84 70 124q41 23 96.5 31 t173.5 8v45q0 144 -131 144q-60 0 -94 -28.5t-38 -76.5h-50q0 62 49.5 105t132.5 43q134 0 166 -104h4q55 104 173 104q68 0 113.5 -37t63 -89t17.5 -115v-35h-361v-12q0 -111 40.5 -164t127.5 -53q60 0 93 30t42 65h50zM752 303v5q-1 77 -37 130.5t-111 53.5 q-74 0 -114.5 -55t-45.5 -134h308z"/>
<glyph glyph-name="ccedilla" horiz-adv-x="526" unicode="ç" d="M268 -206q-35 0 -53.5 16.5t-20.5 42.5h45q4 -25 32 -25q34 0 34 41q0 40 -33 40q-16 0 -28 -12h-43l42 93q-92 12 -138.5 82.5t-46.5 183.5q0 122 61 201t167 79q73 0 128.5 -36.5t66.5 -113.5h-53q-6 43 -42.5 74t-97.5 31q-81 0 -127.5 -60t-46.5 -169 q0 -231 170 -231q66 0 98.5 33t45.5 89h53q-13 -81 -66 -123.5t-133 -42.5h-2l-29 -60h2q15 13 35 13q30 0 47 -19t17 -53q0 -31 -21.5 -52.5t-62.5 -21.5z"/>
<glyph glyph-name="egrave" horiz-adv-x="541" unicode="è" d="M231 788l73 -154h-45l-85 154h57zM477 125q-15 -60 -66 -99t-125 -39q-228 0 -228 269q0 125 59.5 202t166.5 77q55 0 95.5 -21t63 -57t33 -77t10.5 -87v-42l-375 -1q5 -220 176 -220q33 0 60 10.5t43 27.5t24.5 30.5t13.5 26.5h49zM434 290v5q0 33 -6 63.5t-21 62.5 t-46.5 51.5t-76.5 19.5q-79 0 -122.5 -55t-49.5 -147h322z"/>
<glyph glyph-name="eacute" horiz-adv-x="541" unicode="é" d="M262 634l70 154h59l-85 -154h-44zM477 125q-15 -60 -66 -99t-125 -39q-228 0 -228 269q0 125 59.5 202t166.5 77q55 0 95.5 -21t63 -57t33 -77t10.5 -87v-42l-375 -1q5 -220 176 -220q33 0 60 10.5t43 27.5t24.5 30.5t13.5 26.5h49zM434 290v5q0 33 -6 63.5t-21 62.5 t-46.5 51.5t-76.5 19.5q-79 0 -122.5 -55t-49.5 -147h322z"/>
<glyph glyph-name="ecircumflex" horiz-adv-x="541" unicode="ê" d="M310 788l120 -154h-55l-92 118h-1l-90 -118h-50l115 154h53zM477 125q-15 -60 -66 -99t-125 -39q-228 0 -228 269q0 125 59.5 202t166.5 77q55 0 95.5 -21t63 -57t33 -77t10.5 -87v-42l-375 -1q5 -220 176 -220q33 0 60 10.5t43 27.5t24.5 30.5t13.5 26.5h49zM434 290v5 q0 33 -6 63.5t-21 62.5t-46.5 51.5t-76.5 19.5q-79 0 -122.5 -55t-49.5 -147h322z"/>
<glyph glyph-name="edieresis" horiz-adv-x="541" unicode="ë" d="M153 653v73h68v-73h-68zM342 653v73h69v-73h-69zM477 125q-15 -60 -66 -99t-125 -39q-228 0 -228 269q0 125 59.5 202t166.5 77q55 0 95.5 -21t63 -57t33 -77t10.5 -87v-42l-375 -1q5 -220 176 -220q33 0 60 10.5t43 27.5t24.5 30.5t13.5 26.5h49zM434 290v5 q0 33 -6 63.5t-21 62.5t-46.5 51.5t-76.5 19.5q-79 0 -122.5 -55t-49.5 -147h322z"/>
<glyph glyph-name="igrave" horiz-adv-x="253" unicode="ì" d="M74 788l73 -154h-45l-85 154h57zM99 0v522h53v-522h-53z"/>
<glyph glyph-name="iacute" horiz-adv-x="253" unicode="í" d="M105 634l70 154h59l-85 -154h-44zM99 0v522h53v-522h-53z"/>
<glyph glyph-name="icircumflex" horiz-adv-x="253" unicode="î" d="M147 788l106 -154h-49l-81 118h-1l-79 -118h-44l101 154h47zM99 0v522h53v-522h-53z"/>
<glyph glyph-name="idieresis" horiz-adv-x="253" unicode="ï" d="M10 653v73h62v-73h-62zM181 653v73h62v-73h-62zM99 0v522h53v-522h-53z"/>
<glyph glyph-name="eth" horiz-adv-x="565" unicode="ð" d="M284 492q-81 0 -126 -62.5t-45 -168.5q0 -108 43 -169.5t128 -61.5q82 0 125 62.5t43 170.5q0 229 -168 229zM285 -13q-116 0 -171 74t-55 200q0 120 59.5 197t165.5 77q83 0 117 -39h2q-39 82 -106 152l-146 -59l-16 39l129 52q-57 53 -128 96l58 13q62 -38 117 -90 l114 46l15 -39l-97 -39q164 -177 164 -397q0 -129 -57 -206t-165 -77z"/>
<glyph glyph-name="ntilde" horiz-adv-x="587" unicode="ñ" d="M135 631q0 48 22.5 81.5t71.5 33.5q36 0 81 -35.5t65 -35.5q46 0 51 74h41q0 -48 -23 -81.5t-70 -33.5q-29 0 -56 18t-50 35.5t-41 17.5q-44 0 -51 -74h-41zM436 0v336q0 77 -26 114q-28 39 -92 39q-81 0 -123 -54t-42 -131v-304h-53v522h49v-96h2q23 49 68 79t108 30 q88 0 125 -47.5t37 -139.5v-348h-53z"/>
<glyph glyph-name="ograve" horiz-adv-x="564" unicode="ò" d="M231 788l73 -154h-45l-85 154h57zM283 492q-81 0 -126 -62.5t-45 -168.5q0 -108 43 -169.5t128 -61.5q82 0 125 61.5t43 169.5t-42 169.5t-126 61.5zM283 -13q-113 0 -169 74.5t-56 199.5q0 119 60 196.5t165 77.5q113 0 168 -75.5t55 -198.5q0 -122 -58.5 -198 t-164.5 -76z"/>
<glyph glyph-name="oacute" horiz-adv-x="564" unicode="ó" d="M262 634l70 154h59l-85 -154h-44zM283 492q-81 0 -126 -62.5t-45 -168.5q0 -108 43 -169.5t128 -61.5q82 0 125 61.5t43 169.5t-42 169.5t-126 61.5zM283 -13q-113 0 -169 74.5t-56 199.5q0 119 60 196.5t165 77.5q113 0 168 -75.5t55 -198.5q0 -122 -58.5 -198 t-164.5 -76z"/>
<glyph glyph-name="ocircumflex" horiz-adv-x="564" unicode="ô" d="M310 788l120 -154h-55l-92 118h-1l-90 -118h-50l115 154h53zM283 492q-81 0 -126 -62.5t-45 -168.5q0 -108 43 -169.5t128 -61.5q82 0 125 61.5t43 169.5t-42 169.5t-126 61.5zM283 -13q-113 0 -169 74.5t-56 199.5q0 119 60 196.5t165 77.5q113 0 168 -75.5t55 -198.5 q0 -122 -58.5 -198t-164.5 -76z"/>
<glyph glyph-name="otilde" horiz-adv-x="564" unicode="õ" d="M116 631q0 48 22.5 81.5t71.5 33.5q36 0 81 -35.5t65 -35.5q46 0 51 74h41q0 -48 -23 -81.5t-70 -33.5q-29 0 -56 18t-50 35.5t-41 17.5q-44 0 -51 -74h-41zM283 492q-81 0 -126 -62.5t-45 -168.5q0 -108 43 -169.5t128 -61.5q82 0 125 61.5t43 169.5t-42 169.5 t-126 61.5zM283 -13q-113 0 -169 74.5t-56 199.5q0 119 60 196.5t165 77.5q113 0 168 -75.5t55 -198.5q0 -122 -58.5 -198t-164.5 -76z"/>
<glyph glyph-name="odieresis" horiz-adv-x="564" unicode="ö" d="M153 653v73h68v-73h-68zM342 653v73h69v-73h-69zM283 492q-81 0 -126 -62.5t-45 -168.5q0 -108 43 -169.5t128 -61.5q82 0 125 61.5t43 169.5t-42 169.5t-126 61.5zM283 -13q-113 0 -169 74.5t-56 199.5q0 119 60 196.5t165 77.5q113 0 168 -75.5t55 -198.5 q0 -122 -58.5 -198t-164.5 -76z"/>
<glyph glyph-name="divide" horiz-adv-x="633" unicode="÷" d="M347 149h-64v64h64v-64zM90 335v45h452v-45h-452zM283 503v64h64v-64h-64z"/>
<glyph glyph-name="oslash" horiz-adv-x="564" unicode="ø" d="M506 261q0 -122 -58.5 -198t-164.5 -76q-90 0 -146 50l-40 -53h-51l64 83q-52 71 -52 194q0 119 60 196.5t165 77.5q89 0 145 -51l39 51h53l-64 -83q50 -72 50 -191zM283 30q82 0 125 61.5t43 169.5q0 92 -29 147l-254 -332q41 -46 115 -46zM283 492q-81 0 -126 -62.5 t-45 -168.5q0 -92 31 -150l255 334q-42 47 -115 47z"/>
<glyph glyph-name="ugrave" horiz-adv-x="585" unicode="ù" d="M240 788l73 -154h-45l-85 154h57zM151 522v-345q0 -71 25 -106q30 -39 99 -39q76 0 116.5 58t40.5 151v281h53v-522h-49v102h-2q-22 -51 -64.5 -83t-104.5 -32q-88 0 -127.5 46.5t-39.5 137.5v351h53z"/>
<glyph glyph-name="uacute" horiz-adv-x="585" unicode="ú" d="M271 634l70 154h59l-85 -154h-44zM151 522v-345q0 -71 25 -106q30 -39 99 -39q76 0 116.5 58t40.5 151v281h53v-522h-49v102h-2q-22 -51 -64.5 -83t-104.5 -32q-88 0 -127.5 46.5t-39.5 137.5v351h53z"/>
<glyph glyph-name="ucircumflex" horiz-adv-x="585" unicode="û" d="M319 788l120 -154h-55l-92 118h-1l-90 -118h-50l115 154h53zM151 522v-345q0 -71 25 -106q30 -39 99 -39q76 0 116.5 58t40.5 151v281h53v-522h-49v102h-2q-22 -51 -64.5 -83t-104.5 -32q-88 0 -127.5 46.5t-39.5 137.5v351h53z"/>
<glyph glyph-name="udieresis" horiz-adv-x="585" unicode="ü" d="M162 653v73h68v-73h-68zM351 653v73h69v-73h-69zM151 522v-345q0 -71 25 -106q30 -39 99 -39q76 0 116.5 58t40.5 151v281h53v-522h-49v102h-2q-22 -51 -64.5 -83t-104.5 -32q-88 0 -127.5 46.5t-39.5 137.5v351h53z"/>
<glyph glyph-name="yacute" horiz-adv-x="472" unicode="ý" d="M220 634l70 154h59l-85 -154h-44zM211 -1l-181 523h55l130 -383l22 -70h2q11 38 22 70l130 383h51l-197 -571q-29 -85 -64 -117.5t-96 -32.5q-25 0 -63 11v45q34 -12 63 -12q43 0 66 23.5t40 73.5z"/>
<glyph glyph-name="thorn" horiz-adv-x="600" unicode="þ" d="M100 -188v976h53v-361h3q22 52 67.5 80t107.5 28q90 0 150.5 -64t60.5 -205q0 -135 -64.5 -207t-160.5 -72q-59 0 -102.5 32.5t-59.5 75.5h-2v-283h-53zM152 216q0 -73 42.5 -129t122.5 -56q82 0 126 64t44 171q0 101 -39.5 163t-125.5 62q-81 0 -125.5 -54t-44.5 -130 v-91z"/>
<glyph glyph-name="Amacron" horiz-adv-x="713" unicode="Ā" d="M224 864v45h265v-45h-265zM622 0l-100 267h-333l-101 -267h-53l291 765h63l289 -765h-56zM356 715q-4 -18 -32 -93l-118 -310h299l-116 311l-31 92h-2z"/>
<glyph glyph-name="amacron" horiz-adv-x="552" unicode="ā" d="M133 660v45h265v-45h-265zM137 387h-50q0 62 49.5 105t132.5 43q56 0 93.5 -16t55.5 -46t24.5 -60t6.5 -69v-238q0 -39 13 -55t40 -16v-41h-8q-50 0 -71.5 26.5t-22.5 84.5h-2q-26 -54 -73 -83.5t-108 -29.5q-70 0 -113.5 38.5t-43.5 106.5q0 83 67 123q34 20 96 29.5 t176 17.5v41q0 144 -130 144q-60 0 -94 -28.5t-38 -76.5zM228 35q67 0 118.5 53.5t51.5 144.5v31q-115 -8 -167 -16.5t-75 -24.5q-42 -30 -42 -85q0 -50 31 -76.5t83 -26.5z"/>
<glyph glyph-name="Abreve" horiz-adv-x="713" unicode="Ă" d="M219 969h45q8 -86 94 -86t94 86h41q-4 -65 -41.5 -97t-96.5 -32q-58 0 -94.5 31.5t-41.5 97.5zM622 0l-100 267h-333l-101 -267h-53l291 765h63l289 -765h-56zM356 715q-4 -18 -32 -93l-118 -310h299l-116 311l-31 92h-2z"/>
<glyph glyph-name="abreve" horiz-adv-x="552" unicode="ă" d="M128 768h45q0 -104 94 -104q44 0 69.5 25.5t25.5 78.5h41q0 -74 -38 -110.5t-101 -36.5q-62 0 -99 36t-37 111zM137 387h-50q0 62 49.5 105t132.5 43q56 0 93.5 -16t55.5 -46t24.5 -60t6.5 -69v-238q0 -39 13 -55t40 -16v-41h-8q-50 0 -71.5 26.5t-22.5 84.5h-2 q-26 -54 -73 -83.5t-108 -29.5q-70 0 -113.5 38.5t-43.5 106.5q0 83 67 123q34 20 96 29.5t176 17.5v41q0 144 -130 144q-60 0 -94 -28.5t-38 -76.5zM228 35q67 0 118.5 53.5t51.5 144.5v31q-115 -8 -167 -16.5t-75 -24.5q-42 -30 -42 -85q0 -50 31 -76.5t83 -26.5z"/>
<glyph glyph-name="Aogonek" horiz-adv-x="713" unicode="Ą" d="M324 622l-118 -310h298l-115 311l-31 92h-2q-14 -46 -32 -93zM678 -188h-20q-109 0 -109 86q0 33 21.5 60t51.5 42l-101 267h-332l-101 -267h-53l291 765h63l289 -765q-82 -53 -82 -97q0 -28 21 -39t61 -11v-41z"/>
<glyph glyph-name="aogonek" horiz-adv-x="552" unicode="ą" d="M228 35q67 0 118.5 53.5t51.5 144.5v31q-115 -8 -167 -16.5t-75 -24.5q-42 -30 -42 -85q0 -50 31 -76.5t83 -26.5zM137 387h-50q0 62 49.5 105t132.5 43q56 0 93.5 -16t55.5 -46t24.5 -60t6.5 -69v-238q0 -39 13 -55t40 -16v-35q-82 -53 -82 -97q0 -28 21 -39t61 -11v-41 h-20q-109 0 -109 86q0 65 78 102v1q-51 19 -51 104h-2q-26 -54 -73 -83.5t-108 -29.5q-70 0 -113.5 38.5t-43.5 106.5q0 83 67 123q34 20 96 29.5t176 17.5v41q0 144 -130 144q-60 0 -94 -28.5t-38 -76.5z"/>
<glyph glyph-name="Cacute" horiz-adv-x="767" unicode="Ć" d="M384 827l73 133h61l-89 -133h-45zM405 733q-135 0 -206.5 -98.5t-71.5 -255.5q0 -161 73.5 -256t210.5 -95q107 0 162 52.5t64 128.5h52q-8 -101 -85.5 -163t-202.5 -62q-148 0 -239.5 99t-91.5 296q0 186 95 292t240 106q51 0 97 -12t87 -37.5t67.5 -70.5t32.5 -105h-52 q-9 76 -65 128.5t-167 52.5z"/>
<glyph glyph-name="cacute" horiz-adv-x="526" unicode="ć" d="M265 634l70 154h59l-85 -154h-44zM481 386h-53q-6 43 -42.5 74t-97.5 31q-81 0 -127.5 -60t-46.5 -169q0 -231 170 -231q66 0 98.5 33t45.5 89h53q-13 -81 -66 -123.5t-133 -42.5q-110 0 -167 72t-57 197q0 122 61 201t167 79q73 0 128.5 -36.5t66.5 -113.5z"/>
<glyph glyph-name="Ccircumflex" horiz-adv-x="767" unicode="Ĉ" d="M434 960l118 -133h-55l-90 97h-1l-88 -97h-50l113 133h53zM405 733q-135 0 -206.5 -98.5t-71.5 -255.5q0 -161 73.5 -256t210.5 -95q107 0 162 52.5t64 128.5h52q-8 -101 -85.5 -163t-202.5 -62q-148 0 -239.5 99t-91.5 296q0 186 95 292t240 106q51 0 97 -12t87 -37.5 t67.5 -70.5t32.5 -105h-52q-9 76 -65 128.5t-167 52.5z"/>
<glyph glyph-name="ccircumflex" horiz-adv-x="526" unicode="ĉ" d="M313 788l120 -154h-55l-92 118h-1l-90 -118h-50l115 154h53zM481 386h-53q-6 43 -42.5 74t-97.5 31q-81 0 -127.5 -60t-46.5 -169q0 -231 170 -231q66 0 98.5 33t45.5 89h53q-13 -81 -66 -123.5t-133 -42.5q-110 0 -167 72t-57 197q0 122 61 201t167 79q73 0 128.5 -36.5 t66.5 -113.5z"/>
<glyph glyph-name="Cdotaccent" horiz-adv-x="767" unicode="Ċ" d="M376 840v64h60v-64h-60zM405 733q-135 0 -206.5 -98.5t-71.5 -255.5q0 -161 73.5 -256t210.5 -95q107 0 162 52.5t64 128.5h52q-8 -101 -85.5 -163t-202.5 -62q-148 0 -239.5 99t-91.5 296q0 186 95 292t240 106q51 0 97 -12t87 -37.5t67.5 -70.5t32.5 -105h-52 q-9 76 -65 128.5t-167 52.5z"/>
<glyph glyph-name="cdotaccent" horiz-adv-x="526" unicode="ċ" d="M255 660v64h60v-64h-60zM481 386h-53q-6 43 -42.5 74t-97.5 31q-81 0 -127.5 -60t-46.5 -169q0 -231 170 -231q66 0 98.5 33t45.5 89h53q-13 -81 -66 -123.5t-133 -42.5q-110 0 -167 72t-57 197q0 122 61 201t167 79q73 0 128.5 -36.5t66.5 -113.5z"/>
<glyph glyph-name="Ccaron" horiz-adv-x="767" unicode="Č" d="M376 827l-118 133h55l90 -97h1l88 97h50l-113 -133h-53zM405 733q-135 0 -206.5 -98.5t-71.5 -255.5q0 -161 73.5 -256t210.5 -95q107 0 162 52.5t64 128.5h52q-8 -101 -85.5 -163t-202.5 -62q-148 0 -239.5 99t-91.5 296q0 186 95 292t240 106q51 0 97 -12t87 -37.5 t67.5 -70.5t32.5 -105h-52q-9 76 -65 128.5t-167 52.5z"/>
<glyph glyph-name="ccaron" horiz-adv-x="526" unicode="č" d="M255 634l-120 154h55l92 -118h1l90 118h50l-115 -154h-53zM481 386h-53q-6 43 -42.5 74t-97.5 31q-81 0 -127.5 -60t-46.5 -169q0 -231 170 -231q66 0 98.5 33t45.5 89h53q-13 -81 -66 -123.5t-133 -42.5q-110 0 -167 72t-57 197q0 122 61 201t167 79q73 0 128.5 -36.5 t66.5 -113.5z"/>
<glyph glyph-name="Dcaron" horiz-adv-x="786" unicode="Ď" d="M325 827l-118 133h55l90 -97h1l88 97h50l-113 -133h-53zM174 47h183q307 0 307 339q0 88 -24 154t-66.5 104t-96.5 56t-120 18h-183v-671zM120 0v765h241q158 0 258.5 -93.5t100.5 -282.5q0 -194 -101 -291.5t-258 -97.5h-241z"/>
<glyph glyph-name="dcaron" horiz-adv-x="600" unicode="ď" d="M554 623l13 165h55l-28 -165h-40zM500 788v-788h-49v94h-3q-50 -107 -167 -107q-41 0 -77.5 13t-70.5 42t-54.5 85t-20.5 132q0 131 60 203.5t163 72.5q58 0 101 -27.5t63 -77.5h2v358h53zM448 211v103q0 71 -43.5 124t-118.5 53q-85 0 -129 -63t-44 -165 q0 -109 42 -170.5t126 -61.5q81 0 124 55t43 125z"/>
<glyph glyph-name="Dcroat" horiz-adv-x="796" unicode="Đ" d="M184 47h183q307 0 307 339q0 88 -24 154t-66.5 104t-96.5 56t-120 18h-183v-302h245v-46h-245v-323zM371 0h-241v370h-90v46h90v349h241q158 0 258.5 -93.5t100.5 -282.5q0 -194 -101 -291.5t-258 -97.5z"/>
<glyph glyph-name="dcroat" horiz-adv-x="600" unicode="đ" d="M448 94q-50 -107 -167 -107q-41 0 -77.5 13t-70.5 42t-54.5 85t-20.5 132q0 131 60 203.5t163 72.5q58 0 101 -27.5t63 -77.5h2v206h-181v42h181v110h53v-110h57v-42h-57v-636h-49v94h-3zM448 211v103q0 71 -43.5 124t-118.5 53q-85 0 -129 -63t-44 -165 q0 -109 42 -170.5t126 -61.5q81 0 124 55t43 125z"/>
<glyph glyph-name="Emacron" horiz-adv-x="680" unicode="Ē" d="M233 864v45h265v-45h-265zM120 0v765h487v-47h-433v-302h393v-46h-393v-323h436v-47h-490z"/>
<glyph glyph-name="emacron" horiz-adv-x="541" unicode="ē" d="M150 660v45h265v-45h-265zM477 125q-15 -60 -66 -99t-125 -39q-228 0 -228 269q0 125 59.5 202t166.5 77q55 0 95.5 -21t63 -57t33 -77t10.5 -87v-42l-375 -1q5 -220 176 -220q33 0 60 10.5t43 27.5t24.5 30.5t13.5 26.5h49zM434 290v5q0 33 -6 63.5t-21 62.5t-46.5 51.5 t-76.5 19.5q-79 0 -122.5 -55t-49.5 -147h322z"/>
<glyph glyph-name="Ebreve" horiz-adv-x="680" unicode="Ĕ" d="M228 969h45q8 -86 94 -86t94 86h41q-4 -65 -41.5 -97t-96.5 -32q-58 0 -94.5 31.5t-41.5 97.5zM120 0v765h487v-47h-433v-302h393v-46h-393v-323h436v-47h-490z"/>
<glyph glyph-name="ebreve" horiz-adv-x="541" unicode="ĕ" d="M145 768h45q0 -104 94 -104q44 0 69.5 25.5t25.5 78.5h41q0 -74 -38 -110.5t-101 -36.5q-62 0 -99 36t-37 111zM477 125q-15 -60 -66 -99t-125 -39q-228 0 -228 269q0 125 59.5 202t166.5 77q55 0 95.5 -21t63 -57t33 -77t10.5 -87v-42l-375 -1q5 -220 176 -220 q33 0 60 10.5t43 27.5t24.5 30.5t13.5 26.5h49zM434 290v5q0 33 -6 63.5t-21 62.5t-46.5 51.5t-76.5 19.5q-79 0 -122.5 -55t-49.5 -147h322z"/>
<glyph glyph-name="Edotaccent" horiz-adv-x="680" unicode="Ė" d="M335 840v64h60v-64h-60zM120 0v765h487v-47h-433v-302h393v-46h-393v-323h436v-47h-490z"/>
<glyph glyph-name="edotaccent" horiz-adv-x="541" unicode="ė" d="M252 660v64h60v-64h-60zM477 125q-15 -60 -66 -99t-125 -39q-228 0 -228 269q0 125 59.5 202t166.5 77q55 0 95.5 -21t63 -57t33 -77t10.5 -87v-42l-375 -1q5 -220 176 -220q33 0 60 10.5t43 27.5t24.5 30.5t13.5 26.5h49zM434 290v5q0 33 -6 63.5t-21 62.5t-46.5 51.5 t-76.5 19.5q-79 0 -122.5 -55t-49.5 -147h322z"/>
<glyph glyph-name="Eogonek" horiz-adv-x="680" unicode="Ę" d="M610 -147v-41h-20q-109 0 -109 86q0 65 77 102h-438v765h487v-47h-433v-302h393v-46h-393v-323h436v-47q-82 -53 -82 -97q0 -28 21 -39t61 -11z"/>
<glyph glyph-name="eogonek" horiz-adv-x="541" unicode="ę" d="M112 291h323q0 34 -6 65t-21 64t-47 52.5t-77 19.5q-79 0 -122.5 -54.5t-49.5 -146.5zM428 125h49q-19 -73 -82 -110q-61 -36 -87.5 -59t-26.5 -53q0 -28 21 -39t61 -11v-41h-20q-48 0 -78.5 19.5t-30.5 61.5q0 52 64 94v1q-6 -1 -12 -1q-115 0 -171.5 69.5t-56.5 199.5 q0 125 59.5 202t166.5 77q55 0 96 -21.5t63 -58t32.5 -77t10.5 -85.5v-42h-375q3 -221 176 -221q33 0 60 10.5t43 27.5t24.5 30.5t13.5 26.5z"/>
<glyph glyph-name="Ecaron" horiz-adv-x="680" unicode="Ě" d="M335 827l-118 133h55l90 -97h1l88 97h50l-113 -133h-53zM120 0v765h487v-47h-433v-302h393v-46h-393v-323h436v-47h-490z"/>
<glyph glyph-name="ecaron" horiz-adv-x="541" unicode="ě" d="M252 634l-120 154h55l92 -118h1l90 118h50l-115 -154h-53zM477 125q-15 -60 -66 -99t-125 -39q-228 0 -228 269q0 125 59.5 202t166.5 77q55 0 95.5 -21t63 -57t33 -77t10.5 -87v-42l-375 -1q5 -220 176 -220q33 0 60 10.5t43 27.5t24.5 30.5t13.5 26.5h49zM434 290v5 q0 33 -6 63.5t-21 62.5t-46.5 51.5t-76.5 19.5q-79 0 -122.5 -55t-49.5 -147h322z"/>
<glyph glyph-name="Gcircumflex" d="M438 960l118 -133h-55l-90 97h-1l-88 -97h-50l113 133h53zM408 733q-132 0 -207.5 -98t-75.5 -261q0 -160 76 -253.5t209 -93.5q113 0 180 66t67 165v65h-244v48h297v-371h-51v129h-2q-65 -145 -254 -145q-68 0 -126 21.5t-105.5 67t-74.5 123.5t-27 183q0 189 94.5 293 t243.5 104q121 0 197 -59t91 -155h-55q-17 79 -79.5 125t-153.5 46z" unicode="Ĝ"/>
<glyph glyph-name="gcircumflex" horiz-adv-x="605" unicode="ĝ" d="M316 788l120 -154h-55l-92 118h-1l-90 -118h-50l115 154h53zM285 -199q-85 0 -138 40.5t-63 100.5h53q7 -40 47 -70t103 -30q69 0 117.5 42t48.5 135v86h-2q-53 -105 -180 -105q-38 0 -73 13.5t-68 43t-52.5 84t-19.5 127.5q0 128 63 197.5t166 69.5q61 0 104.5 -31.5 t62.5 -75.5h2v94h49v-494q0 -111 -61 -169t-159 -58zM453 222v89q0 70 -44 125t-128 55q-82 0 -125 -61.5t-43 -161.5q0 -101 41.5 -162.5t129.5 -61.5q80 0 124.5 53t44.5 125z"/>
<glyph glyph-name="Gbreve" d="M273 969h45q8 -86 94 -86t94 86h41q-4 -65 -41.5 -97t-96.5 -32q-58 0 -94.5 31.5t-41.5 97.5zM408 733q-132 0 -207.5 -98t-75.5 -261q0 -160 76 -253.5t209 -93.5q113 0 180 66t67 165v65h-244v48h297v-371h-51v129h-2q-65 -145 -254 -145q-68 0 -126 21.5t-105.5 67 t-74.5 123.5t-27 183q0 189 94.5 293t243.5 104q121 0 197 -59t91 -155h-55q-17 79 -79.5 125t-153.5 46z" unicode="Ğ"/>
<glyph glyph-name="gbreve" horiz-adv-x="605" unicode="ğ" d="M151 768h45q0 -104 94 -104q44 0 69.5 25.5t25.5 78.5h41q0 -74 -38 -110.5t-101 -36.5q-62 0 -99 36t-37 111zM285 -199q-85 0 -138 40.5t-63 100.5h53q7 -40 47 -70t103 -30q69 0 117.5 42t48.5 135v86h-2q-53 -105 -180 -105q-38 0 -73 13.5t-68 43t-52.5 84 t-19.5 127.5q0 128 63 197.5t166 69.5q61 0 104.5 -31.5t62.5 -75.5h2v94h49v-494q0 -111 -61 -169t-159 -58zM453 222v89q0 70 -44 125t-128 55q-82 0 -125 -61.5t-43 -161.5q0 -101 41.5 -162.5t129.5 -61.5q80 0 124.5 53t44.5 125z"/>
<glyph glyph-name="Gdotaccent" d="M380 840v64h60v-64h-60zM408 733q-132 0 -207.5 -98t-75.5 -261q0 -160 76 -253.5t209 -93.5q113 0 180 66t67 165v65h-244v48h297v-371h-51v129h-2q-65 -145 -254 -145q-68 0 -126 21.5t-105.5 67t-74.5 123.5t-27 183q0 189 94.5 293t243.5 104q121 0 197 -59t91 -155 h-55q-17 79 -79.5 125t-153.5 46z" unicode="Ġ"/>
<glyph glyph-name="gdotaccent" horiz-adv-x="605" unicode="ġ" d="M258 660v64h60v-64h-60zM285 -199q-85 0 -138 40.5t-63 100.5h53q7 -40 47 -70t103 -30q69 0 117.5 42t48.5 135v86h-2q-53 -105 -180 -105q-38 0 -73 13.5t-68 43t-52.5 84t-19.5 127.5q0 128 63 197.5t166 69.5q61 0 104.5 -31.5t62.5 -75.5h2v94h49v-494 q0 -111 -61 -169t-159 -58zM453 222v89q0 70 -44 125t-128 55q-82 0 -125 -61.5t-43 -161.5q0 -101 41.5 -162.5t129.5 -61.5q80 0 124.5 53t44.5 125z"/>
<glyph glyph-name="Gcommaaccent" d="M353 -215l32 134h53l-48 -134h-37zM408 733q-132 0 -207.5 -98t-75.5 -261q0 -160 76 -253.5t209 -93.5q113 0 180 66t67 165v65h-244v48h297v-371h-51v129h-2q-65 -145 -254 -145q-68 0 -126 21.5t-105.5 67t-74.5 123.5t-27 183q0 189 94.5 293t243.5 104 q121 0 197 -59t91 -155h-55q-17 79 -79.5 125t-153.5 46z" unicode="Ģ"/>
<glyph glyph-name="gcommaaccent" horiz-adv-x="605" unicode="ģ" d="M340 774l-30 -128h-53l51 128h32zM285 -199q-85 0 -138 40.5t-63 100.5h53q7 -40 47 -70t103 -30q69 0 117.5 42t48.5 135v86h-2q-53 -105 -180 -105q-38 0 -73 13.5t-68 43t-52.5 84t-19.5 127.5q0 128 63 197.5t166 69.5q61 0 104.5 -31.5t62.5 -75.5h2v94h49v-494 q0 -111 -61 -169t-159 -58zM453 222v89q0 70 -44 125t-128 55q-82 0 -125 -61.5t-43 -161.5q0 -101 41.5 -162.5t129.5 -61.5q80 0 124.5 53t44.5 125z"/>
<glyph glyph-name="Hcircumflex" horiz-adv-x="800" unicode="Ĥ" d="M428 960l118 -133h-55l-90 97h-1l-88 -97h-50l113 133h53zM174 370v-370h-54v765h54v-349h452v349h54v-765h-54v370h-452z"/>
<glyph glyph-name="hcircumflex" horiz-adv-x="587" unicode="ĥ" d="M319 960l118 -133h-55l-90 97h-1l-88 -97h-50l113 133h53zM436 0v336q0 77 -26 114q-28 39 -92 39q-81 0 -123 -55t-42 -130v-304h-53v788h53v-362h2q20 49 64 79t108 30q88 0 125 -47.5t37 -139.5v-348h-53z"/>
<glyph glyph-name="Hbar" horiz-adv-x="800" unicode="Ħ" d="M174 370v-370h-54v582h-95v40h95v143h54v-143h452v143h54v-143h92v-40h-92v-582h-54v370h-452zM626 416v166h-452v-166h452z"/>
<glyph glyph-name="hbar" horiz-adv-x="587" unicode="ħ" d="M153 304v-304h-53v636h-57v42h57v110h53v-110h181v-42h-181v-210h2q20 49 64 79t108 30q88 0 125 -47.5t37 -139.5v-348h-53v336q0 77 -26 114q-28 39 -92 39q-81 0 -123 -55t-42 -130z"/>
<glyph glyph-name="Itilde" horiz-adv-x="294" unicode="Ĩ" d="M-19 828q0 48 22.5 81.5t71.5 33.5q36 0 81 -35.5t65 -35.5q46 0 51 74h41q0 -48 -23 -81.5t-70 -33.5q-29 0 -56 17.5t-50 35.5t-41 18q-44 0 -51 -74h-41zM120 0v765h54v-765h-54z"/>
<glyph glyph-name="itilde" horiz-adv-x="253" unicode="ĩ" d="M-15 631q0 48 19.5 81.5t60.5 33.5q31 0 69 -35.5t55 -35.5q39 0 44 74h35q0 -47 -19.5 -81t-59.5 -34q-31 0 -70 35.5t-55 35.5q-37 0 -44 -74h-35zM99 0v522h53v-522h-53z"/>
<glyph glyph-name="Imacron" horiz-adv-x="294" unicode="Ī" d="M15 864v45h265v-45h-265zM120 0v765h54v-765h-54z"/>
<glyph glyph-name="imacron" horiz-adv-x="253" unicode="ī" d="M13 660v45h226v-45h-226zM99 0v522h53v-522h-53z"/>
<glyph glyph-name="Ibreve" horiz-adv-x="294" unicode="Ĭ" d="M10 969h45q8 -86 94 -86t94 86h41q-4 -65 -41.5 -97t-96.5 -32q-58 0 -94.5 31.5t-41.5 97.5zM120 0v765h54v-765h-54z"/>
<glyph glyph-name="ibreve" horiz-adv-x="253" unicode="ĭ" d="M2 768h41q0 -104 84 -104q86 0 86 104h37q0 -74 -34 -110.5t-91 -36.5q-56 0 -89.5 36t-33.5 111zM99 0v522h53v-522h-53z"/>
<glyph glyph-name="Iogonek" horiz-adv-x="294" unicode="Į" d="M174 -188h-20q-109 0 -109 86q0 61 75 101v766h54v-765q-82 -53 -82 -97q0 -28 21 -39t61 -11v-41z"/>
<glyph glyph-name="iogonek" horiz-adv-x="253" unicode="į" d="M146 -188h-20q-109 0 -109 86q0 67 82 104v520h53v-518q-27 -17 -43 -30t-30.5 -32.5t-14.5 -38.5q0 -28 21 -39t61 -11v-41zM96 660v64h60v-64h-60z"/>
<glyph glyph-name="Idotaccent" horiz-adv-x="294" unicode="İ" d="M117 840v64h60v-64h-60zM120 0v765h54v-765h-54z"/>
<glyph glyph-name="dotlessi" horiz-adv-x="252" unicode="ı" d="M99 0v522h53v-522h-53z"/>
<glyph glyph-name="IJ" horiz-adv-x="696" unicode="Ĳ" d="M120 0v765h54v-765h-54zM336 0h-17v46h10q119 0 161 42.5t42 156.5v520h54v-532q0 -119 -58 -176t-192 -57z"/>
<glyph glyph-name="ij" horiz-adv-x="515" unicode="ĳ" d="M286 -195q-25 0 -51 5v45q22 -5 51 -5q42 0 59 23t17 75v574h53v-586q0 -63 -34 -97t-95 -34zM358 660v64h60v-64h-60zM108 0v522h53v-522h-53zM105 660v64h60v-64h-60z"/>
<glyph glyph-name="Jcircumflex" horiz-adv-x="422" unicode="Ĵ" d="M314 960l118 -133h-55l-90 97h-1l-88 -97h-50l113 133h53zM62 0h-37v46h30q119 0 161 42.5t42 156.5v520h54v-532q0 -119 -58 -176t-192 -57z"/>
<glyph glyph-name="jcircumflex" horiz-adv-x="253" unicode="ĵ" d="M148 788l106 -154h-49l-81 118h-1l-79 -118h-44l101 154h47zM-27 -190v45q22 -5 51 -5q42 0 59 23t17 75v574h53v-586q0 -63 -34 -97t-95 -34q-25 0 -51 5z"/>
<glyph glyph-name="Kcommaaccent" horiz-adv-x="715" unicode="Ķ" d="M318 -215l32 134h53l-48 -134h-37zM174 275v-275h-54v765h54v-429l427 429h69l-322 -324l342 -441h-65l-316 410z"/>
<glyph glyph-name="kcommaaccent" horiz-adv-x="541" unicode="ķ" d="M239 -215l32 134h53l-48 -134h-37zM153 177v-177h-53v788h53v-545l255 279h65l-182 -197l218 -325h-63l-192 287z"/>
<glyph glyph-name="kgreenlandic" horiz-adv-x="536" unicode="ĸ" d="M153 177v-177h-53v522h53v-279l255 279h65l-182 -197l218 -325h-65l-191 285z"/>
<glyph glyph-name="Lacute" horiz-adv-x="626" unicode="Ĺ" d="M128 827l73 133h61l-89 -133h-45zM120 0v765h54v-718h407v-47h-461z"/>
<glyph glyph-name="lacute" horiz-adv-x="253" unicode="ĺ" d="M104 827l73 133h61l-89 -133h-45zM100 0v788h53v-788h-53z"/>
<glyph glyph-name="Lcommaaccent" horiz-adv-x="626" unicode="Ļ" d="M293 -215l32 134h53l-48 -134h-37zM120 0v765h54v-718h407v-47h-461z"/>
<glyph glyph-name="lcommaaccent" horiz-adv-x="253" unicode="ļ" d="M66 -215l32 134h53l-48 -134h-37zM100 0v788h53v-788h-53z"/>
<glyph glyph-name="Lcaron" horiz-adv-x="626" unicode="Ľ" d="M119 0v765h54v-718h407v-47h-461zM270 593l36 195h59l-51 -195h-44z"/>
<glyph glyph-name="lcaron" horiz-adv-x="253" unicode="ľ" d="M207 623l13 165h55l-28 -165h-40zM100 0v788h53v-788h-53z"/>
<glyph glyph-name="Ldot" horiz-adv-x="626" unicode="Ŀ" d="M428 344v69h70v-69h-70zM120 0v765h54v-718h407v-47h-461z"/>
<glyph glyph-name="ldot" horiz-adv-x="310" unicode="ŀ" d="M253 366v57h57v-57h-57zM100 0v788h53v-788h-53z"/>
<glyph glyph-name="Lslash" horiz-adv-x="626" unicode="Ł" d="M120 0v289l-83 -34v47l83 34v429h54v-406l260 107v-48l-260 -107v-264h407v-47h-461z"/>
<glyph glyph-name="lslash" horiz-adv-x="278" unicode="ł" d="M166 0h-53v343l-87 -70v55l87 70v390h53v-347l91 73v-56l-91 -73v-385z"/>
<glyph glyph-name="Nacute" horiz-adv-x="805" unicode="Ń" d="M380 827l73 133h61l-89 -133h-45zM120 0v765h63l417 -638l30 -51h2v689h53v-765h-65l-412 634l-33 55h-2v-689h-53z"/>
<glyph glyph-name="nacute" horiz-adv-x="587" unicode="ń" d="M281 634l70 154h59l-85 -154h-44zM436 0v336q0 77 -26 114q-28 39 -92 39q-81 0 -123 -54t-42 -131v-304h-53v522h49v-96h2q23 49 68 79t108 30q88 0 125 -47.5t37 -139.5v-348h-53z"/>
<glyph glyph-name="Ncommaaccent" horiz-adv-x="805" unicode="Ņ" d="M345 -215l32 134h53l-48 -134h-37zM120 0v765h63l417 -638l30 -51h2v689h53v-765h-65l-412 634l-33 55h-2v-689h-53z"/>
<glyph glyph-name="ncommaaccent" horiz-adv-x="587" unicode="ņ" d="M238 -215l32 134h53l-48 -134h-37zM436 0v336q0 77 -26 114q-28 39 -92 39q-81 0 -123 -54t-42 -131v-304h-53v522h49v-96h2q23 49 68 79t108 30q88 0 125 -47.5t37 -139.5v-348h-53z"/>
<glyph glyph-name="Ncaron" horiz-adv-x="805" unicode="Ň" d="M372 827l-118 133h55l90 -97h1l88 97h50l-113 -133h-53zM120 0v765h63l417 -638l30 -51h2v689h53v-765h-65l-412 634l-33 55h-2v-689h-53z"/>
<glyph glyph-name="ncaron" horiz-adv-x="587" unicode="ň" d="M271 634l-120 154h55l92 -118h1l90 118h50l-115 -154h-53zM436 0v336q0 77 -26 114q-28 39 -92 39q-81 0 -123 -54t-42 -131v-304h-53v522h49v-96h2q23 49 68 79t108 30q88 0 125 -47.5t37 -139.5v-348h-53z"/>
<glyph glyph-name="napostrophe" horiz-adv-x="587" unicode="ŉ" d="M436 0v336q0 77 -26 114q-28 39 -92 39q-81 0 -123 -54t-42 -131v-304h-53v522h49v-96h2q23 49 68 79t108 30q88 0 125 -47.5t37 -139.5v-348h-53zM58 654l32 134h53l-48 -134h-37z"/>
<glyph glyph-name="Eng" horiz-adv-x="805" unicode="Ŋ" d="M685 17q0 -45 -8 -77t-31.5 -63t-74 -47.5t-127.5 -17.5h-8v46h12q102 2 141 32.5t42 91.5l-423 652l-33 55h-2v-689h-53v765h63l417 -638l30 -51h2v689h53v-748z"/>
<glyph glyph-name="eng" horiz-adv-x="587" unicode="ŋ" d="M360 -195q-25 0 -51 5v45q22 -5 51 -5q42 0 59 23t17 75v388q0 77 -26 114q-28 39 -92 39q-81 0 -123 -54t-42 -131v-304h-53v522h49v-96h2q23 49 68 79t108 30q88 0 125 -47.5t37 -139.5v-412q0 -63 -34 -97t-95 -34z"/>
<glyph glyph-name="Omacron" d="M273 864v45h265v-45h-265zM405 27q125 0 202.5 91t77.5 261q0 171 -77.5 262.5t-202.5 91.5t-202.5 -91.5t-77.5 -262.5q0 -170 77.5 -261t202.5 -91zM70 379q0 101 27.5 179.5t75 124.5t106 69.5t126.5 23.5t126.5 -23.5t106 -69.5t75 -124.5t27.5 -179.5t-27.5 -179 t-75 -124t-106 -69t-126.5 -23t-126.5 23t-106 69t-75 124t-27.5 179z" unicode="Ō"/>
<glyph glyph-name="omacron" horiz-adv-x="564" unicode="ō" d="M150 660v45h265v-45h-265zM283 492q-81 0 -126 -62.5t-45 -168.5q0 -108 43 -169.5t128 -61.5q82 0 125 61.5t43 169.5t-42 169.5t-126 61.5zM283 -13q-113 0 -169 74.5t-56 199.5q0 119 60 196.5t165 77.5q113 0 168 -75.5t55 -198.5q0 -122 -58.5 -198t-164.5 -76z"/>
<glyph glyph-name="Obreve" d="M268 969h45q8 -86 94 -86t94 86h41q-4 -65 -41.5 -97t-96.5 -32q-58 0 -94.5 31.5t-41.5 97.5zM405 27q125 0 202.5 91t77.5 261q0 171 -77.5 262.5t-202.5 91.5t-202.5 -91.5t-77.5 -262.5q0 -170 77.5 -261t202.5 -91zM70 379q0 101 27.5 179.5t75 124.5t106 69.5 t126.5 23.5t126.5 -23.5t106 -69.5t75 -124.5t27.5 -179.5t-27.5 -179t-75 -124t-106 -69t-126.5 -23t-126.5 23t-106 69t-75 124t-27.5 179z" unicode="Ŏ"/>
<glyph glyph-name="obreve" horiz-adv-x="564" unicode="ŏ" d="M145 768h45q0 -104 94 -104q44 0 69.5 25.5t25.5 78.5h41q0 -74 -38 -110.5t-101 -36.5q-62 0 -99 36t-37 111zM283 492q-81 0 -126 -62.5t-45 -168.5q0 -108 43 -169.5t128 -61.5q82 0 125 61.5t43 169.5t-42 169.5t-126 61.5zM283 -13q-113 0 -169 74.5t-56 199.5 q0 119 60 196.5t165 77.5q113 0 168 -75.5t55 -198.5q0 -122 -58.5 -198t-164.5 -76z"/>
<glyph glyph-name="Ohungarumlaut" d="M316 842l51 133h60l-73 -133h-38zM442 842l44 133h61l-66 -133h-39zM405 27q125 0 202.5 91t77.5 261q0 171 -77.5 262.5t-202.5 91.5t-202.5 -91.5t-77.5 -262.5q0 -170 77.5 -261t202.5 -91zM70 379q0 101 27.5 179.5t75 124.5t106 69.5t126.5 23.5t126.5 -23.5 t106 -69.5t75 -124.5t27.5 -179.5t-27.5 -179t-75 -124t-106 -69t-126.5 -23t-126.5 23t-106 69t-75 124t-27.5 179z" unicode="Ő"/>
<glyph glyph-name="ohungarumlaut" horiz-adv-x="564" unicode="ő" d="M191 634l70 154h57l-85 -154h-42zM319 634l70 154h57l-85 -154h-42zM283 492q-81 0 -126 -62.5t-45 -168.5q0 -108 43 -169.5t128 -61.5q82 0 125 61.5t43 169.5t-42 169.5t-126 61.5zM283 -13q-113 0 -169 74.5t-56 199.5q0 119 60 196.5t165 77.5q113 0 168 -75.5 t55 -198.5q0 -122 -58.5 -198t-164.5 -76z"/>
<glyph glyph-name="OE" horiz-adv-x="1230" unicode="Œ" d="M668 144q-46 -82 -108 -121t-155 -39q-68 0 -126.5 23t-106 69t-75 124t-27.5 180q0 101 27.5 179t75 124.5t106 69.5t126.5 23q100 0 165.5 -44t97.5 -115h3v148h486v-47h-433v-302h393v-46h-393v-323h436v-47h-489v144h-3zM671 337v106q0 130 -73 210t-193 80 q-125 0 -202.5 -91.5t-77.5 -262.5q0 -166 78 -259t202 -93q121 0 193.5 82.5t72.5 227.5z"/>
<glyph glyph-name="oe" horiz-adv-x="932" unicode="œ" d="M868 125q-15 -60 -66 -99t-125 -39q-160 0 -202 142q-47 -142 -192 -142q-113 0 -169 74.5t-56 199.5q0 119 60 196.5t165 77.5q153 0 195 -147q49 147 197 147q55 0 96 -21.5t63 -58t32.5 -77t10.5 -85.5v-42l-375 -1q5 -220 176 -220q33 0 60 10.5t43 27.5t24.5 30.5 t13.5 26.5h49zM283 492q-81 0 -126 -62.5t-45 -168.5q0 -108 43 -169.5t128 -61.5q82 0 125 61.5t43 169.5t-42 169.5t-126 61.5zM826 290v5q0 34 -6.5 64.5t-21.5 62.5t-46.5 51t-76.5 19q-79 0 -122.5 -55t-49.5 -147h323z"/>
<glyph glyph-name="Racute" horiz-adv-x="720" unicode="Ŕ" d="M313 827l73 133h61l-89 -133h-45zM588 0l-173 327h-241v-327h-54v765h271q91 0 152 -34q98 -56 98 -177q0 -85 -46.5 -142t-122.5 -75v-2l178 -335h-62zM174 372h221q84 0 138 45t54 136q0 79 -50.5 122t-141.5 43h-221v-346z"/>
<glyph glyph-name="racute" horiz-adv-x="368" unicode="ŕ" d="M191 634l70 154h59l-85 -154h-44zM100 0v522h49v-117h2q15 52 60.5 89.5t102.5 37.5h9v-50h-11q-63 0 -111 -48.5t-48 -146.5v-287h-53z"/>
<glyph glyph-name="Rcommaaccent" horiz-adv-x="715" unicode="Ŗ" d="M314 -215l32 134h53l-48 -134h-37zM588 0l-173 327h-241v-327h-54v765h271q91 0 152 -34q98 -56 98 -177q0 -85 -46.5 -142t-122.5 -75v-2l178 -335h-62zM174 372h221q84 0 138 45t54 136q0 79 -50.5 122t-141.5 43h-221v-346z"/>
<glyph glyph-name="rcommaaccent" horiz-adv-x="368" unicode="ŗ" d="M67 -215l32 134h53l-48 -134h-37zM100 0v522h49v-117h2q15 52 60.5 89.5t102.5 37.5h9v-50h-11q-63 0 -111 -48.5t-48 -146.5v-287h-53z"/>
<glyph glyph-name="Rcaron" horiz-adv-x="720" unicode="Ř" d="M305 827l-118 133h55l90 -97h1l88 97h50l-113 -133h-53zM588 0l-173 327h-241v-327h-54v765h271q91 0 152 -34q98 -56 98 -177q0 -85 -46.5 -142t-122.5 -75v-2l178 -335h-62zM174 372h221q84 0 138 45t54 136q0 79 -50.5 122t-141.5 43h-221v-346z"/>
<glyph glyph-name="rcaron" horiz-adv-x="368" unicode="ř" d="M181 634l-120 154h55l92 -118h1l90 118h50l-115 -154h-53zM100 0v522h49v-117h2q15 52 60.5 89.5t102.5 37.5h9v-50h-11q-63 0 -111 -48.5t-48 -146.5v-287h-53z"/>
<glyph glyph-name="Sacute" horiz-adv-x="710" unicode="Ś" d="M338 827l73 133h61l-89 -133h-45zM614 562h-52q-13 170 -198 170q-90 0 -146 -41t-56 -118q0 -65 34.5 -99.5t115.5 -47.5l144 -25q184 -30 184 -189q0 -101 -73.5 -164.5t-202.5 -63.5q-131 0 -204 66t-80 162h51q10 -76 66 -130t167 -54t166.5 51t55.5 128 q0 61 -31.5 95.5t-106.5 47.5l-136 24q-110 19 -157 67t-47 132q0 94 72.5 148.5t183.5 54.5q120 0 183.5 -56t66.5 -158z"/>
<glyph glyph-name="sacute" horiz-adv-x="508" unicode="ś" d="M240 634l70 154h59l-85 -154h-44zM443 401h-52q-8 42 -43 66.5t-91 24.5q-58 0 -93.5 -29t-35.5 -72q0 -79 85 -90l103 -14q67 -9 102 -46t35 -92q0 -72 -54 -117t-142 -45q-180 0 -205 158h52q22 -115 153 -115q65 0 104 32t39 80q0 41 -22 65t-77 31l-90 12 q-134 18 -134 135q0 68 51 109t129 41q79 0 129 -35.5t57 -98.5z"/>
<glyph glyph-name="Scircumflex" horiz-adv-x="710" unicode="Ŝ" d="M388 960l118 -133h-55l-90 97h-1l-88 -97h-50l113 133h53zM614 562h-52q-13 170 -198 170q-90 0 -146 -41t-56 -118q0 -65 34.5 -99.5t115.5 -47.5l144 -25q184 -30 184 -189q0 -101 -73.5 -164.5t-202.5 -63.5q-131 0 -204 66t-80 162h51q10 -76 66 -130t167 -54 t166.5 51t55.5 128q0 61 -31.5 95.5t-106.5 47.5l-136 24q-110 19 -157 67t-47 132q0 94 72.5 148.5t183.5 54.5q120 0 183.5 -56t66.5 -158z"/>
<glyph glyph-name="scircumflex" horiz-adv-x="508" unicode="ŝ" d="M288 788l120 -154h-55l-92 118h-1l-90 -118h-50l115 154h53zM443 401h-52q-8 42 -43 66.5t-91 24.5q-58 0 -93.5 -29t-35.5 -72q0 -79 85 -90l103 -14q67 -9 102 -46t35 -92q0 -72 -54 -117t-142 -45q-180 0 -205 158h52q22 -115 153 -115q65 0 104 32t39 80q0 41 -22 65 t-77 31l-90 12q-134 18 -134 135q0 68 51 109t129 41q79 0 129 -35.5t57 -98.5z"/>
<glyph glyph-name="Scedilla" horiz-adv-x="710" unicode="Ş" d="M355 -206q-35 0 -53.5 16.5t-20.5 42.5h45q4 -25 32 -25q34 0 34 41q0 40 -33 40q-16 0 -28 -12h-43l40 88q-115 10 -178.5 74.5t-69.5 152.5h51q10 -76 66 -130t167 -54t166.5 51t55.5 128q0 61 -31.5 95.5t-106.5 47.5l-136 24q-110 19 -157 67t-47 132 q0 94 72.5 148.5t183.5 54.5q120 0 183.5 -56t66.5 -158h-52q-13 170 -198 170q-90 0 -146 -41t-56 -118q0 -65 34.5 -99.5t115.5 -47.5l144 -25q184 -30 184 -189q0 -101 -73.5 -164.5t-201.5 -63.5l-27 -57h2q15 13 35 13q30 0 47 -19t17 -53q0 -31 -21.5 -52.5 t-62.5 -21.5z"/>
<glyph glyph-name="scedilla" horiz-adv-x="508" unicode="ş" d="M255 -206q-35 0 -53.5 16.5t-20.5 42.5h45q4 -25 32 -25q34 0 34 41q0 40 -33 40q-16 0 -28 -12h-43l41 91q-154 12 -177 157h52q22 -115 153 -115q65 0 104 32t39 80q0 41 -22 65t-77 31l-90 12q-134 18 -134 135q0 68 51 109t129 41q79 0 129 -35.5t57 -98.5h-52 q-8 42 -43 66.5t-91 24.5q-58 0 -93.5 -29t-35.5 -72q0 -79 85 -90l103 -14q67 -9 102 -46t35 -92q0 -69 -51 -114t-135 -48l-29 -60h2q15 13 35 13q30 0 47 -19t17 -53q0 -31 -21.5 -52.5t-62.5 -21.5z"/>
<glyph glyph-name="Scaron" horiz-adv-x="710" unicode="Š" d="M330 827l-118 133h55l90 -97h1l88 97h50l-113 -133h-53zM614 562h-52q-13 170 -198 170q-90 0 -146 -41t-56 -118q0 -65 34.5 -99.5t115.5 -47.5l144 -25q184 -30 184 -189q0 -101 -73.5 -164.5t-202.5 -63.5q-131 0 -204 66t-80 162h51q10 -76 66 -130t167 -54t166.5 51 t55.5 128q0 61 -31.5 95.5t-106.5 47.5l-136 24q-110 19 -157 67t-47 132q0 94 72.5 148.5t183.5 54.5q120 0 183.5 -56t66.5 -158z"/>
<glyph glyph-name="scaron" horiz-adv-x="508" unicode="š" d="M230 634l-120 154h55l92 -118h1l90 118h50l-115 -154h-53zM443 401h-52q-8 42 -43 66.5t-91 24.5q-58 0 -93.5 -29t-35.5 -72q0 -79 85 -90l103 -14q67 -9 102 -46t35 -92q0 -72 -54 -117t-142 -45q-180 0 -205 158h52q22 -115 153 -115q65 0 104 32t39 80q0 41 -22 65 t-77 31l-90 12q-134 18 -134 135q0 68 51 109t129 41q79 0 129 -35.5t57 -98.5z"/>
<glyph glyph-name="Tcommaaccent" horiz-adv-x="650" unicode="Ţ" d="M262 -215l32 134h53l-48 -134h-37zM634 765v-46h-282v-719h-54v719h-282v46h618z"/>
<glyph glyph-name="tcommaaccent" horiz-adv-x="361" unicode="ţ" d="M161 -215l32 134h53l-48 -134h-37zM131 681h51v-159h137v-43h-137v-360q0 -43 20.5 -63t65.5 -20q15 0 30.5 2t23.5 4l9 2v-45q-25 -8 -72 -8q-130 0 -130 125v363h-104v42h29q48 0 62.5 18t14.5 86v56z"/>
<glyph glyph-name="Tcaron" horiz-adv-x="650" unicode="Ť" d="M295 827l-118 133h55l90 -97h1l88 97h50l-113 -133h-53zM634 765v-46h-282v-719h-54v719h-282v46h618z"/>
<glyph glyph-name="tcaron" horiz-adv-x="361" unicode="ť" d="M247 623l13 165h55l-28 -165h-40zM131 681h51v-159h137v-43h-137v-360q0 -43 20.5 -63t65.5 -20q15 0 30.5 2t23.5 4l9 2v-45q-25 -8 -72 -8q-130 0 -130 125v363h-104v42h29q48 0 62.5 18t14.5 86v56z"/>
<glyph glyph-name="Tbar" horiz-adv-x="650" unicode="Ŧ" d="M351 453v-453h-54v453h-212v42h212v224h-282v46h618v-46h-282v-224h213v-42h-213z"/>
<glyph glyph-name="tbar" horiz-adv-x="361" unicode="ŧ" d="M331 -1q-25 -8 -72 -8q-130 0 -130 125v152h-104v43h104v168h-104v42h29q48 0 62.5 18t14.5 86v56h51v-159h137v-43h-137v-168h137v-43h-137v-149q0 -43 20.5 -63t65.5 -20q15 0 30.5 2t23.5 4l9 2v-45z"/>
<glyph glyph-name="Utilde" horiz-adv-x="766" unicode="Ũ" d="M217 828q0 48 22.5 81.5t71.5 33.5q36 0 81 -35.5t65 -35.5q46 0 51 74h41q0 -48 -23 -81.5t-70 -33.5q-29 0 -56 17.5t-50 35.5t-41 18q-44 0 -51 -74h-41zM105 255v510h54v-432v-11q0 -52 1.5 -83.5t11.5 -72.5t30 -66q56 -72 184 -72q123 0 180 73q19 25 29 66 t11.5 72t1.5 83v11v432h53v-510q0 -139 -73.5 -204.5t-204.5 -65.5t-204.5 65.5t-73.5 204.5z"/>
<glyph glyph-name="utilde" horiz-adv-x="585" unicode="ũ" d="M125 631q0 48 22.5 81.5t71.5 33.5q36 0 81 -35.5t65 -35.5q46 0 51 74h41q0 -48 -23 -81.5t-70 -33.5q-29 0 -56 18t-50 35.5t-41 17.5q-44 0 -51 -74h-41zM151 522v-345q0 -71 25 -106q30 -39 99 -39q76 0 116.5 58t40.5 151v281h53v-522h-49v102h-2q-22 -51 -64.5 -83 t-104.5 -32q-88 0 -127.5 46.5t-39.5 137.5v351h53z"/>
<glyph glyph-name="Umacron" horiz-adv-x="766" unicode="Ū" d="M251 864v45h265v-45h-265zM105 255v510h54v-432v-11q0 -52 1.5 -83.5t11.5 -72.5t30 -66q56 -72 184 -72q123 0 180 73q19 25 29 66t11.5 72t1.5 83v11v432h53v-510q0 -139 -73.5 -204.5t-204.5 -65.5t-204.5 65.5t-73.5 204.5z"/>
<glyph glyph-name="umacron" horiz-adv-x="585" unicode="ū" d="M159 660v45h265v-45h-265zM151 522v-345q0 -71 25 -106q30 -39 99 -39q76 0 116.5 58t40.5 151v281h53v-522h-49v102h-2q-22 -51 -64.5 -83t-104.5 -32q-88 0 -127.5 46.5t-39.5 137.5v351h53z"/>
<glyph glyph-name="Ubreve" horiz-adv-x="766" unicode="Ŭ" d="M246 969h45q8 -86 94 -86t94 86h41q-4 -65 -41.5 -97t-96.5 -32q-58 0 -94.5 31.5t-41.5 97.5zM105 255v510h54v-432v-11q0 -52 1.5 -83.5t11.5 -72.5t30 -66q56 -72 184 -72q123 0 180 73q19 25 29 66t11.5 72t1.5 83v11v432h53v-510q0 -139 -73.5 -204.5t-204.5 -65.5 t-204.5 65.5t-73.5 204.5z"/>
<glyph glyph-name="ubreve" horiz-adv-x="585" unicode="ŭ" d="M154 768h45q0 -104 94 -104q44 0 69.5 25.5t25.5 78.5h41q0 -74 -38 -110.5t-101 -36.5q-62 0 -99 36t-37 111zM151 522v-345q0 -71 25 -106q30 -39 99 -39q76 0 116.5 58t40.5 151v281h53v-522h-49v102h-2q-22 -51 -64.5 -83t-104.5 -32q-88 0 -127.5 46.5t-39.5 137.5 v351h53z"/>
<glyph glyph-name="Uring" horiz-adv-x="766" unicode="Ů" d="M384 978q-25 0 -40.5 -18t-15.5 -46q0 -29 14.5 -46t41.5 -17q26 0 41 17.5t15 45.5t-14.5 46t-41.5 18zM384 818q-44 0 -70.5 27t-26.5 69t27 69t70 27q44 0 71 -27t27 -69t-27 -69t-71 -27zM105 255v510h54v-432v-11q0 -52 1.5 -83.5t11.5 -72.5t30 -66q56 -72 184 -72 q123 0 180 73q19 25 29 66t11.5 72t1.5 83v11v432h53v-510q0 -139 -73.5 -204.5t-204.5 -65.5t-204.5 65.5t-73.5 204.5z"/>
<glyph glyph-name="uring" horiz-adv-x="585" unicode="ů" d="M291 799q-25 0 -40.5 -18t-15.5 -46q0 -29 14.5 -46t41.5 -17q26 0 41 17.5t15 45.5t-14.5 46t-41.5 18zM291 639q-44 0 -70.5 27t-26.5 69t27 69t70 27q45 0 71.5 -26.5t26.5 -69.5q0 -42 -27 -69t-71 -27zM151 522v-345q0 -71 25 -106q30 -39 99 -39q76 0 116.5 58 t40.5 151v281h53v-522h-49v102h-2q-22 -51 -64.5 -83t-104.5 -32q-88 0 -127.5 46.5t-39.5 137.5v351h53z"/>
<glyph glyph-name="Uhungarumlaut" horiz-adv-x="766" unicode="Ű" d="M294 842l51 133h60l-73 -133h-38zM420 842l44 133h61l-66 -133h-39zM105 255v510h54v-432v-11q0 -52 1.5 -83.5t11.5 -72.5t30 -66q56 -72 184 -72q123 0 180 73q19 25 29 66t11.5 72t1.5 83v11v432h53v-510q0 -139 -73.5 -204.5t-204.5 -65.5t-204.5 65.5t-73.5 204.5z "/>
<glyph glyph-name="uhungarumlaut" horiz-adv-x="585" unicode="ű" d="M200 634l70 154h57l-85 -154h-42zM328 634l70 154h57l-85 -154h-42zM151 522v-345q0 -71 25 -106q30 -39 99 -39q76 0 116.5 58t40.5 151v281h53v-522h-49v102h-2q-22 -51 -64.5 -83t-104.5 -32q-88 0 -127.5 46.5t-39.5 137.5v351h53z"/>
<glyph glyph-name="Uogonek" horiz-adv-x="766" unicode="Ų" d="M105 255v510h54v-432v-11q0 -52 1.5 -83.5t11.5 -72.5t30 -66q56 -72 184 -72q123 0 180 73q19 25 29 66t11.5 72t1.5 83v11v432h53v-510q0 -211 -176 -258q-46 -12 -76.5 -37t-30.5 -57q0 -28 21 -39t61 -11v-41h-20q-109 0 -109 86q0 52 52 87q-131 0 -204.5 65.5 t-73.5 204.5z"/>
<glyph glyph-name="uogonek" horiz-adv-x="585" unicode="ų" d="M485 -188h-20q-109 0 -109 86q0 70 80 106v98h-2q-22 -51 -64.5 -83t-104.5 -32q-88 0 -127.5 46.5t-39.5 137.5v351h53v-345q0 -71 25 -106q30 -39 99 -39q76 0 116.5 58t40.5 151v281h53v-518q-82 -53 -82 -101q0 -28 21 -39t61 -11v-41z"/>
<glyph glyph-name="Wcircumflex" horiz-adv-x="1027" unicode="Ŵ" d="M541 960l118 -133h-55l-90 97h-1l-88 -97h-50l113 133h53zM307 0h-53l-222 765h53l179 -617l17 -69h2q5 31 16 69l179 617h68l178 -616l19 -73h2q8 39 18 72l179 617h53l-222 -765h-59l-170 593l-31 117h-3q-10 -39 -32 -115z"/>
<glyph glyph-name="wcircumflex" horiz-adv-x="806" unicode="ŵ" d="M431 788l120 -154h-55l-92 118h-1l-90 -118h-50l115 154h53zM260 0h-60l-166 522h54l129 -414l14 -47h2q7 24 15 48l128 413h57l130 -413l14 -48h2l12 48l128 413h53l-167 -522h-59l-120 380l-22 77h-2q-10 -40 -22 -77z"/>
<glyph glyph-name="Ycircumflex" horiz-adv-x="630" unicode="Ŷ" d="M345 960l118 -133h-55l-90 97h-1l-88 -97h-50l113 133h53zM289 0v341l-275 424h61l240 -375h2l241 375h58l-274 -422v-343h-53z"/>
<glyph glyph-name="ycircumflex" horiz-adv-x="472" unicode="ŷ" d="M268 788l120 -154h-55l-92 118h-1l-90 -118h-50l115 154h53zM211 -1l-181 523h55l130 -383l22 -70h2q11 38 22 70l130 383h51l-197 -571q-29 -85 -64 -117.5t-96 -32.5q-25 0 -63 11v45q34 -12 63 -12q43 0 66 23.5t40 73.5z"/>
<glyph glyph-name="Ydieresis" horiz-adv-x="630" unicode="Ÿ" d="M175 852v73h68v-73h-68zM391 852v73h68v-73h-68zM289 0v341l-275 424h61l240 -375h2l241 375h58l-274 -422v-343h-53z"/>
<glyph glyph-name="Zacute" horiz-adv-x="652" unicode="Ź" d="M325 827l73 133h61l-89 -133h-45zM68 720v45h534v-42l-496 -678h491v-45h-553v42l496 678h-472z"/>
<glyph glyph-name="zacute" horiz-adv-x="498" unicode="ź" d="M237 634l70 154h59l-85 -154h-44zM61 477v45h384v-45l-342 -431h350v-46h-408v46l340 431h-324z"/>
<glyph glyph-name="Zdotaccent" horiz-adv-x="652" unicode="Ż" d="M317 840v64h60v-64h-60zM68 720v45h534v-42l-496 -678h491v-45h-553v42l496 678h-472z"/>
<glyph glyph-name="zdotaccent" horiz-adv-x="498" unicode="ż" d="M227 660v64h60v-64h-60zM61 477v45h384v-45l-342 -431h350v-46h-408v46l340 431h-324z"/>
<glyph glyph-name="Zcaron" horiz-adv-x="652" unicode="Ž" d="M317 827l-118 133h55l90 -97h1l88 97h50l-113 -133h-53zM68 720v45h534v-42l-496 -678h491v-45h-553v42l496 678h-472z"/>
<glyph glyph-name="zcaron" horiz-adv-x="498" unicode="ž" d="M227 634l-120 154h55l92 -118h1l90 118h50l-115 -154h-53zM61 477v45h384v-45l-342 -431h350v-46h-408v46l340 431h-324z"/>
<glyph glyph-name="florin" horiz-adv-x="389" unicode="ƒ" d="M172 380l-77 -569h-53l78 569h-105v41h110l30 219q10 68 51.5 105t102.5 37q23 0 51 -5v-45q-23 5 -51 5q-88 0 -103 -108l-28 -208h138v-41h-144z"/>
<glyph glyph-name="Aringacute" horiz-adv-x="713" unicode="Ǻ" d="M342 1016l73 133h61l-89 -133h-45zM357 956q-25 0 -40.5 -18t-15.5 -46q0 -29 14.5 -46t41.5 -17q26 0 41 17.5t15 45.5t-14.5 46t-41.5 18zM357 796q-44 0 -70.5 27t-26.5 69t27 69t70 27q45 0 71.5 -27t26.5 -69t-27 -69t-71 -27zM622 0l-100 267h-333l-101 -267h-53 l291 765h63l289 -765h-56zM356 715q-4 -18 -32 -93l-118 -310h299l-116 311l-31 92h-2z"/>
<glyph glyph-name="aringacute" horiz-adv-x="552" unicode="ǻ" d="M260 825l73 133h61l-89 -133h-45zM278 752q-25 0 -40.5 -18t-15.5 -46q0 -29 14.5 -46t41.5 -17q26 0 41 17.5t15 45.5t-14.5 46t-41.5 18zM278 592q-44 0 -70.5 27t-26.5 69t27 69t70 27q44 0 71 -27t27 -69t-27 -69t-71 -27zM137 387h-50q0 62 49.5 105t132.5 43 q56 0 93.5 -16t55.5 -46t24.5 -60t6.5 -69v-238q0 -39 13 -55t40 -16v-41h-8q-50 0 -71.5 26.5t-22.5 84.5h-2q-26 -54 -73 -83.5t-108 -29.5q-70 0 -113.5 38.5t-43.5 106.5q0 83 67 123q34 20 96 29.5t176 17.5v41q0 144 -130 144q-60 0 -94 -28.5t-38 -76.5zM228 35 q67 0 118.5 53.5t51.5 144.5v31q-115 -8 -167 -16.5t-75 -24.5q-42 -30 -42 -85q0 -50 31 -76.5t83 -26.5z"/>
<glyph glyph-name="AEacute" horiz-adv-x="1068" unicode="Ǽ" d="M496 827l73 133h61l-89 -133h-45zM218 267l-124 -268l-56 1l352 765h605v-47h-433v-302h393v-46h-393v-323h436v-47h-490v267h-290zM508 312v406h-81l-188 -406h269z"/>
<glyph glyph-name="aeacute" horiz-adv-x="854" unicode="ǽ" d="M437 634l70 154h59l-85 -154h-44zM225 35q69 0 120.5 54t51.5 157v13q-111 0 -164.5 -6.5t-85.5 -31.5q-35 -28 -35 -80q0 -50 31 -78t82 -28zM796 125q-16 -61 -67.5 -99.5t-121.5 -38.5q-76 0 -127 38.5t-66 99.5h-4q-30 -65 -75.5 -99t-118.5 -34q-71 0 -114.5 40 t-43.5 108q0 84 70 124q41 23 96.5 31t173.5 8v45q0 144 -131 144q-60 0 -94 -28.5t-38 -76.5h-50q0 62 49.5 105t132.5 43q134 0 166 -104h4q55 104 173 104q68 0 113.5 -37t63 -89t17.5 -115v-35h-361v-12q0 -111 40.5 -164t127.5 -53q60 0 93 30t42 65h50zM752 303v5 q-1 77 -37 130.5t-111 53.5q-74 0 -114.5 -55t-45.5 -134h308z"/>
<glyph glyph-name="Oslashacute" d="M385 827l73 133h61l-89 -133h-45zM740 379q0 -101 -27.5 -179t-75 -124t-106 -69t-126.5 -23q-128 0 -215 75l-63 -84h-58l89 117q-88 104 -88 287q0 101 27.5 179.5t75 124.5t106 69.5t126.5 23.5q127 0 213 -74l69 91h58l-94 -125q89 -105 89 -289zM405 27 q125 0 202.5 91t77.5 261q0 159 -64 250l-402 -533q72 -69 186 -69zM405 733q-125 0 -202.5 -91.5t-77.5 -262.5q0 -156 63 -246l402 532q-69 68 -185 68z" unicode="Ǿ"/>
<glyph glyph-name="oslashacute" horiz-adv-x="564" unicode="ǿ" d="M263 634l70 154h59l-85 -154h-44zM506 261q0 -122 -58.5 -198t-164.5 -76q-90 0 -146 50l-40 -53h-51l64 83q-52 71 -52 194q0 119 60 196.5t165 77.5q89 0 145 -51l39 51h53l-64 -83q50 -72 50 -191zM283 30q82 0 125 61.5t43 169.5q0 92 -29 147l-254 -332 q41 -46 115 -46zM283 492q-81 0 -126 -62.5t-45 -168.5q0 -92 31 -150l255 334q-42 47 -115 47z"/>
<glyph glyph-name="Scommaaccent" horiz-adv-x="710" unicode="Ș" d="M303 -215l32 134h53l-48 -134h-37zM614 562h-52q-13 170 -198 170q-90 0 -146 -41t-56 -118q0 -65 34.5 -99.5t115.5 -47.5l144 -25q184 -30 184 -189q0 -101 -73.5 -164.5t-202.5 -63.5q-131 0 -204 66t-80 162h51q10 -76 66 -130t167 -54t166.5 51t55.5 128 q0 61 -31.5 95.5t-106.5 47.5l-136 24q-110 19 -157 67t-47 132q0 94 72.5 148.5t183.5 54.5q120 0 183.5 -56t66.5 -158z"/>
<glyph glyph-name="scommaaccent" horiz-adv-x="508" unicode="ș" d="M203 -215l32 134h53l-48 -134h-37zM443 401h-52q-8 42 -43 66.5t-91 24.5q-58 0 -93.5 -29t-35.5 -72q0 -79 85 -90l103 -14q67 -9 102 -46t35 -92q0 -72 -54 -117t-142 -45q-180 0 -205 158h52q22 -115 153 -115q65 0 104 32t39 80q0 41 -22 65t-77 31l-90 12 q-134 18 -134 135q0 68 51 109t129 41q79 0 129 -35.5t57 -98.5z"/>
<glyph glyph-name="uni021A" horiz-adv-x="650" unicode="Ț" d="M262 -215l32 134h53l-48 -134h-37zM634 765v-46h-282v-719h-54v719h-282v46h618z"/>
<glyph glyph-name="uni021B" horiz-adv-x="361" unicode="ț" d="M161 -215l32 134h53l-48 -134h-37zM131 681h51v-159h137v-43h-137v-360q0 -43 20.5 -63t65.5 -20q15 0 30.5 2t23.5 4l9 2v-45q-25 -8 -72 -8q-130 0 -130 125v363h-104v42h29q48 0 62.5 18t14.5 86v56z"/>
<glyph glyph-name="uni0237" horiz-adv-x="253" unicode="ȷ" d="M-27 -190v45q22 -5 51 -5q42 0 59 23t17 75v574h53v-586q0 -63 -34 -97t-95 -34q-25 0 -51 5z"/>
<glyph glyph-name="circumflex" horiz-adv-x="369" unicode="ˆ" d="M209 788l120 -154h-55l-92 118h-1l-90 -118h-50l115 154h53z"/>
<glyph glyph-name="tilde" horiz-adv-x="369" unicode="˜" d="M17 631q0 48 22.5 81.5t71.5 33.5q36 0 81 -35.5t65 -35.5q46 0 51 74h41q0 -48 -23 -81.5t-70 -33.5q-29 0 -56 18t-50 35.5t-41 17.5q-44 0 -51 -74h-41z"/>
<glyph glyph-name="uni2009" horiz-adv-x="30" unicode=" "/>
<glyph glyph-name="endash" horiz-adv-x="530" unicode="–" d="M60 317v44h410v-44h-410z"/>
<glyph glyph-name="emdash" horiz-adv-x="900" unicode="—" d="M60 317v44h780v-44h-780z"/>
<glyph glyph-name="quoteleft" horiz-adv-x="195" unicode="‘" d="M160 765l-49 -193h-61l69 193h41z"/>
<glyph glyph-name="quotesinglbase" horiz-adv-x="195" unicode="‚" d="M50 -112l49 193h61l-69 -193h-41z"/>
<glyph glyph-name="quotedblleft" horiz-adv-x="336" unicode="“" d="M160 765l-49 -193h-61l69 193h41zM301 765l-49 -193h-61l69 193h41z"/>
<glyph glyph-name="quotedblright" horiz-adv-x="336" unicode="”" d="M45 572l49 193h61l-69 -193h-41zM186 572l49 193h61l-69 -193h-41z"/>
<glyph glyph-name="dagger" horiz-adv-x="320" unicode="†" d="M182 622v-332h-46v332h-98v41h98v102h46v-102h100v-41h-100z"/>
<glyph glyph-name="daggerdbl" horiz-adv-x="320" unicode="‡" d="M182 398v-108h-46v108h-98v41h98v183h-98v41h98v102h46v-102h100v-41h-100v-183h100v-41h-100z"/>
<glyph glyph-name="ellipsis" horiz-adv-x="642" unicode="…" d="M70 0v74h74v-74h-74zM284 0v74h74v-74h-74zM498 0v74h74v-74h-74z"/>
<glyph glyph-name="perthousand" horiz-adv-x="1263" unicode="‰" d="M651 34q45 0 77.5 36.5t32.5 102.5q0 67 -32.5 103.5t-77.5 36.5q-46 0 -78 -35.5t-32 -104.5q0 -67 32 -103t78 -36zM1041 34q45 0 77.5 36.5t32.5 102.5q0 67 -32.5 103.5t-77.5 36.5q-46 0 -78 -35.5t-32 -104.5q0 -67 32 -103t78 -36zM651 -6q-71 0 -116 49t-45 131 t45.5 130.5t115.5 48.5t115.5 -48.5t45.5 -130.5q0 -81 -45.5 -130.5t-115.5 -49.5zM1041 -6q-71 0 -116 49t-45 131t45.5 130.5t115.5 48.5t115.5 -48.5t45.5 -130.5q0 -81 -45.5 -130.5t-115.5 -49.5zM216 422q45 0 77.5 36.5t32.5 102.5q0 67 -32.5 103.5t-77.5 36.5 q-46 0 -78 -35.5t-32 -104.5q0 -67 32 -103t78 -36zM216 382q-71 0 -116 49t-45 131t45.5 130.5t115.5 48.5t115.5 -48.5t45.5 -130.5q0 -81 -45.5 -130.5t-115.5 -49.5zM134 -40l554 821h52l-554 -821h-52z"/>
<glyph glyph-name="uni2032" horiz-adv-x="196" unicode="′" d="M63 572l6 193h66l-28 -193h-44z"/>
<glyph glyph-name="uni2033" horiz-adv-x="339" unicode="″" d="M63 572l6 193h66l-28 -193h-44zM205 572l7 193h65l-27 -193h-45z"/>
<glyph glyph-name="guilsinglleft" horiz-adv-x="308" unicode="‹" d="M177 464h55l-115 -204l116 -203h-55l-118 203z"/>
<glyph glyph-name="guilsinglright" horiz-adv-x="308" unicode="›" d="M133 57h-57l117 204l-118 203h57l116 -203z"/>
<glyph glyph-name="fraction" horiz-adv-x="231" unicode="⁄" d="M-186 -40l552 828h55l-552 -828h-55z"/>
<glyph glyph-name="Euro" horiz-adv-x="645" unicode="€" d="M584 201q-6 -101 -63.5 -159t-156.5 -58q-60 0 -106.5 22t-76 62.5t-47 91t-24.5 113.5h-85v45h81q-1 16 -1 50q0 32 1 48h-81v45h85q17 132 80 211.5t175 79.5q86 0 151 -54t70 -162h-52q-4 71 -49.5 121.5t-119.5 50.5q-168 0 -200 -247h269v-45h-273q-1 -16 -1 -48 q0 -33 1 -50h275v-45h-270q9 -70 29.5 -123t63.5 -88.5t104 -35.5q80 0 121.5 47t47.5 128h52z"/>
<glyph glyph-name="trademark" horiz-adv-x="741" unicode="™" d="M342 459v306h60l73 -204l11 -44h3q2 17 12 44l71 204h59v-306h-38v261h-3q-6 -27 -18 -62l-69 -199h-32l-73 203l-16 58h-3v-261h-37zM274 765v-35h-102v-271h-43v271h-101v35h246z"/>
<glyph glyph-name="minus" horiz-adv-x="629" unicode="−" d="M90 335v45h453v-45h-453z"/>
<glyph glyph-name="approxequal" horiz-adv-x="603" unicode="≈" d="M90 228q3 49 32.5 80.5t79.5 31.5q43 0 105.5 -33.5t95.5 -33.5q26 0 44.5 17t20.5 50h45q-3 -49 -32.5 -80.5t-79.5 -31.5q-43 0 -105.5 33t-95.5 33q-26 0 -44.5 -17t-20.5 -49h-45zM90 401q3 49 32.5 80.5t79.5 31.5q43 0 105.5 -33t95.5 -33q26 0 44.5 17t20.5 49h45 q-3 -49 -32.5 -80.5t-79.5 -31.5q-43 0 -105.5 33.5t-95.5 33.5q-26 0 -44.5 -17t-20.5 -50h-45z"/>
<glyph glyph-name="notequal" horiz-adv-x="633" unicode="≠" d="M283 253l-68 -130h-44l68 130h-149v48h174l61 117h-235v48h261l66 127h44l-66 -127h148v-48h-174l-61 -117h235v-48h-260z"/>
<glyph glyph-name="lessequal" horiz-adv-x="633" unicode="≤" d="M541 0h-452v45h452v-45zM541 132l-452 197v45l452 197v-53l-395 -166l395 -167v-53z"/>
<glyph glyph-name="greaterequal" horiz-adv-x="633" unicode="≥" d="M544 0h-452v45h452v-45zM92 571l452 -197v-45l-452 -197v53l395 166l-395 167v53z"/>
</font>
</defs>
</svg>
